<svg xmlns="http://www.w3.org/2000/svg" xmlns:xlink="http://www.w3.org/1999/xlink" width="1080" zoomAndPan="magnify" viewBox="0 0 810 74.999997" height="100" preserveAspectRatio="xMidYMid meet" version="1.0"><defs><g/><clipPath id="3b6ab820de"><path d="M 515.363281 46 L 657.863281 46 L 657.863281 75 L 515.363281 75 Z M 515.363281 46 " clip-rule="nonzero"/></clipPath><clipPath id="6315a6389c"><path d="M 741 14 L 780 14 L 780 38.726562 L 741 38.726562 Z M 741 14 " clip-rule="nonzero"/></clipPath><clipPath id="920afaf385"><path d="M 492 45 L 515.707031 45 L 515.707031 75 L 492 75 Z M 492 45 " clip-rule="nonzero"/></clipPath><clipPath id="ffdb490c51"><path d="M 425 52 L 438.933594 52 L 438.933594 75 L 425 75 Z M 425 52 " clip-rule="nonzero"/></clipPath><clipPath id="2c9efcaae9"><path d="M 0 6 L 135.777344 6 L 135.777344 70 L 0 70 Z M 0 6 " clip-rule="nonzero"/></clipPath><clipPath id="f846f8296d"><path d="M 376.734375 65.378906 L 405.984375 65.378906 L 405.984375 69 L 376.734375 69 Z M 376.734375 65.378906 " clip-rule="nonzero"/></clipPath><clipPath id="8e46ed5c63"><path d="M 357 42 L 360 42 L 360 44 L 357 44 Z M 357 42 " clip-rule="nonzero"/></clipPath><clipPath id="482550fc74"><path d="M 363.429688 34.128906 L 372.15625 39.96875 L 364.640625 51.1875 L 355.917969 45.34375 Z M 363.429688 34.128906 " clip-rule="nonzero"/></clipPath><clipPath id="830a7b8d00"><path d="M 363.429688 34.128906 L 372.15625 39.96875 L 364.640625 51.1875 L 355.917969 45.34375 Z M 363.429688 34.128906 " clip-rule="nonzero"/></clipPath><clipPath id="a1c84eaff6"><path d="M 355 44 L 359 44 L 359 46 L 355 46 Z M 355 44 " clip-rule="nonzero"/></clipPath><clipPath id="19b62c11fd"><path d="M 363.429688 34.128906 L 372.15625 39.96875 L 364.640625 51.1875 L 355.917969 45.34375 Z M 363.429688 34.128906 " clip-rule="nonzero"/></clipPath><clipPath id="b7fdeb748b"><path d="M 363.429688 34.128906 L 372.15625 39.96875 L 364.640625 51.1875 L 355.917969 45.34375 Z M 363.429688 34.128906 " clip-rule="nonzero"/></clipPath><clipPath id="6f09abeeab"><path d="M 358 42 L 362 42 L 362 44 L 358 44 Z M 358 42 " clip-rule="nonzero"/></clipPath><clipPath id="6e8ba64bf1"><path d="M 363.429688 34.128906 L 372.15625 39.96875 L 364.640625 51.1875 L 355.917969 45.34375 Z M 363.429688 34.128906 " clip-rule="nonzero"/></clipPath><clipPath id="baae68dcd1"><path d="M 363.429688 34.128906 L 372.15625 39.96875 L 364.640625 51.1875 L 355.917969 45.34375 Z M 363.429688 34.128906 " clip-rule="nonzero"/></clipPath><clipPath id="3632db6e25"><path d="M 357 45 L 361 45 L 361 47 L 357 47 Z M 357 45 " clip-rule="nonzero"/></clipPath><clipPath id="6fc5525945"><path d="M 363.429688 34.128906 L 372.15625 39.96875 L 364.640625 51.1875 L 355.917969 45.34375 Z M 363.429688 34.128906 " clip-rule="nonzero"/></clipPath><clipPath id="e0c58d5089"><path d="M 363.429688 34.128906 L 372.15625 39.96875 L 364.640625 51.1875 L 355.917969 45.34375 Z M 363.429688 34.128906 " clip-rule="nonzero"/></clipPath><clipPath id="9e786da6ff"><path d="M 359 43 L 363 43 L 363 45 L 359 45 Z M 359 43 " clip-rule="nonzero"/></clipPath><clipPath id="21f0d8611b"><path d="M 363.429688 34.128906 L 372.15625 39.96875 L 364.640625 51.1875 L 355.917969 45.34375 Z M 363.429688 34.128906 " clip-rule="nonzero"/></clipPath><clipPath id="c4be0c50ed"><path d="M 363.429688 34.128906 L 372.15625 39.96875 L 364.640625 51.1875 L 355.917969 45.34375 Z M 363.429688 34.128906 " clip-rule="nonzero"/></clipPath><clipPath id="aa4f082fc4"><path d="M 361 41 L 364 41 L 364 43 L 361 43 Z M 361 41 " clip-rule="nonzero"/></clipPath><clipPath id="2aaf322989"><path d="M 363.429688 34.128906 L 372.15625 39.96875 L 364.640625 51.1875 L 355.917969 45.34375 Z M 363.429688 34.128906 " clip-rule="nonzero"/></clipPath><clipPath id="3d5ba0fb48"><path d="M 363.429688 34.128906 L 372.15625 39.96875 L 364.640625 51.1875 L 355.917969 45.34375 Z M 363.429688 34.128906 " clip-rule="nonzero"/></clipPath><clipPath id="03bfabfa3f"><path d="M 362 41 L 365 41 L 365 43 L 362 43 Z M 362 41 " clip-rule="nonzero"/></clipPath><clipPath id="c808b4db47"><path d="M 363.429688 34.128906 L 372.15625 39.96875 L 364.640625 51.1875 L 355.917969 45.34375 Z M 363.429688 34.128906 " clip-rule="nonzero"/></clipPath><clipPath id="37f9b76459"><path d="M 363.429688 34.128906 L 372.15625 39.96875 L 364.640625 51.1875 L 355.917969 45.34375 Z M 363.429688 34.128906 " clip-rule="nonzero"/></clipPath><clipPath id="13ea8a5e7b"><path d="M 363 42 L 366 42 L 366 44 L 363 44 Z M 363 42 " clip-rule="nonzero"/></clipPath><clipPath id="9df7e39f7a"><path d="M 363.429688 34.128906 L 372.15625 39.96875 L 364.640625 51.1875 L 355.917969 45.34375 Z M 363.429688 34.128906 " clip-rule="nonzero"/></clipPath><clipPath id="f3da1ff373"><path d="M 363.429688 34.128906 L 372.15625 39.96875 L 364.640625 51.1875 L 355.917969 45.34375 Z M 363.429688 34.128906 " clip-rule="nonzero"/></clipPath><clipPath id="38be88071c"><path d="M 360 44 L 363 44 L 363 46 L 360 46 Z M 360 44 " clip-rule="nonzero"/></clipPath><clipPath id="1c439be15a"><path d="M 363.429688 34.128906 L 372.15625 39.96875 L 364.640625 51.1875 L 355.917969 45.34375 Z M 363.429688 34.128906 " clip-rule="nonzero"/></clipPath><clipPath id="062d8be0cf"><path d="M 363.429688 34.128906 L 372.15625 39.96875 L 364.640625 51.1875 L 355.917969 45.34375 Z M 363.429688 34.128906 " clip-rule="nonzero"/></clipPath><clipPath id="c006f74c06"><path d="M 366 41 L 369 41 L 369 43 L 366 43 Z M 366 41 " clip-rule="nonzero"/></clipPath><clipPath id="45cb6fd9b8"><path d="M 363.429688 34.128906 L 372.15625 39.96875 L 364.640625 51.1875 L 355.917969 45.34375 Z M 363.429688 34.128906 " clip-rule="nonzero"/></clipPath><clipPath id="4df49ec62f"><path d="M 363.429688 34.128906 L 372.15625 39.96875 L 364.640625 51.1875 L 355.917969 45.34375 Z M 363.429688 34.128906 " clip-rule="nonzero"/></clipPath><clipPath id="ae8a56548e"><path d="M 365 40 L 368 40 L 368 42 L 365 42 Z M 365 40 " clip-rule="nonzero"/></clipPath><clipPath id="b6f4bea7df"><path d="M 363.429688 34.128906 L 372.15625 39.96875 L 364.640625 51.1875 L 355.917969 45.34375 Z M 363.429688 34.128906 " clip-rule="nonzero"/></clipPath><clipPath id="54b43b1917"><path d="M 363.429688 34.128906 L 372.15625 39.96875 L 364.640625 51.1875 L 355.917969 45.34375 Z M 363.429688 34.128906 " clip-rule="nonzero"/></clipPath><clipPath id="c764591a32"><path d="M 364 39 L 368 39 L 368 41 L 364 41 Z M 364 39 " clip-rule="nonzero"/></clipPath><clipPath id="4e97808409"><path d="M 363.429688 34.128906 L 372.15625 39.96875 L 364.640625 51.1875 L 355.917969 45.34375 Z M 363.429688 34.128906 " clip-rule="nonzero"/></clipPath><clipPath id="1c01a67527"><path d="M 363.429688 34.128906 L 372.15625 39.96875 L 364.640625 51.1875 L 355.917969 45.34375 Z M 363.429688 34.128906 " clip-rule="nonzero"/></clipPath><clipPath id="a1a3c30740"><path d="M 365 42 L 368 42 L 368 44 L 365 44 Z M 365 42 " clip-rule="nonzero"/></clipPath><clipPath id="61b9517ad5"><path d="M 363.429688 34.128906 L 372.15625 39.96875 L 364.640625 51.1875 L 355.917969 45.34375 Z M 363.429688 34.128906 " clip-rule="nonzero"/></clipPath><clipPath id="0981c11c5d"><path d="M 363.429688 34.128906 L 372.15625 39.96875 L 364.640625 51.1875 L 355.917969 45.34375 Z M 363.429688 34.128906 " clip-rule="nonzero"/></clipPath><clipPath id="3bfb8d3f10"><path d="M 362 45 L 365 45 L 365 47 L 362 47 Z M 362 45 " clip-rule="nonzero"/></clipPath><clipPath id="919f81f759"><path d="M 363.429688 34.128906 L 372.15625 39.96875 L 364.640625 51.1875 L 355.917969 45.34375 Z M 363.429688 34.128906 " clip-rule="nonzero"/></clipPath><clipPath id="8231bc2d40"><path d="M 363.429688 34.128906 L 372.15625 39.96875 L 364.640625 51.1875 L 355.917969 45.34375 Z M 363.429688 34.128906 " clip-rule="nonzero"/></clipPath><clipPath id="addd6b83a6"><path d="M 359 40 L 362 40 L 362 42 L 359 42 Z M 359 40 " clip-rule="nonzero"/></clipPath><clipPath id="452fbaae39"><path d="M 363.429688 34.128906 L 372.15625 39.96875 L 364.640625 51.1875 L 355.917969 45.34375 Z M 363.429688 34.128906 " clip-rule="nonzero"/></clipPath><clipPath id="a6dbcedba9"><path d="M 363.429688 34.128906 L 372.15625 39.96875 L 364.640625 51.1875 L 355.917969 45.34375 Z M 363.429688 34.128906 " clip-rule="nonzero"/></clipPath><clipPath id="a9e239960c"><path d="M 362 38 L 365 38 L 365 41 L 362 41 Z M 362 38 " clip-rule="nonzero"/></clipPath><clipPath id="3705036682"><path d="M 363.429688 34.128906 L 372.15625 39.96875 L 364.640625 51.1875 L 355.917969 45.34375 Z M 363.429688 34.128906 " clip-rule="nonzero"/></clipPath><clipPath id="4a266982fd"><path d="M 363.429688 34.128906 L 372.15625 39.96875 L 364.640625 51.1875 L 355.917969 45.34375 Z M 363.429688 34.128906 " clip-rule="nonzero"/></clipPath><clipPath id="e3b87b9d37"><path d="M 365 44 L 368 44 L 368 46 L 365 46 Z M 365 44 " clip-rule="nonzero"/></clipPath><clipPath id="74d2730abe"><path d="M 363.429688 34.128906 L 372.15625 39.96875 L 364.640625 51.1875 L 355.917969 45.34375 Z M 363.429688 34.128906 " clip-rule="nonzero"/></clipPath><clipPath id="c344025c6e"><path d="M 363.429688 34.128906 L 372.15625 39.96875 L 364.640625 51.1875 L 355.917969 45.34375 Z M 363.429688 34.128906 " clip-rule="nonzero"/></clipPath><clipPath id="b58b7ad05e"><path d="M 359 46 L 362 46 L 362 48 L 359 48 Z M 359 46 " clip-rule="nonzero"/></clipPath><clipPath id="902b9f56c1"><path d="M 363.429688 34.128906 L 372.15625 39.96875 L 364.640625 51.1875 L 355.917969 45.34375 Z M 363.429688 34.128906 " clip-rule="nonzero"/></clipPath><clipPath id="3dbaa3eb9c"><path d="M 363.429688 34.128906 L 372.15625 39.96875 L 364.640625 51.1875 L 355.917969 45.34375 Z M 363.429688 34.128906 " clip-rule="nonzero"/></clipPath><clipPath id="7230fd13fa"><path d="M 368 42 L 371 42 L 371 44 L 368 44 Z M 368 42 " clip-rule="nonzero"/></clipPath><clipPath id="148fe14314"><path d="M 363.429688 34.128906 L 372.15625 39.96875 L 364.640625 51.1875 L 355.917969 45.34375 Z M 363.429688 34.128906 " clip-rule="nonzero"/></clipPath><clipPath id="83f73ec9da"><path d="M 363.429688 34.128906 L 372.15625 39.96875 L 364.640625 51.1875 L 355.917969 45.34375 Z M 363.429688 34.128906 " clip-rule="nonzero"/></clipPath><clipPath id="d012d1908c"><path d="M 368 39 L 371 39 L 371 41 L 368 41 Z M 368 39 " clip-rule="nonzero"/></clipPath><clipPath id="26dc6e8156"><path d="M 363.429688 34.128906 L 372.15625 39.96875 L 364.640625 51.1875 L 355.917969 45.34375 Z M 363.429688 34.128906 " clip-rule="nonzero"/></clipPath><clipPath id="18d29900c6"><path d="M 363.429688 34.128906 L 372.15625 39.96875 L 364.640625 51.1875 L 355.917969 45.34375 Z M 363.429688 34.128906 " clip-rule="nonzero"/></clipPath><clipPath id="b224ffca10"><path d="M 369 39 L 372 39 L 372 42 L 369 42 Z M 369 39 " clip-rule="nonzero"/></clipPath><clipPath id="28e43e27f7"><path d="M 363.429688 34.128906 L 372.15625 39.96875 L 364.640625 51.1875 L 355.917969 45.34375 Z M 363.429688 34.128906 " clip-rule="nonzero"/></clipPath><clipPath id="22ef3c08c9"><path d="M 363.429688 34.128906 L 372.15625 39.96875 L 364.640625 51.1875 L 355.917969 45.34375 Z M 363.429688 34.128906 " clip-rule="nonzero"/></clipPath></defs><g clip-path="url(#3b6ab820de)"><path fill="#ffffff" d="M 523.664062 81.386719 C 524.847656 81.21875 526.171875 81.191406 527.328125 80.207031 C 528.199219 79.472656 528.453125 78.65625 529.695312 78.035156 C 530.597656 77.585938 530.707031 77.867188 531.46875 77.445312 C 532.820312 76.683594 532.566406 75.695312 533.835938 74.765625 C 534.992188 73.921875 535.582031 74.511719 536.597656 73.667969 C 537.726562 72.765625 537.246094 71.894531 538.203125 70.933594 C 539.78125 69.328125 542.796875 69.863281 543.726562 70.003906 C 545.246094 70.285156 546.429688 70.878906 547.164062 71.359375 C 548.542969 70.652344 549.617188 70.597656 550.320312 70.652344 C 551.417969 70.738281 552.125 71.1875 552.914062 70.792969 C 553.476562 70.511719 553.785156 69.976562 553.984375 69.496094 C 555.109375 66.90625 554.066406 64.625 554.6875 61.890625 C 554.742188 61.636719 555.476562 58.59375 558.152344 56.761719 C 560.011719 55.464844 562.011719 55.382812 563.871094 55.269531 C 566.128906 55.15625 567.957031 55.523438 569.171875 55.859375 C 569.03125 56.058594 571.171875 52.394531 572.46875 50.816406 C 575.652344 47.011719 582.355469 45.492188 587.371094 47.070312 C 589.515625 47.746094 591.347656 48.984375 594.304688 51.042969 C 595.910156 52.140625 597.007812 53.128906 597.574219 53.664062 C 598.390625 54.421875 598.867188 54.957031 598.867188 54.957031 C 602.277344 54.308594 602.449219 54.308594 602.449219 54.308594 C 604.421875 54.140625 607.238281 54.789062 608.957031 56.816406 C 610.871094 59.015625 611.070312 63.441406 610.140625 63.777344 C 609.828125 63.890625 609.519531 62.621094 608.648438 62.59375 C 608.082031 62.566406 607.492188 63.046875 607.320312 63.582031 C 606.957031 64.765625 608.589844 66.144531 608.929688 66.425781 C 610.367188 67.636719 611.265625 67.382812 613.15625 68.203125 C 616.789062 69.75 618.339844 72.792969 619.550781 72.175781 C 619.636719 72.148438 619.804688 71.921875 620.199219 71.46875 C 621.15625 70.371094 621.382812 69.863281 621.691406 69.554688 C 622.652344 68.539062 625.128906 68.566406 626.652344 69.609375 C 628.425781 70.792969 627.582031 72.429688 629.636719 74.261719 C 630.878906 75.359375 631.328125 74.90625 633.105469 76.375 C 634.625 77.640625 635.753906 78.628906 635.753906 78.628906 C 636.175781 78.175781 636.9375 77.5 638.035156 77.132812 C 640.429688 76.34375 642.683594 77.667969 643.277344 78.035156 C 644.910156 78.992188 644.769531 79.726562 646.542969 80.796875 C 647.671875 81.5 648.546875 81.699219 650.347656 82.175781 C 651.871094 82.570312 654.097656 83.136719 657.308594 83.980469 C 655.5625 84.066406 652.941406 84.179688 649.699219 84.320312 C 643.839844 84.542969 643.21875 84.488281 639.726562 84.683594 C 633.753906 84.996094 630.710938 85.390625 628.960938 85.644531 C 625.695312 86.121094 626.117188 86.292969 624.820312 86.347656 C 619.859375 86.515625 617.382812 84.261719 615.042969 85.644531 C 614 86.261719 614.449219 86.882812 613.125 88.292969 C 611.238281 90.292969 608.703125 90.601562 606.535156 90.996094 C 597.179688 92.601562 596.699219 94.886719 591.316406 94.433594 C 588.980469 94.238281 588.5 93.757812 586.867188 93.195312 C 586.867188 93.195312 585.992188 92.886719 584.554688 92.574219 C 581.765625 91.984375 576.496094 93.589844 572.4375 93.957031 C 571.199219 94.066406 566.886719 94.351562 562.152344 92.460938 C 559.027344 91.222656 556.800781 89.476562 555.449219 88.207031 C 555.449219 88.207031 552.96875 88.234375 551.109375 87.617188 C 548.292969 86.6875 548.460938 85.503906 545.785156 84.460938 C 544.796875 84.09375 541.839844 82.824219 538.683594 83.558594 C 537.386719 83.867188 537.132812 84.234375 535.414062 84.542969 C 534.117188 84.769531 533.132812 84.742188 532.851562 84.742188 C 531.1875 84.683594 530.03125 84.289062 529.273438 84.066406 C 527.664062 83.585938 526.003906 83.613281 522.679688 83.53125 C 519.691406 83.472656 517.269531 83.726562 515.660156 83.980469 C 519.269531 82.234375 521.890625 81.613281 523.664062 81.386719 Z M 523.664062 81.386719 " fill-opacity="1" fill-rule="nonzero"/></g><path fill="#3451d1" d="M 373.859375 71.710938 C 218.519531 24.550781 95.074219 15.535156 2.839844 21.085938 L 2.839844 315.125 L 832.261719 315.125 L 832.261719 17.617188 C 730.316406 80.03125 574.972656 132.738281 373.859375 71.710938 Z M 373.859375 71.710938 " fill-opacity="1" fill-rule="nonzero"/><g fill="#ffed00" fill-opacity="1"><g transform="translate(133.810452, 69.195051)"><g><path d="M 21.359375 -21.15625 L 16.859375 0 L 1.3125 0 L 13.609375 -58.140625 L 29 -58.140625 C 35.675781 -58.140625 40.789062 -56.8125 44.34375 -54.15625 C 47.894531 -51.507812 49.671875 -47.523438 49.671875 -42.203125 C 49.671875 -38.066406 48.726562 -34.457031 46.84375 -31.375 C 44.96875 -28.300781 42.171875 -25.957031 38.453125 -24.34375 L 47.375 -3.8125 L 48.953125 0 L 32.015625 0 L 24.265625 -21.15625 Z M 23.859375 -32.96875 L 25.890625 -32.96875 C 28.410156 -32.96875 30.410156 -33.691406 31.890625 -35.140625 C 33.378906 -36.585938 34.125 -38.609375 34.125 -41.203125 C 34.125 -42.847656 33.664062 -44.097656 32.75 -44.953125 C 31.832031 -45.816406 30.5 -46.25 28.75 -46.25 L 26.640625 -46.25 Z M 23.859375 -32.96875 "/></g></g></g><g fill="#ffed00" fill-opacity="1"><g transform="translate(179.008967, 69.195051)"><g><path d="M 35.046875 -46.09375 C 32.179688 -46.09375 29.59375 -45.054688 27.28125 -42.984375 C 24.976562 -40.921875 23.171875 -38.070312 21.859375 -34.4375 C 20.546875 -30.8125 19.890625 -26.875 19.890625 -22.625 C 19.890625 -19.070312 20.628906 -16.421875 22.109375 -14.671875 C 23.597656 -12.921875 25.734375 -12.046875 28.515625 -12.046875 C 30.710938 -12.046875 32.9375 -12.316406 35.1875 -12.859375 C 37.445312 -13.410156 40.101562 -14.332031 43.15625 -15.625 L 43.15625 -2.78125 C 37.769531 -0.394531 31.9375 0.796875 25.65625 0.796875 C 18.757812 0.796875 13.445312 -1.171875 9.71875 -5.109375 C 6 -9.046875 4.140625 -14.617188 4.140625 -21.828125 C 4.140625 -28.890625 5.484375 -35.363281 8.171875 -41.25 C 10.859375 -47.132812 14.515625 -51.570312 19.140625 -54.5625 C 23.773438 -57.5625 29.078125 -59.0625 35.046875 -59.0625 C 42.066406 -59.0625 48.441406 -57.320312 54.171875 -53.84375 L 48.28125 -41.71875 C 45.8125 -43.175781 43.539062 -44.269531 41.46875 -45 C 39.40625 -45.726562 37.265625 -46.09375 35.046875 -46.09375 Z M 35.046875 -46.09375 "/></g></g></g><g fill="#ffed00" fill-opacity="1"><g transform="translate(222.576811, 69.195051)"><g><path d="M 34.125 -10.890625 L 16.3125 -10.890625 L 11.328125 0 L -4.8125 0 L 24.78125 -58.140625 L 44.78125 -58.140625 L 49.671875 0 L 34.515625 0 Z M 22 -23.3125 L 33.640625 -23.3125 L 32.96875 -40.171875 L 32.890625 -43.59375 C 32.890625 -45.582031 32.941406 -47.316406 33.046875 -48.796875 C 32.410156 -46.515625 31.601562 -44.316406 30.625 -42.203125 Z M 22 -23.3125 "/></g></g></g><g fill="#ffed00" fill-opacity="1"><g transform="translate(269.883261, 69.195051)"><g><path d="M 38.859375 -17.859375 C 38.859375 -11.972656 36.910156 -7.390625 33.015625 -4.109375 C 29.117188 -0.835938 23.679688 0.796875 16.703125 0.796875 C 13.785156 0.796875 11.023438 0.472656 8.421875 -0.171875 C 5.828125 -0.828125 3.585938 -1.773438 1.703125 -3.015625 L 1.703125 -16.9375 C 3.929688 -15.53125 6.484375 -14.347656 9.359375 -13.390625 C 12.242188 -12.441406 14.851562 -11.96875 17.1875 -11.96875 C 19.144531 -11.96875 20.625 -12.378906 21.625 -13.203125 C 22.632812 -14.023438 23.140625 -15.191406 23.140625 -16.703125 C 23.140625 -17.421875 22.976562 -18.085938 22.65625 -18.703125 C 22.34375 -19.328125 21.894531 -19.953125 21.3125 -20.578125 C 20.726562 -21.203125 19.164062 -22.578125 16.625 -24.703125 C 13.519531 -27.191406 11.265625 -29.734375 9.859375 -32.328125 C 8.453125 -34.929688 7.75 -37.785156 7.75 -40.890625 C 7.75 -44.359375 8.617188 -47.476562 10.359375 -50.25 C 12.097656 -53.019531 14.550781 -55.164062 17.71875 -56.6875 C 20.882812 -58.21875 24.429688 -58.984375 28.359375 -58.984375 C 34.691406 -58.984375 40.390625 -57.5625 45.453125 -54.71875 L 40.09375 -42.90625 C 35.5625 -45.238281 31.703125 -46.40625 28.515625 -46.40625 C 26.816406 -46.40625 25.507812 -46.035156 24.59375 -45.296875 C 23.6875 -44.554688 23.234375 -43.46875 23.234375 -42.03125 C 23.234375 -40.738281 23.675781 -39.523438 24.5625 -38.390625 C 25.445312 -37.265625 27.132812 -35.765625 29.625 -33.890625 C 32.757812 -31.578125 35.082031 -29.148438 36.59375 -26.609375 C 38.101562 -24.066406 38.859375 -21.148438 38.859375 -17.859375 Z M 38.859375 -17.859375 "/></g></g></g><g fill="#ffed00" fill-opacity="1"><g transform="translate(306.769334, 69.195051)"><g><path d="M 46.25 0 L 30.703125 0 L 35.671875 -23.703125 L 21.921875 -23.703125 L 16.859375 0 L 1.3125 0 L 13.609375 -58.140625 L 29.15625 -58.140625 L 24.703125 -36.59375 L 38.546875 -36.59375 L 43 -58.140625 L 58.578125 -58.140625 Z M 46.25 0 "/></g></g></g><path stroke-linecap="butt" transform="matrix(0.398338, 0, 0, 0.398338, 81.725261, -22.835968)" fill="none" stroke-linejoin="miter" d="M 175.341189 168.885406 L 164.054056 221.996714 L 125.014891 221.996714 L 155.865735 76.019069 L 194.512645 76.019069 C 211.28154 76.019069 224.127887 79.353235 233.051685 86.001955 C 241.965677 92.660481 246.427576 102.682593 246.427576 116.058483 C 246.427576 126.443431 244.06424 135.494712 239.337569 143.222132 C 234.610898 150.939747 227.589536 156.833376 218.273483 160.893214 L 240.641816 212.415889 L 244.63301 221.996714 L 202.09297 221.996714 L 182.627323 168.885406 Z M 181.627073 139.221133 L 186.71658 139.221133 C 193.04169 139.221133 198.072358 137.406954 201.798779 133.788403 C 205.5252 130.160046 207.388411 125.080345 207.388411 118.559108 C 207.388411 114.430626 206.241066 111.282781 203.946375 109.125379 C 201.651684 106.958171 198.297905 105.87947 193.90465 105.87947 L 188.619016 105.87947 Z M 323.152626 106.271725 C 315.964555 106.271725 309.472738 108.870413 303.686978 114.06779 C 297.891413 119.255361 293.351063 126.414012 290.056122 135.533937 C 286.761181 144.653863 285.113711 154.538685 285.113711 165.188404 C 285.113711 174.102396 286.976921 180.760922 290.703343 185.154177 C 294.429764 189.547431 299.784043 191.744058 306.775985 191.744058 C 312.306779 191.744058 317.896411 191.067419 323.554687 189.694527 C 329.212963 188.331441 335.871489 186.017137 343.520459 182.761422 L 343.520459 215.014578 C 330.007279 221.00627 315.366367 223.997214 299.587915 223.997214 C 282.27967 223.997214 268.952811 219.054803 259.597532 209.16998 C 250.242254 199.285158 245.574421 185.291466 245.574421 167.179098 C 245.574421 149.478597 248.947813 133.239246 255.704403 118.461044 C 262.460993 103.682843 271.649563 92.532998 283.260307 85.011512 C 294.880857 77.490025 308.178297 73.724378 323.152626 73.724378 C 340.794288 73.724378 356.798286 78.088213 371.184233 86.806077 L 356.406031 117.254861 C 350.208404 113.597084 344.520709 110.8513 339.333139 109.017509 C 334.135762 107.193524 328.742257 106.271725 323.152626 106.271725 Z M 430.228395 194.636938 L 385.501535 194.636938 L 373.018024 221.996714 L 332.478485 221.996714 L 406.761748 76.019069 L 456.989983 76.019069 L 469.26756 221.996714 L 431.228645 221.996714 Z M 399.779612 163.491902 L 429.032018 163.491902 L 427.335516 121.14799 L 427.139388 112.567415 C 427.139388 107.575972 427.266871 103.212137 427.531643 99.485716 C 425.933205 105.212637 423.903286 110.733624 421.441886 116.058483 Z M 560.868875 177.17179 C 560.868875 191.949992 555.975496 203.443059 546.198544 211.660799 C 536.411785 219.888344 522.761316 223.997214 505.256943 223.997214 C 497.931584 223.997214 491.008285 223.183285 484.487048 221.555427 C 477.965811 219.917763 472.336954 217.544621 467.610283 214.416389 L 467.610283 179.466481 C 473.209721 182.996775 479.613282 185.958299 486.830771 188.351054 C 494.058067 190.743808 500.598917 191.949992 506.45332 191.949992 C 511.376119 191.949992 515.112346 190.910517 517.64239 188.851179 C 520.162628 186.782034 521.42765 183.859736 521.42765 180.06467 C 521.42765 178.270104 521.035395 176.583408 520.231272 175.024195 C 519.436956 173.455175 518.299417 171.895962 516.838268 170.326943 C 515.377118 168.76773 511.444763 165.315887 505.060816 159.991027 C 497.26475 153.734562 491.606474 147.350615 488.085987 140.819571 C 484.555693 134.298334 482.790546 127.139683 482.790546 119.353424 C 482.790546 110.63556 484.967561 102.800269 489.331396 95.837746 C 493.695231 88.885028 499.843826 83.491524 507.8066 79.667039 C 515.759567 75.842554 524.663752 73.920505 534.509349 73.920505 C 550.42509 73.920505 564.732586 77.490025 577.45145 84.60945 L 563.967689 114.263917 C 552.582492 108.409514 542.903603 105.477409 534.91141 105.477409 C 530.655445 105.477409 527.370311 106.409014 525.07562 108.272225 C 522.780929 110.135435 521.633583 112.861606 521.633583 116.460545 C 521.633583 119.726066 522.75151 122.766042 524.977556 125.600083 C 527.203602 128.424318 531.449761 132.199771 537.706226 136.926442 C 545.56113 142.722007 551.386114 148.811764 555.18118 155.205518 C 558.976246 161.589466 560.868875 168.914825 560.868875 177.17179 Z M 672.043708 221.996714 L 633.004544 221.996714 L 645.488055 162.491652 L 610.940208 162.491652 L 598.26057 221.996714 L 559.211599 221.996714 L 590.07225 76.019069 L 629.111414 76.019069 L 617.922344 130.140433 L 652.676125 130.140433 L 663.855388 76.019069 L 702.992617 76.019069 Z M 672.043708 221.996714 " stroke="#ffffff" stroke-width="7.6686" stroke-opacity="1" stroke-miterlimit="4"/><path fill="#ffffff" d="M 723.976562 16.910156 L 740.511719 6.5 C 741.046875 6.164062 740.550781 5.3125 740.015625 5.652344 L 723.480469 16.058594 C 722.949219 16.394531 723.441406 17.246094 723.976562 16.910156 Z M 723.976562 16.910156 " fill-opacity="1" fill-rule="nonzero"/><path fill="#ffffff" d="M 723.757812 25.90625 L 742.292969 15.578125 L 760.824219 5.253906 L 771.292969 -0.582031 C 771.847656 -0.886719 771.351562 -1.738281 770.796875 -1.429688 L 752.261719 8.898438 L 733.730469 19.226562 L 723.261719 25.058594 C 722.707031 25.367188 723.203125 26.214844 723.757812 25.90625 Z M 723.757812 25.90625 " fill-opacity="1" fill-rule="nonzero"/><path fill="#ffffff" d="M 729.472656 36.273438 L 755.71875 19.136719 L 763.101562 14.316406 C 763.628906 13.972656 763.136719 13.121094 762.605469 13.46875 L 736.359375 30.605469 L 728.976562 35.425781 C 728.449219 35.769531 728.941406 36.621094 729.472656 36.273438 Z M 729.472656 36.273438 " fill-opacity="1" fill-rule="nonzero"/><g clip-path="url(#6315a6389c)"><path fill="#ffffff" d="M 742.34375 38.03125 L 771.496094 19.992188 L 779.660156 14.941406 C 780.195312 14.609375 779.703125 13.757812 779.164062 14.089844 L 750.011719 32.128906 L 741.847656 37.179688 C 741.308594 37.511719 741.804688 38.363281 742.34375 38.03125 Z M 742.34375 38.03125 " fill-opacity="1" fill-rule="nonzero"/></g><g clip-path="url(#920afaf385)"><path fill="#61cdc8" d="M 513.40625 64.832031 C 512.832031 63.96875 512.578125 62.949219 512.800781 61.957031 C 512.960938 61.285156 513.054688 60.582031 513.054688 59.847656 C 513.054688 57.449219 512.128906 55.277344 510.59375 53.679688 C 509.890625 52.910156 509.476562 51.921875 509.476562 50.898438 C 509.507812 49.777344 509.1875 48.597656 508.390625 47.414062 C 508.101562 46.933594 507.6875 46.550781 507.207031 46.261719 C 502.921875 43.738281 498.542969 46.773438 498.542969 50.800781 C 498.542969 50.800781 498.542969 50.800781 498.542969 50.832031 C 498.542969 51.855469 498.226562 52.847656 497.523438 53.582031 C 495.957031 55.210938 494.964844 57.417969 494.964844 59.847656 C 494.964844 60.519531 495.027344 61.191406 495.1875 61.828125 C 495.414062 62.851562 495.21875 63.9375 494.644531 64.800781 C 492.121094 68.542969 491.738281 73.847656 495.378906 78.960938 C 495.605469 79.28125 495.890625 79.570312 496.210938 79.792969 C 505.417969 86.3125 515.324219 79.886719 515.324219 71.164062 C 515.324219 68.828125 514.621094 66.65625 513.40625 64.832031 Z M 513.40625 64.832031 " fill-opacity="1" fill-rule="nonzero"/></g><path fill="#3451d1" d="M 503.945312 56.492188 L 503.371094 94.878906 L 504.648438 94.878906 " fill-opacity="1" fill-rule="nonzero"/><path fill="#3451d1" d="M 507.910156 62.246094 L 503.820312 65.921875 L 504.105469 66.238281 " fill-opacity="1" fill-rule="nonzero"/><path fill="#3451d1" d="M 509.378906 73.238281 L 503.820312 78.226562 L 504.234375 78.640625 " fill-opacity="1" fill-rule="nonzero"/><path fill="#3451d1" d="M 499.183594 67.230469 L 504.171875 71.671875 L 503.785156 72.058594 " fill-opacity="1" fill-rule="nonzero"/><g clip-path="url(#ffdb490c51)"><path fill="#61cdc8" d="M 437.925781 64.171875 C 437.574219 63.648438 437.417969 63.023438 437.554688 62.417969 C 437.652344 62.007812 437.710938 61.578125 437.710938 61.128906 C 437.710938 59.667969 437.144531 58.339844 436.207031 57.367188 C 435.78125 56.898438 435.527344 56.292969 435.527344 55.667969 C 435.546875 54.988281 435.351562 54.265625 434.863281 53.542969 C 434.6875 53.25 434.433594 53.015625 434.140625 52.839844 C 431.527344 51.300781 428.855469 53.152344 428.855469 55.609375 C 428.855469 55.609375 428.855469 55.609375 428.855469 55.628906 C 428.855469 56.253906 428.660156 56.859375 428.230469 57.308594 C 427.277344 58.300781 426.671875 59.648438 426.671875 61.128906 C 426.671875 61.539062 426.710938 61.949219 426.808594 62.339844 C 426.945312 62.964844 426.828125 63.628906 426.476562 64.152344 C 424.933594 66.4375 424.699219 69.671875 426.925781 72.792969 C 427.0625 72.988281 427.238281 73.164062 427.429688 73.300781 C 433.050781 77.28125 439.09375 73.359375 439.09375 68.035156 C 439.09375 66.613281 438.667969 65.285156 437.925781 64.171875 Z M 437.925781 64.171875 " fill-opacity="1" fill-rule="nonzero"/></g><path fill="#3451d1" d="M 432.152344 59.082031 L 431.800781 82.507812 L 432.582031 82.507812 " fill-opacity="1" fill-rule="nonzero"/><path fill="#3451d1" d="M 434.570312 62.59375 L 432.074219 64.835938 L 432.25 65.03125 " fill-opacity="1" fill-rule="nonzero"/><path fill="#3451d1" d="M 435.46875 69.304688 L 432.074219 72.347656 L 432.328125 72.597656 " fill-opacity="1" fill-rule="nonzero"/><path fill="#3451d1" d="M 429.246094 65.636719 L 432.289062 68.347656 L 432.054688 68.582031 " fill-opacity="1" fill-rule="nonzero"/><g clip-path="url(#2c9efcaae9)"><path fill="#ffffff" d="M -41.492188 52.324219 C -39.925781 52.101562 -38.171875 52.0625 -36.644531 50.757812 C -35.488281 49.789062 -35.152344 48.707031 -33.511719 47.886719 C -32.316406 47.289062 -32.167969 47.664062 -31.160156 47.101562 C -29.371094 46.097656 -29.707031 44.789062 -28.027344 43.558594 C -26.5 42.441406 -25.714844 43.222656 -24.375 42.105469 C -22.882812 40.910156 -23.515625 39.753906 -22.246094 38.488281 C -20.160156 36.363281 -16.167969 37.070312 -14.9375 37.257812 C -12.921875 37.628906 -11.355469 38.414062 -10.386719 39.046875 C -8.558594 38.113281 -7.144531 38.039062 -6.210938 38.113281 C -4.753906 38.226562 -3.824219 38.824219 -2.777344 38.300781 C -2.035156 37.929688 -1.621094 37.21875 -1.363281 36.585938 C 0.128906 33.152344 -1.25 30.132812 -0.429688 26.515625 C -0.355469 26.179688 0.613281 22.152344 4.15625 19.726562 C 6.621094 18.011719 9.265625 17.898438 11.730469 17.75 C 14.710938 17.601562 17.136719 18.085938 18.742188 18.535156 C 18.554688 18.796875 21.386719 13.945312 23.105469 11.859375 C 27.316406 6.824219 36.195312 4.808594 42.832031 6.898438 C 45.667969 7.792969 48.09375 9.433594 52.007812 12.15625 C 54.132812 13.613281 55.589844 14.917969 56.335938 15.625 C 57.414062 16.632812 58.050781 17.339844 58.050781 17.339844 C 62.5625 16.484375 62.785156 16.484375 62.785156 16.484375 C 65.398438 16.257812 69.125 17.117188 71.402344 19.800781 C 73.9375 22.710938 74.199219 28.566406 72.96875 29.015625 C 72.558594 29.164062 72.148438 27.484375 70.992188 27.449219 C 70.246094 27.410156 69.460938 28.042969 69.238281 28.753906 C 68.753906 30.320312 70.917969 32.148438 71.363281 32.519531 C 73.265625 34.125 74.460938 33.789062 76.957031 34.871094 C 81.769531 36.921875 83.820312 40.949219 85.425781 40.128906 C 85.535156 40.089844 85.761719 39.792969 86.28125 39.195312 C 87.550781 37.742188 87.847656 37.070312 88.257812 36.660156 C 89.527344 35.316406 92.808594 35.355469 94.824219 36.734375 C 97.171875 38.300781 96.054688 40.464844 98.777344 42.886719 C 100.417969 44.34375 101.015625 43.746094 103.363281 45.683594 C 105.378906 47.363281 106.871094 48.667969 106.871094 48.667969 C 107.429688 48.074219 108.4375 47.175781 109.890625 46.691406 C 113.058594 45.648438 116.042969 47.402344 116.828125 47.886719 C 118.992188 49.152344 118.804688 50.125 121.152344 51.539062 C 122.644531 52.472656 123.800781 52.734375 126.1875 53.367188 C 128.203125 53.890625 131.148438 54.636719 135.402344 55.753906 C 133.089844 55.867188 129.621094 56.015625 125.332031 56.203125 C 117.574219 56.5 116.753906 56.425781 112.128906 56.6875 C 104.222656 57.097656 100.195312 57.621094 97.882812 57.957031 C 93.554688 58.589844 94.113281 58.8125 92.398438 58.886719 C 85.835938 59.113281 82.554688 56.128906 79.457031 57.957031 C 78.078125 58.777344 78.675781 59.597656 76.921875 61.460938 C 74.421875 64.109375 71.066406 64.519531 68.195312 65.042969 C 55.8125 67.167969 55.179688 70.1875 48.054688 69.59375 C 44.960938 69.332031 44.324219 68.695312 42.160156 67.949219 C 42.160156 67.949219 41.003906 67.539062 39.105469 67.128906 C 35.410156 66.347656 28.4375 68.472656 23.066406 68.957031 C 21.425781 69.105469 15.71875 69.480469 9.453125 66.980469 C 5.3125 65.339844 2.367188 63.027344 0.578125 61.347656 C 0.578125 61.347656 -2.703125 61.386719 -5.167969 60.566406 C -8.894531 59.335938 -8.671875 57.769531 -12.214844 56.390625 C -13.519531 55.90625 -17.4375 54.226562 -21.613281 55.195312 C -23.328125 55.605469 -23.664062 56.089844 -25.941406 56.5 C -27.65625 56.800781 -28.960938 56.761719 -29.332031 56.761719 C -31.535156 56.6875 -33.0625 56.164062 -34.070312 55.867188 C -36.195312 55.234375 -38.394531 55.269531 -42.796875 55.160156 C -46.75 55.082031 -49.957031 55.417969 -52.082031 55.753906 C -47.308594 53.441406 -43.839844 52.621094 -41.492188 52.324219 Z M -41.492188 52.324219 " fill-opacity="1" fill-rule="nonzero"/></g><g clip-path="url(#f846f8296d)"><path fill="#ffffff" d="M 404.078125 68.765625 L 378.589844 68.765625 C 377.65625 68.765625 376.898438 68.007812 376.898438 67.074219 C 376.898438 66.140625 377.65625 65.378906 378.589844 65.378906 L 404.078125 65.378906 C 405.015625 65.378906 405.773438 66.140625 405.773438 67.074219 C 405.773438 68.007812 405.015625 68.765625 404.078125 68.765625 Z M 404.078125 68.765625 " fill-opacity="1" fill-rule="nonzero"/></g><g clip-path="url(#8e46ed5c63)"><g clip-path="url(#482550fc74)"><g clip-path="url(#830a7b8d00)"><path fill="#ffffff" d="M 357.214844 43.476562 C 357.28125 43.519531 357.527344 43.410156 357.566406 43.394531 C 357.824219 43.304688 358.078125 43.179688 358.335938 43.054688 C 358.589844 42.929688 358.835938 42.804688 359.070312 42.652344 C 359.101562 42.636719 359.375 42.449219 359.34375 42.429688 C 359.277344 42.386719 359.03125 42.496094 358.996094 42.507812 C 358.734375 42.601562 358.480469 42.726562 358.226562 42.851562 C 357.972656 42.972656 357.722656 43.101562 357.492188 43.25 C 357.460938 43.269531 357.183594 43.453125 357.214844 43.476562 Z M 357.214844 43.476562 " fill-opacity="1" fill-rule="nonzero"/></g></g></g><g clip-path="url(#a1c84eaff6)"><g clip-path="url(#19b62c11fd)"><g clip-path="url(#b7fdeb748b)"><path fill="#ffffff" d="M 355.875 45.59375 C 355.941406 45.636719 356.1875 45.523438 356.222656 45.511719 C 356.484375 45.421875 356.738281 45.296875 356.992188 45.171875 C 357.246094 45.046875 357.496094 44.917969 357.726562 44.769531 C 357.757812 44.753906 358.035156 44.566406 358.003906 44.546875 C 357.9375 44.5 357.691406 44.613281 357.652344 44.625 C 357.394531 44.71875 357.136719 44.839844 356.882812 44.964844 C 356.628906 45.089844 356.382812 45.21875 356.148438 45.367188 C 356.121094 45.378906 355.835938 45.566406 355.875 45.59375 Z M 355.875 45.59375 " fill-opacity="1" fill-rule="nonzero"/></g></g></g><g clip-path="url(#6f09abeeab)"><g clip-path="url(#6e8ba64bf1)"><g clip-path="url(#baae68dcd1)"><path fill="#ffffff" d="M 358.964844 43.421875 C 359.03125 43.464844 359.277344 43.355469 359.3125 43.339844 C 359.574219 43.25 359.828125 43.125 360.082031 43 C 360.335938 42.875 360.585938 42.746094 360.820312 42.597656 C 360.847656 42.582031 361.125 42.394531 361.09375 42.375 C 361.027344 42.328125 360.78125 42.441406 360.746094 42.453125 C 360.484375 42.546875 360.230469 42.671875 359.972656 42.792969 C 359.71875 42.917969 359.472656 43.046875 359.238281 43.195312 C 359.214844 43.207031 358.933594 43.398438 358.964844 43.421875 Z M 358.964844 43.421875 " fill-opacity="1" fill-rule="nonzero"/></g></g></g><g clip-path="url(#3632db6e25)"><g clip-path="url(#6fc5525945)"><g clip-path="url(#e0c58d5089)"><path fill="#ffffff" d="M 357.875 46.382812 C 357.941406 46.425781 358.1875 46.3125 358.222656 46.300781 C 358.484375 46.210938 358.738281 46.085938 358.996094 45.960938 C 359.25 45.835938 359.496094 45.707031 359.730469 45.558594 C 359.761719 45.542969 360.035156 45.355469 360.003906 45.335938 C 359.9375 45.289062 359.691406 45.402344 359.65625 45.414062 C 359.394531 45.507812 359.140625 45.628906 358.886719 45.753906 C 358.628906 45.878906 358.382812 46.007812 358.148438 46.15625 C 358.121094 46.171875 357.84375 46.359375 357.875 46.382812 Z M 357.875 46.382812 " fill-opacity="1" fill-rule="nonzero"/></g></g></g><g clip-path="url(#9e786da6ff)"><g clip-path="url(#21f0d8611b)"><g clip-path="url(#c4be0c50ed)"><path fill="#ffffff" d="M 359.980469 44.574219 C 360.042969 44.621094 360.289062 44.507812 360.328125 44.496094 C 360.589844 44.402344 360.84375 44.28125 361.097656 44.15625 C 361.351562 44.03125 361.601562 43.902344 361.832031 43.753906 C 361.863281 43.738281 362.140625 43.550781 362.105469 43.527344 C 362.042969 43.484375 361.796875 43.597656 361.757812 43.609375 C 361.496094 43.699219 361.242188 43.824219 360.988281 43.949219 C 360.734375 44.074219 360.484375 44.203125 360.253906 44.351562 C 360.226562 44.363281 359.941406 44.550781 359.980469 44.574219 Z M 359.980469 44.574219 " fill-opacity="1" fill-rule="nonzero"/></g></g></g><g clip-path="url(#aa4f082fc4)"><g clip-path="url(#2aaf322989)"><g clip-path="url(#3d5ba0fb48)"><path fill="#ffffff" d="M 361.386719 42.160156 C 361.453125 42.207031 361.699219 42.09375 361.734375 42.082031 C 361.996094 41.988281 362.25 41.867188 362.503906 41.742188 C 362.761719 41.617188 363.007812 41.488281 363.242188 41.339844 C 363.269531 41.324219 363.546875 41.136719 363.515625 41.113281 C 363.449219 41.070312 363.203125 41.183594 363.167969 41.195312 C 362.90625 41.285156 362.652344 41.410156 362.394531 41.535156 C 362.140625 41.660156 361.894531 41.789062 361.660156 41.9375 C 361.628906 41.953125 361.355469 42.140625 361.386719 42.160156 Z M 361.386719 42.160156 " fill-opacity="1" fill-rule="nonzero"/></g></g></g><g clip-path="url(#03bfabfa3f)"><g clip-path="url(#c808b4db47)"><g clip-path="url(#37f9b76459)"><path fill="#ffffff" d="M 362.503906 42.636719 C 362.570312 42.679688 362.816406 42.566406 362.855469 42.554688 C 363.117188 42.464844 363.371094 42.339844 363.625 42.214844 C 363.878906 42.089844 364.125 41.960938 364.359375 41.8125 C 364.390625 41.796875 364.667969 41.609375 364.632812 41.589844 C 364.566406 41.542969 364.324219 41.65625 364.285156 41.667969 C 364.023438 41.761719 363.769531 41.882812 363.515625 42.007812 C 363.261719 42.132812 363.011719 42.261719 362.78125 42.410156 C 362.75 42.429688 362.472656 42.613281 362.503906 42.636719 Z M 362.503906 42.636719 " fill-opacity="1" fill-rule="nonzero"/></g></g></g><g clip-path="url(#13ea8a5e7b)"><g clip-path="url(#9df7e39f7a)"><g clip-path="url(#f3da1ff373)"><path fill="#ffffff" d="M 363.289062 43.921875 C 363.355469 43.964844 363.601562 43.855469 363.636719 43.839844 C 363.898438 43.75 364.152344 43.625 364.40625 43.5 C 364.664062 43.375 364.910156 43.246094 365.144531 43.097656 C 365.175781 43.082031 365.449219 42.894531 365.417969 42.875 C 365.351562 42.832031 365.105469 42.941406 365.070312 42.953125 C 364.808594 43.046875 364.554688 43.171875 364.300781 43.292969 C 364.042969 43.417969 363.796875 43.546875 363.5625 43.695312 C 363.539062 43.707031 363.257812 43.898438 363.289062 43.921875 Z M 363.289062 43.921875 " fill-opacity="1" fill-rule="nonzero"/></g></g></g><g clip-path="url(#38be88071c)"><g clip-path="url(#1c439be15a)"><g clip-path="url(#062d8be0cf)"><path fill="#ffffff" d="M 360.78125 45.933594 C 360.847656 45.976562 361.09375 45.863281 361.132812 45.851562 C 361.390625 45.761719 361.648438 45.636719 361.902344 45.511719 C 362.15625 45.386719 362.402344 45.257812 362.636719 45.109375 C 362.667969 45.09375 362.945312 44.90625 362.910156 44.886719 C 362.84375 44.839844 362.597656 44.953125 362.5625 44.964844 C 362.300781 45.054688 362.046875 45.179688 361.792969 45.304688 C 361.539062 45.429688 361.289062 45.558594 361.058594 45.707031 C 361.027344 45.722656 360.742188 45.90625 360.78125 45.933594 Z M 360.78125 45.933594 " fill-opacity="1" fill-rule="nonzero"/></g></g></g><g clip-path="url(#c006f74c06)"><g clip-path="url(#45cb6fd9b8)"><g clip-path="url(#4df49ec62f)"><path fill="#ffffff" d="M 366.628906 42.316406 C 366.695312 42.359375 366.941406 42.25 366.976562 42.234375 C 367.238281 42.144531 367.492188 42.019531 367.746094 41.894531 C 368 41.769531 368.25 41.640625 368.480469 41.492188 C 368.511719 41.476562 368.789062 41.289062 368.757812 41.269531 C 368.691406 41.226562 368.445312 41.335938 368.40625 41.347656 C 368.148438 41.441406 367.890625 41.566406 367.636719 41.6875 C 367.382812 41.8125 367.136719 41.941406 366.902344 42.089844 C 366.871094 42.109375 366.589844 42.289062 366.628906 42.316406 Z M 366.628906 42.316406 " fill-opacity="1" fill-rule="nonzero"/></g></g></g><g clip-path="url(#ae8a56548e)"><g clip-path="url(#b6f4bea7df)"><g clip-path="url(#54b43b1917)"><path fill="#ffffff" d="M 365.445312 41.523438 C 365.511719 41.570312 365.757812 41.457031 365.796875 41.445312 C 366.054688 41.351562 366.3125 41.226562 366.566406 41.105469 C 366.820312 40.980469 367.066406 40.851562 367.300781 40.703125 C 367.332031 40.683594 367.609375 40.5 367.574219 40.476562 C 367.507812 40.433594 367.261719 40.542969 367.226562 40.558594 C 366.964844 40.648438 366.710938 40.773438 366.457031 40.898438 C 366.203125 41.023438 365.953125 41.152344 365.722656 41.300781 C 365.691406 41.316406 365.40625 41.496094 365.445312 41.523438 Z M 365.445312 41.523438 " fill-opacity="1" fill-rule="nonzero"/></g></g></g><g clip-path="url(#c764591a32)"><g clip-path="url(#4e97808409)"><g clip-path="url(#1c01a67527)"><path fill="#ffffff" d="M 364.878906 40.117188 C 364.945312 40.160156 365.1875 40.050781 365.226562 40.035156 C 365.488281 39.945312 365.742188 39.820312 365.996094 39.695312 C 366.25 39.570312 366.5 39.441406 366.730469 39.292969 C 366.761719 39.277344 367.039062 39.089844 367.007812 39.070312 C 366.941406 39.023438 366.695312 39.136719 366.65625 39.148438 C 366.394531 39.242188 366.140625 39.363281 365.886719 39.488281 C 365.632812 39.613281 365.386719 39.742188 365.152344 39.890625 C 365.121094 39.910156 364.84375 40.09375 364.878906 40.117188 Z M 364.878906 40.117188 " fill-opacity="1" fill-rule="nonzero"/></g></g></g><g clip-path="url(#a1a3c30740)"><g clip-path="url(#61b9517ad5)"><g clip-path="url(#0981c11c5d)"><path fill="#ffffff" d="M 365.453125 43.859375 C 365.519531 43.902344 365.765625 43.792969 365.800781 43.777344 C 366.0625 43.6875 366.316406 43.5625 366.570312 43.4375 C 366.824219 43.3125 367.074219 43.183594 367.304688 43.035156 C 367.335938 43.019531 367.613281 42.832031 367.582031 42.8125 C 367.515625 42.765625 367.269531 42.878906 367.230469 42.890625 C 366.972656 42.984375 366.714844 43.105469 366.460938 43.230469 C 366.207031 43.355469 365.960938 43.484375 365.726562 43.632812 C 365.695312 43.652344 365.417969 43.835938 365.453125 43.859375 Z M 365.453125 43.859375 " fill-opacity="1" fill-rule="nonzero"/></g></g></g><g clip-path="url(#3bfb8d3f10)"><g clip-path="url(#919f81f759)"><g clip-path="url(#8231bc2d40)"><path fill="#ffffff" d="M 362.859375 46.296875 C 362.925781 46.339844 363.171875 46.230469 363.207031 46.214844 C 363.46875 46.125 363.722656 46 363.976562 45.875 C 364.230469 45.75 364.480469 45.621094 364.710938 45.472656 C 364.742188 45.457031 365.019531 45.269531 364.988281 45.25 C 364.921875 45.203125 364.675781 45.316406 364.636719 45.328125 C 364.378906 45.421875 364.125 45.546875 363.867188 45.667969 C 363.613281 45.792969 363.367188 45.921875 363.132812 46.070312 C 363.101562 46.089844 362.828125 46.273438 362.859375 46.296875 Z M 362.859375 46.296875 " fill-opacity="1" fill-rule="nonzero"/></g></g></g><g clip-path="url(#addd6b83a6)"><g clip-path="url(#452fbaae39)"><g clip-path="url(#a6dbcedba9)"><path fill="#ffffff" d="M 359.128906 41.953125 C 359.195312 41.996094 359.441406 41.886719 359.480469 41.871094 C 359.738281 41.78125 359.996094 41.65625 360.25 41.53125 C 360.503906 41.410156 360.75 41.28125 360.984375 41.132812 C 361.015625 41.113281 361.292969 40.929688 361.257812 40.90625 C 361.191406 40.863281 360.945312 40.972656 360.910156 40.984375 C 360.648438 41.078125 360.394531 41.203125 360.140625 41.328125 C 359.886719 41.449219 359.636719 41.578125 359.40625 41.726562 C 359.378906 41.738281 359.097656 41.929688 359.128906 41.953125 Z M 359.128906 41.953125 " fill-opacity="1" fill-rule="nonzero"/></g></g></g><g clip-path="url(#a9e239960c)"><g clip-path="url(#3705036682)"><g clip-path="url(#4a266982fd)"><path fill="#ffffff" d="M 362.070312 40.023438 C 362.132812 40.066406 362.378906 39.957031 362.417969 39.941406 C 362.679688 39.851562 362.933594 39.726562 363.1875 39.601562 C 363.441406 39.476562 363.691406 39.347656 363.921875 39.199219 C 363.953125 39.183594 364.230469 38.996094 364.195312 38.976562 C 364.132812 38.929688 363.886719 39.042969 363.847656 39.054688 C 363.585938 39.148438 363.332031 39.269531 363.078125 39.394531 C 362.824219 39.519531 362.574219 39.648438 362.34375 39.796875 C 362.316406 39.808594 362.035156 40 362.070312 40.023438 Z M 362.070312 40.023438 " fill-opacity="1" fill-rule="nonzero"/></g></g></g><g clip-path="url(#e3b87b9d37)"><g clip-path="url(#74d2730abe)"><g clip-path="url(#c344025c6e)"><path fill="#ffffff" d="M 365.71875 45.816406 C 365.785156 45.859375 366.03125 45.75 366.070312 45.734375 C 366.328125 45.644531 366.585938 45.519531 366.839844 45.394531 C 367.09375 45.269531 367.339844 45.140625 367.574219 44.992188 C 367.605469 44.976562 367.882812 44.789062 367.847656 44.769531 C 367.78125 44.726562 367.535156 44.835938 367.5 44.847656 C 367.238281 44.941406 366.984375 45.066406 366.730469 45.1875 C 366.476562 45.3125 366.226562 45.441406 365.996094 45.589844 C 365.964844 45.609375 365.6875 45.792969 365.71875 45.816406 Z M 365.71875 45.816406 " fill-opacity="1" fill-rule="nonzero"/></g></g></g><g clip-path="url(#b58b7ad05e)"><g clip-path="url(#902b9f56c1)"><g clip-path="url(#3dbaa3eb9c)"><path fill="#ffffff" d="M 359.324219 47.695312 C 359.390625 47.738281 359.636719 47.628906 359.675781 47.613281 C 359.933594 47.523438 360.191406 47.398438 360.445312 47.273438 C 360.699219 47.148438 360.945312 47.023438 361.179688 46.871094 C 361.210938 46.855469 361.488281 46.667969 361.453125 46.648438 C 361.386719 46.605469 361.140625 46.714844 361.105469 46.726562 C 360.84375 46.820312 360.589844 46.945312 360.335938 47.070312 C 360.082031 47.191406 359.832031 47.320312 359.601562 47.46875 C 359.570312 47.488281 359.292969 47.671875 359.324219 47.695312 Z M 359.324219 47.695312 " fill-opacity="1" fill-rule="nonzero"/></g></g></g><g clip-path="url(#7230fd13fa)"><g clip-path="url(#148fe14314)"><g clip-path="url(#83f73ec9da)"><path fill="#ffffff" d="M 368.058594 43.757812 C 368.125 43.804688 368.371094 43.691406 368.40625 43.679688 C 368.667969 43.585938 368.921875 43.460938 369.175781 43.339844 C 369.429688 43.214844 369.679688 43.085938 369.910156 42.9375 C 369.941406 42.917969 370.21875 42.734375 370.1875 42.710938 C 370.121094 42.667969 369.875 42.777344 369.835938 42.792969 C 369.578125 42.882812 369.324219 43.007812 369.066406 43.132812 C 368.8125 43.257812 368.566406 43.386719 368.332031 43.535156 C 368.304688 43.542969 368.019531 43.734375 368.058594 43.757812 Z M 368.058594 43.757812 " fill-opacity="1" fill-rule="nonzero"/></g></g></g><g clip-path="url(#d012d1908c)"><g clip-path="url(#26dc6e8156)"><g clip-path="url(#18d29900c6)"><path fill="#ffffff" d="M 368.648438 40.113281 C 368.714844 40.15625 368.957031 40.042969 368.996094 40.03125 C 369.257812 39.941406 369.511719 39.816406 369.765625 39.691406 C 370.019531 39.566406 370.269531 39.4375 370.5 39.289062 C 370.53125 39.273438 370.808594 39.085938 370.773438 39.0625 C 370.710938 39.019531 370.464844 39.132812 370.425781 39.144531 C 370.164062 39.234375 369.910156 39.359375 369.65625 39.484375 C 369.402344 39.609375 369.15625 39.738281 368.921875 39.886719 C 368.894531 39.898438 368.613281 40.089844 368.648438 40.113281 Z M 368.648438 40.113281 " fill-opacity="1" fill-rule="nonzero"/></g></g></g><g clip-path="url(#b224ffca10)"><g clip-path="url(#28e43e27f7)"><g clip-path="url(#22ef3c08c9)"><path fill="#ffffff" d="M 369.609375 41.03125 C 369.675781 41.074219 369.921875 40.964844 369.957031 40.953125 C 370.21875 40.859375 370.472656 40.734375 370.726562 40.609375 C 370.984375 40.488281 371.230469 40.359375 371.464844 40.210938 C 371.492188 40.191406 371.769531 40.007812 371.738281 39.984375 C 371.671875 39.941406 371.425781 40.050781 371.390625 40.066406 C 371.128906 40.15625 370.875 40.28125 370.617188 40.40625 C 370.363281 40.53125 370.117188 40.65625 369.882812 40.808594 C 369.859375 40.816406 369.578125 41.011719 369.609375 41.03125 Z M 369.609375 41.03125 " fill-opacity="1" fill-rule="nonzero"/></g></g></g><path stroke-linecap="butt" transform="matrix(0.588726, 0, 0, 0.588726, 353.112556, -13.668171)" fill="none" stroke-linejoin="miter" d="M 20.503649 91.000555 L 33.402257 29.977665 L 49.717935 29.977665 L 39.659144 77.683937 L 59.571038 77.683937 L 56.731221 91.000555 Z M 78.673452 78.851712 C 80.06682 78.851712 81.393838 78.042231 82.661139 76.41 C 83.928441 74.784404 84.936974 72.608095 85.686739 69.881075 C 86.436503 67.154054 86.814703 64.480114 86.814703 61.86589 C 86.814703 60.061147 86.53603 58.601428 85.978682 57.506639 C 85.421335 56.405214 84.558774 55.854502 83.390999 55.854502 C 81.274406 55.854502 79.363501 57.619435 77.651649 61.136031 C 75.939797 64.659262 75.08387 68.573963 75.08387 72.886769 C 75.08387 76.867821 76.284821 78.851712 78.673452 78.851712 Z M 96.037474 91.000555 L 83.138865 91.000555 L 83.556876 85.864998 L 83.225121 85.864998 C 81.665876 88.034672 79.980564 89.574012 78.175821 90.476383 C 76.364442 91.38539 74.320835 91.836576 72.038366 91.836576 C 67.639303 91.836576 64.301855 90.283966 62.019385 87.178745 C 59.736915 84.08016 58.59568 79.621382 58.59568 73.802411 C 58.59568 68.826096 59.617484 63.74362 61.64782 58.568252 C 63.678157 53.392885 66.245935 49.484819 69.344521 46.844055 C 72.449741 44.196655 75.880081 42.876273 79.63554 42.876273 C 81.97109 42.876273 84.034602 43.400445 85.812805 44.442153 C 87.591008 45.483862 89.176794 47.189079 90.570162 49.55117 L 90.901917 49.55117 L 93.118035 43.712294 L 106.056454 43.712294 Z M 101.325637 43.712294 L 117.561694 43.712294 L 119.359803 67.167325 L 119.439424 69.755008 L 119.439424 73.384401 L 119.777813 73.384401 C 120.806251 69.715198 121.502935 67.412823 121.86123 66.477276 C 122.22616 65.548363 125.550338 57.957824 131.8404 43.712294 L 149.204422 43.712294 L 121.237532 96.965498 C 118.563592 102.114325 115.465007 105.829974 111.928506 108.112443 C 108.392005 110.394913 104.065928 111.536148 98.950276 111.536148 C 96.389133 111.536148 94.246 111.297285 92.520878 110.826194 L 92.520878 98.013842 C 93.801449 98.345596 95.314249 98.511473 97.072547 98.511473 C 99.487718 98.511473 101.471609 98.007207 103.017585 96.992038 C 104.56356 95.97687 105.930387 94.377814 107.131338 92.208141 L 108.086791 90.496289 Z M 158.918188 78.851712 C 160.304921 78.851712 161.638574 78.042231 162.89924 76.41 C 164.166542 74.784404 165.175075 72.608095 165.92484 69.881075 C 166.681239 67.154054 167.052804 64.480114 167.052804 61.86589 C 167.052804 60.061147 166.774131 58.601428 166.216783 57.506639 C 165.666071 56.405214 164.80351 55.854502 163.6291 55.854502 C 161.519142 55.854502 159.601602 57.619435 157.88975 61.136031 C 156.184533 64.659262 155.328606 68.573963 155.328606 72.886769 C 155.328606 76.867821 156.522922 78.851712 158.918188 78.851712 Z M 176.275574 91.000555 L 163.383601 91.000555 L 163.801612 85.864998 L 163.463222 85.864998 C 161.903977 88.034672 160.2253 89.574012 158.413922 90.476383 C 156.609178 91.38539 154.558936 91.836576 152.276467 91.836576 C 147.884039 91.836576 144.546591 90.283966 142.264121 87.178745 C 139.981651 84.08016 138.840416 79.621382 138.840416 73.802411 C 138.840416 68.826096 139.855585 63.74362 141.885921 58.568252 C 143.916258 53.392885 146.484036 49.484819 149.589257 46.844055 C 152.687842 44.196655 156.118182 42.876273 159.873641 42.876273 C 162.215826 42.876273 164.272703 43.400445 166.050906 44.442153 C 167.835744 45.483862 169.42153 47.189079 170.808263 49.55117 L 171.146653 49.55117 L 173.356136 43.712294 L 186.294555 43.712294 Z M 210.950536 59.278207 C 210.950536 58.083891 210.645322 57.188154 210.034895 56.584362 C 209.424467 55.987204 208.681337 55.688625 207.818776 55.688625 C 206.23299 55.688625 204.766636 56.677253 203.419713 58.654509 C 202.066156 60.625129 200.964731 63.71708 200.10217 67.917089 L 195.258557 91.000555 L 179.108756 91.000555 L 189.081291 43.712294 L 201.9799 43.712294 L 201.475633 50.30757 L 201.814022 50.30757 C 203.340092 47.66017 205.144836 45.762535 207.214983 44.60803 C 209.291765 43.453525 211.826368 42.876273 214.832062 42.876273 C 218.760033 42.876273 221.818808 44.063953 224.015022 46.445949 C 226.211235 48.82131 227.31266 52.112313 227.31266 56.312323 C 227.31266 59.264937 226.967635 62.449778 226.270951 65.873483 L 220.969517 91.000555 L 204.813081 91.000555 L 210.200772 65.203339 C 210.698403 63.033666 210.950536 61.063045 210.950536 59.278207 Z M 245.831186 78.851712 C 247.224554 78.851712 248.551572 78.042231 249.818873 76.41 C 251.086175 74.784404 252.094708 72.608095 252.844473 69.881075 C 253.594237 67.154054 253.972437 64.480114 253.972437 61.86589 C 253.972437 60.061147 253.693764 58.601428 253.136416 57.506639 C 252.579069 56.405214 251.716508 55.854502 250.548733 55.854502 C 248.43214 55.854502 246.521235 57.619435 244.809383 61.136031 C 243.097531 64.659262 242.241604 68.573963 242.241604 72.886769 C 242.241604 76.867821 243.442555 78.851712 245.831186 78.851712 Z M 263.195208 91.000555 L 250.296599 91.000555 L 250.71461 85.864998 L 250.382856 85.864998 C 248.82361 88.034672 247.138298 89.574012 245.333555 90.476383 C 243.522176 91.38539 241.478569 91.836576 239.1961 91.836576 C 234.803672 91.836576 231.459589 90.283966 229.177119 87.178745 C 226.901284 84.08016 225.76005 79.621382 225.76005 73.802411 C 225.76005 68.826096 226.775218 63.74362 228.805554 58.568252 C 230.835891 53.392885 233.403669 49.484819 236.502255 46.844055 C 239.607475 44.196655 243.037815 42.876273 246.793274 42.876273 C 249.128824 42.876273 251.192336 43.400445 252.970539 44.442153 C 254.748742 45.483862 256.334528 47.189079 257.727896 49.55117 L 258.059651 49.55117 L 260.275769 43.712294 L 273.214188 43.712294 Z M 297.87017 59.278207 C 297.87017 58.083891 297.564956 57.188154 296.954528 56.584362 C 296.337465 55.987204 295.60097 55.688625 294.738409 55.688625 C 293.152623 55.688625 291.686269 56.677253 290.332711 58.654509 C 288.985789 60.625129 287.877729 63.71708 287.015168 67.917089 L 282.17819 91.000555 L 266.021754 91.000555 L 276.000924 43.712294 L 288.892898 43.712294 L 288.395266 50.30757 L 288.72702 50.30757 C 290.259725 47.66017 292.057834 45.762535 294.134616 44.60803 C 296.204763 43.453525 298.746001 42.876273 301.751695 42.876273 C 305.673031 42.876273 308.738441 44.063953 310.934655 46.445949 C 313.130868 48.82131 314.232293 52.112313 314.232293 56.312323 C 314.232293 59.264937 313.880633 62.449778 313.190584 65.873483 L 307.88915 91.000555 L 291.732715 91.000555 L 297.120405 65.203339 C 297.618036 63.033666 297.87017 61.063045 297.87017 59.278207 Z M 363.086435 72.256436 C 363.086435 78.433701 361.042828 83.244139 356.94898 86.681114 C 352.861766 90.118089 347.155592 91.836576 339.837092 91.836576 C 336.778317 91.836576 333.885419 91.491552 331.158398 90.814773 C 328.431378 90.131359 326.082557 89.136096 324.105302 87.828984 L 324.105302 73.218523 C 326.440852 74.691513 329.121427 75.932274 332.140391 76.934172 C 335.159356 77.93607 337.893011 78.433701 340.341358 78.433701 C 342.398235 78.433701 343.95748 78.002421 345.012459 77.13986 C 346.074073 76.277298 346.598245 75.056442 346.598245 73.470657 C 346.598245 72.720892 346.432368 72.017573 346.100613 71.360699 C 345.768859 70.710461 345.291133 70.053587 344.680705 69.403349 C 344.070277 68.746475 342.424775 67.306661 339.757471 65.077272 C 336.499643 62.463048 334.137552 59.795743 332.657928 57.068723 C 331.184939 54.341702 330.448444 51.349278 330.448444 48.091451 C 330.448444 44.448788 331.357451 41.171056 333.1821 38.264888 C 335.006749 35.35872 337.581162 33.10279 340.905341 31.503735 C 344.229519 29.904679 347.951802 29.101833 352.065556 29.101833 C 358.720548 29.101833 364.698761 30.588093 370.013465 33.567247 L 364.380277 45.961588 C 359.62292 43.513241 355.575517 42.292385 352.238068 42.292385 C 350.45323 42.292385 349.086402 42.683855 348.124315 43.46016 C 347.162227 44.236466 346.684501 45.3777 346.684501 46.883865 C 346.684501 48.244058 347.148957 49.517994 348.084504 50.69904 C 349.013416 51.88672 350.791619 53.465871 353.405843 55.436492 C 356.690211 57.858298 359.125288 60.406171 360.711074 63.080111 C 362.296859 65.747416 363.086435 68.806191 363.086435 72.256436 Z M 384.610655 91.000555 L 384.610655 47.215619 L 384.278901 47.215619 C 382.414442 58.820386 381.220126 65.939834 380.689319 68.587233 L 375.971773 91.000555 L 361.447568 91.000555 L 374.346176 29.977665 L 395.963288 29.977665 L 395.963288 73.30478 L 396.301678 73.30478 L 416.253383 29.977665 L 438.208884 29.977665 L 425.144399 91.000555 L 410.494128 91.000555 L 415.377551 68.082966 C 416.764284 61.739824 418.270449 55.675355 419.882775 49.889559 L 420.506473 47.215619 L 420.174719 47.215619 L 400.057137 91.000555 Z M 453.25726 91.000555 L 453.25726 47.215619 L 452.925506 47.215619 C 451.061046 58.820386 449.866731 65.939834 449.335924 68.587233 L 444.618377 91.000555 L 430.094173 91.000555 L 442.992781 29.977665 L 464.609893 29.977665 L 464.609893 73.30478 L 464.948282 73.30478 L 484.893352 29.977665 L 506.848854 29.977665 L 493.784368 91.000555 L 479.134097 91.000555 L 484.017521 68.082966 C 485.410889 61.739824 486.910419 55.675355 488.52938 49.889559 L 489.153078 47.215619 L 488.821324 47.215619 L 468.703741 91.000555 Z M 510.836541 74.930376 C 510.836541 70.504773 512.050762 66.828935 514.485838 63.889592 C 516.920915 60.956884 520.696279 58.654509 525.818566 56.982467 C 524.790128 55.701895 523.947472 54.056394 523.290598 52.039327 C 522.64036 50.022261 522.31524 48.190977 522.31524 46.545476 C 522.31524 41.064894 524.066903 36.771993 527.570229 33.673408 C 531.08019 30.568187 536.016694 29.015577 542.386377 29.015577 C 547.648001 29.015577 551.854645 30.243068 555.012947 32.691415 C 558.171248 35.139762 559.750398 38.42413 559.750398 42.544519 C 559.750398 46.160641 558.642339 49.398563 556.41295 52.26492 C 554.190196 55.131278 550.540898 57.871568 545.478327 60.492428 L 550.859382 68.255479 C 551.86128 67.253581 552.916259 65.66116 554.011048 63.471581 C 555.112473 61.288638 555.994939 59.039344 556.665083 56.730333 L 572.649006 56.730333 C 571.368435 61.215652 569.583596 65.462107 567.287857 69.48297 C 564.992117 73.503832 562.351352 77.033698 559.378833 80.065933 L 567.347572 91.000555 L 548.902032 91.000555 L 547.103923 88.452682 C 542.791117 90.708611 537.934234 91.836576 532.539909 91.836576 C 525.752215 91.836576 520.437511 90.350317 516.595796 87.391068 C 512.754081 84.425184 510.836541 80.27162 510.836541 74.930376 Z M 541.596802 40.036456 C 540.229974 40.036456 539.128549 40.520817 538.279258 41.47627 C 537.429967 42.438357 537.005322 43.752104 537.005322 45.424146 C 537.005322 47.534104 537.715276 49.5379 539.135185 51.428899 C 541.138981 50.566338 542.618605 49.464914 543.580693 48.111356 C 544.536145 46.764434 545.020506 45.271539 545.020506 43.626038 C 545.020506 42.65068 544.715292 41.814659 544.098229 41.104705 C 543.487801 40.394751 542.65178 40.036456 541.596802 40.036456 Z M 534.331382 79.024224 C 536.474515 79.024224 538.39869 78.659294 540.090637 77.93607 L 532.035642 66.291493 C 528.78445 67.737942 527.152218 70.073492 527.152218 73.30478 C 527.152218 75.029902 527.815727 76.41 529.136109 77.458344 C 530.456491 78.500052 532.188249 79.024224 534.331382 79.024224 Z M 629.432077 48.257328 C 629.432077 55.270614 627.050081 60.777736 622.279453 64.765423 C 617.502191 68.759745 610.973266 70.756906 602.679408 70.756906 L 599.089826 70.756906 L 594.916357 91.000555 L 578.600679 91.000555 L 591.492652 29.977665 L 607.0652 29.977665 C 614.270904 29.977665 619.797931 31.556815 623.652916 34.715116 C 627.507902 37.873418 629.432077 42.391912 629.432077 48.257328 Z M 602.009264 57.400477 L 604.643394 57.400477 C 607.171361 57.400477 609.221603 56.584362 610.780849 54.958765 C 612.333459 53.333169 613.116399 51.263022 613.116399 48.761595 C 613.116399 47.116093 612.612132 45.795711 611.610234 44.793813 C 610.608336 43.791915 609.234873 43.294283 607.483211 43.294283 L 605.014958 43.294283 Z M 673.621753 48.257328 C 673.621753 55.270614 671.239757 60.777736 666.462494 64.765423 C 661.691867 68.759745 655.162942 70.756906 646.869084 70.756906 L 643.279502 70.756906 L 639.106033 91.000555 L 622.78372 91.000555 L 635.682328 29.977665 L 651.254876 29.977665 C 658.46058 29.977665 663.987607 31.556815 667.842592 34.715116 C 671.697578 37.873418 673.621753 42.391912 673.621753 48.257328 Z M 646.19894 57.400477 L 648.83307 57.400477 C 651.361038 57.400477 653.411279 56.584362 654.963889 54.958765 C 656.523135 53.333169 657.306075 51.263022 657.306075 48.761595 C 657.306075 47.116093 656.801808 45.795711 655.79991 44.793813 C 654.798012 43.791915 653.424549 43.294283 651.666251 43.294283 L 649.204634 43.294283 Z M 703.035091 29.015577 C 710.27397 29.015577 715.900524 31.085724 719.921386 35.219383 C 723.942249 39.346407 725.95268 45.118932 725.95268 52.517054 C 725.95268 59.92181 724.565947 66.689598 721.799116 72.820418 C 719.032285 78.957873 715.210475 83.66215 710.340321 86.933247 C 705.470168 90.19771 699.823709 91.836576 693.39431 91.836576 C 685.909933 91.836576 680.130773 89.759794 676.056829 85.612865 C 671.976251 81.472571 669.93928 75.706681 669.93928 68.3351 C 669.93928 60.963519 671.372458 54.189095 674.238816 48.01183 C 677.105173 41.834564 681.006604 37.123653 685.943108 33.879096 C 690.886248 30.641173 696.579152 29.015577 703.035091 29.015577 Z M 709.46449 52.682931 C 709.46449 49.511359 708.794346 47.029837 707.460694 45.231729 C 706.127041 43.440255 704.189596 42.544519 701.661628 42.544519 C 698.908067 42.544519 696.373464 43.712294 694.064454 46.047844 C 691.755444 48.383395 689.91089 51.601412 688.530792 55.688625 C 687.157329 59.782473 686.46728 63.969213 686.46728 68.255479 C 686.46728 74.983456 689.247381 78.35408 694.814219 78.35408 C 697.461618 78.35408 699.9166 77.199575 702.179165 74.890565 C 704.448365 72.581555 706.233203 69.463064 707.527045 65.541728 C 708.820887 61.613757 709.46449 57.334126 709.46449 52.682931 Z M 733.788717 29.977665 L 754.111987 29.977665 C 760.149916 29.977665 764.728125 31.125535 767.846616 33.421275 C 770.958472 35.717015 772.517717 39.008017 772.517717 43.294283 C 772.517717 51.309468 768.384058 56.551186 760.123375 59.026073 L 760.123375 59.364463 C 762.571722 60.167308 764.522438 61.580582 765.968886 63.597648 C 767.415335 65.614714 768.13856 68.082966 768.13856 71.00904 C 768.13856 77.378723 766.015332 82.301957 761.768877 85.785377 C 757.529056 89.262163 751.511033 91.000555 743.721441 91.000555 L 720.890109 91.000555 Z M 745.14135 53.392885 L 748.147044 53.392885 C 750.595391 53.392885 752.439945 52.862078 753.693976 51.807099 C 754.948008 50.752121 755.571706 49.053538 755.571706 46.717988 C 755.571706 43.878171 753.806773 42.458262 750.270272 42.458262 L 747.642778 42.458262 Z M 742.673098 65.455472 L 739.919537 78.267824 L 743.343242 78.267824 C 745.738508 78.267824 747.735669 77.59768 749.334725 76.244123 C 750.93378 74.8972 751.736626 73.205253 751.736626 71.174917 C 751.736626 69.257377 751.27217 67.824198 750.356528 66.875381 C 749.440886 65.926563 747.821925 65.455472 745.512915 65.455472 Z M 742.673098 65.455472 " stroke="#ffffff" stroke-width="3.205826" stroke-opacity="1" stroke-miterlimit="4"/><g fill="#e24927" fill-opacity="1"><g transform="translate(379.422622, 67.950109)"><g><path d="M 2.390625 -1.03125 C 2.390625 -0.894531 2.363281 -0.769531 2.3125 -0.65625 C 2.269531 -0.550781 2.207031 -0.46875 2.125 -0.40625 C 2.050781 -0.34375 1.96875 -0.3125 1.875 -0.3125 C 1.800781 -0.3125 1.734375 -0.328125 1.671875 -0.359375 C 1.617188 -0.390625 1.570312 -0.429688 1.53125 -0.484375 L 1.515625 -0.484375 C 1.421875 -0.367188 1.304688 -0.3125 1.171875 -0.3125 C 1.003906 -0.3125 0.875 -0.359375 0.78125 -0.453125 C 0.695312 -0.554688 0.65625 -0.695312 0.65625 -0.875 C 0.65625 -1 0.679688 -1.109375 0.734375 -1.203125 C 0.785156 -1.304688 0.863281 -1.382812 0.96875 -1.4375 C 1.082031 -1.488281 1.207031 -1.515625 1.34375 -1.515625 C 1.414062 -1.515625 1.492188 -1.503906 1.578125 -1.484375 C 1.671875 -1.472656 1.753906 -1.457031 1.828125 -1.4375 L 1.796875 -0.859375 L 1.796875 -0.734375 C 1.796875 -0.648438 1.816406 -0.609375 1.859375 -0.609375 C 1.910156 -0.609375 1.953125 -0.644531 1.984375 -0.71875 C 2.015625 -0.800781 2.03125 -0.90625 2.03125 -1.03125 C 2.03125 -1.25 1.96875 -1.414062 1.84375 -1.53125 C 1.71875 -1.644531 1.546875 -1.703125 1.328125 -1.703125 C 1.148438 -1.703125 1 -1.664062 0.875 -1.59375 C 0.75 -1.53125 0.648438 -1.429688 0.578125 -1.296875 C 0.515625 -1.160156 0.484375 -1.003906 0.484375 -0.828125 C 0.484375 -0.597656 0.546875 -0.414062 0.671875 -0.28125 C 0.804688 -0.15625 0.988281 -0.09375 1.21875 -0.09375 C 1.320312 -0.09375 1.4375 -0.101562 1.5625 -0.125 C 1.6875 -0.15625 1.804688 -0.191406 1.921875 -0.234375 L 1.921875 0.078125 C 1.710938 0.160156 1.484375 0.203125 1.234375 0.203125 C 0.890625 0.203125 0.613281 0.113281 0.40625 -0.0625 C 0.207031 -0.25 0.109375 -0.503906 0.109375 -0.828125 C 0.109375 -1.054688 0.160156 -1.257812 0.265625 -1.4375 C 0.367188 -1.625 0.507812 -1.765625 0.6875 -1.859375 C 0.875 -1.960938 1.082031 -2.015625 1.3125 -2.015625 C 1.53125 -2.015625 1.71875 -1.972656 1.875 -1.890625 C 2.039062 -1.804688 2.164062 -1.691406 2.25 -1.546875 C 2.34375 -1.398438 2.390625 -1.226562 2.390625 -1.03125 Z M 1.03125 -0.875 C 1.03125 -0.78125 1.046875 -0.710938 1.078125 -0.671875 C 1.109375 -0.628906 1.15625 -0.609375 1.21875 -0.609375 C 1.28125 -0.609375 1.328125 -0.632812 1.359375 -0.6875 C 1.398438 -0.75 1.425781 -0.851562 1.4375 -1 L 1.4375 -1.203125 C 1.40625 -1.210938 1.375 -1.21875 1.34375 -1.21875 C 1.25 -1.21875 1.171875 -1.1875 1.109375 -1.125 C 1.054688 -1.0625 1.03125 -0.976562 1.03125 -0.875 Z M 1.03125 -0.875 "/></g></g><g transform="translate(381.914212, 67.950109)"><g><path d="M 1.109375 -1.5625 C 1.160156 -1.5625 1.207031 -1.5625 1.25 -1.5625 L 1.28125 -1.546875 L 1.21875 -1.046875 C 1.175781 -1.054688 1.117188 -1.0625 1.046875 -1.0625 C 0.929688 -1.0625 0.847656 -1.035156 0.796875 -0.984375 C 0.742188 -0.929688 0.71875 -0.851562 0.71875 -0.75 L 0.71875 0 L 0.1875 0 L 0.1875 -1.53125 L 0.578125 -1.53125 L 0.65625 -1.296875 L 0.6875 -1.296875 C 0.726562 -1.378906 0.785156 -1.441406 0.859375 -1.484375 C 0.941406 -1.535156 1.023438 -1.5625 1.109375 -1.5625 Z M 1.109375 -1.5625 "/></g></g><g transform="translate(383.217652, 67.950109)"><g><path d="M 0.921875 0.03125 C 0.671875 0.03125 0.472656 -0.0351562 0.328125 -0.171875 C 0.179688 -0.304688 0.109375 -0.503906 0.109375 -0.765625 C 0.109375 -1.023438 0.175781 -1.222656 0.3125 -1.359375 C 0.445312 -1.492188 0.632812 -1.5625 0.875 -1.5625 C 1.101562 -1.5625 1.28125 -1.5 1.40625 -1.375 C 1.539062 -1.257812 1.609375 -1.085938 1.609375 -0.859375 L 1.609375 -0.625 L 0.65625 -0.625 C 0.65625 -0.539062 0.6875 -0.472656 0.75 -0.421875 C 0.8125 -0.367188 0.890625 -0.34375 0.984375 -0.34375 C 1.078125 -0.34375 1.160156 -0.351562 1.234375 -0.375 C 1.316406 -0.394531 1.40625 -0.425781 1.5 -0.46875 L 1.5 -0.078125 C 1.414062 -0.0351562 1.328125 -0.0078125 1.234375 0 C 1.148438 0.0195312 1.046875 0.03125 0.921875 0.03125 Z M 0.890625 -1.203125 C 0.828125 -1.203125 0.773438 -1.179688 0.734375 -1.140625 C 0.691406 -1.109375 0.671875 -1.046875 0.671875 -0.953125 L 1.125 -0.953125 C 1.125 -1.035156 1.101562 -1.097656 1.0625 -1.140625 C 1.019531 -1.179688 0.960938 -1.203125 0.890625 -1.203125 Z M 0.890625 -1.203125 "/></g></g><g transform="translate(384.934774, 67.950109)"><g><path d="M 1.1875 0 L 1.078125 -0.203125 C 1.003906 -0.117188 0.929688 -0.0546875 0.859375 -0.015625 C 0.785156 0.015625 0.6875 0.03125 0.5625 0.03125 C 0.414062 0.03125 0.300781 -0.0078125 0.21875 -0.09375 C 0.132812 -0.1875 0.09375 -0.3125 0.09375 -0.46875 C 0.09375 -0.632812 0.148438 -0.753906 0.265625 -0.828125 C 0.378906 -0.910156 0.546875 -0.957031 0.765625 -0.96875 L 1.03125 -0.984375 L 1.03125 -1 C 1.03125 -1.125 0.96875 -1.1875 0.84375 -1.1875 C 0.726562 -1.1875 0.582031 -1.148438 0.40625 -1.078125 L 0.25 -1.421875 C 0.4375 -1.515625 0.664062 -1.5625 0.9375 -1.5625 C 1.132812 -1.5625 1.285156 -1.507812 1.390625 -1.40625 C 1.503906 -1.3125 1.5625 -1.179688 1.5625 -1.015625 L 1.5625 0 Z M 0.796875 -0.34375 C 0.859375 -0.34375 0.910156 -0.363281 0.953125 -0.40625 C 1.003906 -0.445312 1.03125 -0.5 1.03125 -0.5625 L 1.03125 -0.6875 L 0.90625 -0.6875 C 0.726562 -0.675781 0.640625 -0.609375 0.640625 -0.484375 C 0.640625 -0.390625 0.691406 -0.34375 0.796875 -0.34375 Z M 0.796875 -0.34375 "/></g></g><g transform="translate(386.665459, 67.950109)"><g><path d="M 0.71875 0 L 0.1875 0 L 0.1875 -2.109375 L 0.71875 -2.109375 Z M 0.71875 0 "/></g></g><g transform="translate(387.563354, 67.950109)"><g><path d="M 0.71875 0 L 0.1875 0 L 0.1875 -2.109375 L 0.71875 -2.109375 Z M 0.71875 0 "/></g></g><g transform="translate(388.461249, 67.950109)"><g><path d="M 0 -1.53125 L 0.5625 -1.53125 L 0.8125 -0.65625 C 0.832031 -0.613281 0.84375 -0.554688 0.84375 -0.484375 L 0.859375 -0.484375 C 0.859375 -0.546875 0.867188 -0.601562 0.890625 -0.65625 L 1.15625 -1.53125 L 1.703125 -1.53125 L 1.09375 0.09375 C 1.007812 0.300781 0.910156 0.445312 0.796875 0.53125 C 0.679688 0.625 0.535156 0.671875 0.359375 0.671875 C 0.285156 0.671875 0.210938 0.660156 0.140625 0.640625 L 0.140625 0.234375 C 0.179688 0.242188 0.234375 0.25 0.296875 0.25 C 0.347656 0.25 0.390625 0.238281 0.421875 0.21875 C 0.460938 0.195312 0.492188 0.171875 0.515625 0.140625 C 0.546875 0.109375 0.578125 0.0546875 0.609375 -0.015625 Z M 0 -1.53125 "/></g></g><g transform="translate(390.155314, 67.950109)"><g><path d="M 1.640625 -1.53125 L 1.640625 -1.28125 L 1.421875 -1.203125 C 1.453125 -1.148438 1.46875 -1.085938 1.46875 -1.015625 C 1.46875 -0.847656 1.410156 -0.71875 1.296875 -0.625 C 1.179688 -0.539062 1.003906 -0.5 0.765625 -0.5 C 0.710938 -0.5 0.671875 -0.503906 0.640625 -0.515625 C 0.628906 -0.484375 0.625 -0.457031 0.625 -0.4375 C 0.625 -0.414062 0.644531 -0.394531 0.6875 -0.375 C 0.726562 -0.363281 0.78125 -0.359375 0.84375 -0.359375 L 1.109375 -0.359375 C 1.453125 -0.359375 1.625 -0.210938 1.625 0.078125 C 1.625 0.265625 1.539062 0.410156 1.375 0.515625 C 1.21875 0.617188 0.992188 0.671875 0.703125 0.671875 C 0.484375 0.671875 0.316406 0.632812 0.203125 0.5625 C 0.0859375 0.488281 0.03125 0.382812 0.03125 0.25 C 0.03125 0.0625 0.144531 -0.0546875 0.375 -0.109375 C 0.320312 -0.128906 0.273438 -0.160156 0.234375 -0.203125 C 0.203125 -0.253906 0.1875 -0.300781 0.1875 -0.34375 C 0.1875 -0.382812 0.195312 -0.421875 0.21875 -0.453125 C 0.25 -0.492188 0.304688 -0.539062 0.390625 -0.59375 C 0.316406 -0.632812 0.253906 -0.691406 0.203125 -0.765625 C 0.160156 -0.835938 0.140625 -0.925781 0.140625 -1.03125 C 0.140625 -1.195312 0.195312 -1.328125 0.3125 -1.421875 C 0.425781 -1.515625 0.585938 -1.5625 0.796875 -1.5625 C 0.828125 -1.5625 0.875 -1.554688 0.9375 -1.546875 C 1.007812 -1.546875 1.0625 -1.539062 1.09375 -1.53125 Z M 0.46875 0.1875 C 0.46875 0.226562 0.488281 0.265625 0.53125 0.296875 C 0.582031 0.328125 0.648438 0.34375 0.734375 0.34375 C 0.859375 0.34375 0.957031 0.320312 1.03125 0.28125 C 1.113281 0.25 1.15625 0.210938 1.15625 0.171875 C 1.15625 0.128906 1.128906 0.0976562 1.078125 0.078125 C 1.035156 0.0546875 0.972656 0.046875 0.890625 0.046875 L 0.671875 0.046875 C 0.617188 0.046875 0.570312 0.0625 0.53125 0.09375 C 0.488281 0.125 0.46875 0.15625 0.46875 0.1875 Z M 0.640625 -1.03125 C 0.640625 -0.875 0.695312 -0.796875 0.8125 -0.796875 C 0.851562 -0.796875 0.890625 -0.816406 0.921875 -0.859375 C 0.953125 -0.898438 0.96875 -0.957031 0.96875 -1.03125 C 0.96875 -1.1875 0.914062 -1.265625 0.8125 -1.265625 C 0.695312 -1.265625 0.640625 -1.1875 0.640625 -1.03125 Z M 0.640625 -1.03125 "/></g></g><g transform="translate(391.838528, 67.950109)"><g><path d="M 1.109375 -1.5625 C 1.160156 -1.5625 1.207031 -1.5625 1.25 -1.5625 L 1.28125 -1.546875 L 1.21875 -1.046875 C 1.175781 -1.054688 1.117188 -1.0625 1.046875 -1.0625 C 0.929688 -1.0625 0.847656 -1.035156 0.796875 -0.984375 C 0.742188 -0.929688 0.71875 -0.851562 0.71875 -0.75 L 0.71875 0 L 0.1875 0 L 0.1875 -1.53125 L 0.578125 -1.53125 L 0.65625 -1.296875 L 0.6875 -1.296875 C 0.726562 -1.378906 0.785156 -1.441406 0.859375 -1.484375 C 0.941406 -1.535156 1.023438 -1.5625 1.109375 -1.5625 Z M 1.109375 -1.5625 "/></g></g><g transform="translate(393.141967, 67.950109)"><g><path d="M 0.921875 0.03125 C 0.671875 0.03125 0.472656 -0.0351562 0.328125 -0.171875 C 0.179688 -0.304688 0.109375 -0.503906 0.109375 -0.765625 C 0.109375 -1.023438 0.175781 -1.222656 0.3125 -1.359375 C 0.445312 -1.492188 0.632812 -1.5625 0.875 -1.5625 C 1.101562 -1.5625 1.28125 -1.5 1.40625 -1.375 C 1.539062 -1.257812 1.609375 -1.085938 1.609375 -0.859375 L 1.609375 -0.625 L 0.65625 -0.625 C 0.65625 -0.539062 0.6875 -0.472656 0.75 -0.421875 C 0.8125 -0.367188 0.890625 -0.34375 0.984375 -0.34375 C 1.078125 -0.34375 1.160156 -0.351562 1.234375 -0.375 C 1.316406 -0.394531 1.40625 -0.425781 1.5 -0.46875 L 1.5 -0.078125 C 1.414062 -0.0351562 1.328125 -0.0078125 1.234375 0 C 1.148438 0.0195312 1.046875 0.03125 0.921875 0.03125 Z M 0.890625 -1.203125 C 0.828125 -1.203125 0.773438 -1.179688 0.734375 -1.140625 C 0.691406 -1.109375 0.671875 -1.046875 0.671875 -0.953125 L 1.125 -0.953125 C 1.125 -1.035156 1.101562 -1.097656 1.0625 -1.140625 C 1.019531 -1.179688 0.960938 -1.203125 0.890625 -1.203125 Z M 0.890625 -1.203125 "/></g></g><g transform="translate(394.859089, 67.950109)"><g><path d="M 1.1875 0 L 1.078125 -0.203125 C 1.003906 -0.117188 0.929688 -0.0546875 0.859375 -0.015625 C 0.785156 0.015625 0.6875 0.03125 0.5625 0.03125 C 0.414062 0.03125 0.300781 -0.0078125 0.21875 -0.09375 C 0.132812 -0.1875 0.09375 -0.3125 0.09375 -0.46875 C 0.09375 -0.632812 0.148438 -0.753906 0.265625 -0.828125 C 0.378906 -0.910156 0.546875 -0.957031 0.765625 -0.96875 L 1.03125 -0.984375 L 1.03125 -1 C 1.03125 -1.125 0.96875 -1.1875 0.84375 -1.1875 C 0.726562 -1.1875 0.582031 -1.148438 0.40625 -1.078125 L 0.25 -1.421875 C 0.4375 -1.515625 0.664062 -1.5625 0.9375 -1.5625 C 1.132812 -1.5625 1.285156 -1.507812 1.390625 -1.40625 C 1.503906 -1.3125 1.5625 -1.179688 1.5625 -1.015625 L 1.5625 0 Z M 0.796875 -0.34375 C 0.859375 -0.34375 0.910156 -0.363281 0.953125 -0.40625 C 1.003906 -0.445312 1.03125 -0.5 1.03125 -0.5625 L 1.03125 -0.6875 L 0.90625 -0.6875 C 0.726562 -0.675781 0.640625 -0.609375 0.640625 -0.484375 C 0.640625 -0.390625 0.691406 -0.34375 0.796875 -0.34375 Z M 0.796875 -0.34375 "/></g></g><g transform="translate(396.589775, 67.950109)"><g><path d="M 0.9375 -0.390625 C 1.007812 -0.390625 1.09375 -0.410156 1.1875 -0.453125 L 1.1875 -0.0625 C 1.125 -0.03125 1.054688 -0.0078125 0.984375 0 C 0.921875 0.0195312 0.847656 0.03125 0.765625 0.03125 C 0.585938 0.03125 0.457031 -0.0078125 0.375 -0.09375 C 0.300781 -0.1875 0.265625 -0.320312 0.265625 -0.5 L 0.265625 -1.140625 L 0.078125 -1.140625 L 0.078125 -1.359375 L 0.3125 -1.53125 L 0.453125 -1.84375 L 0.796875 -1.84375 L 0.796875 -1.53125 L 1.171875 -1.53125 L 1.171875 -1.140625 L 0.796875 -1.140625 L 0.796875 -0.546875 C 0.796875 -0.441406 0.84375 -0.390625 0.9375 -0.390625 Z M 0.9375 -0.390625 "/></g></g><g transform="translate(397.867444, 67.950109)"><g><path d="M 1.375 -0.46875 C 1.375 -0.300781 1.316406 -0.175781 1.203125 -0.09375 C 1.085938 -0.0078125 0.925781 0.03125 0.71875 0.03125 C 0.601562 0.03125 0.503906 0.0195312 0.421875 0 C 0.335938 -0.0078125 0.253906 -0.03125 0.171875 -0.0625 L 0.171875 -0.484375 C 0.242188 -0.441406 0.328125 -0.410156 0.421875 -0.390625 C 0.523438 -0.367188 0.617188 -0.359375 0.703125 -0.359375 C 0.816406 -0.359375 0.875 -0.382812 0.875 -0.4375 C 0.875 -0.46875 0.859375 -0.492188 0.828125 -0.515625 C 0.796875 -0.535156 0.703125 -0.578125 0.546875 -0.640625 C 0.398438 -0.691406 0.296875 -0.753906 0.234375 -0.828125 C 0.179688 -0.898438 0.15625 -0.992188 0.15625 -1.109375 C 0.15625 -1.253906 0.210938 -1.363281 0.328125 -1.4375 C 0.441406 -1.519531 0.597656 -1.5625 0.796875 -1.5625 C 0.898438 -1.5625 0.992188 -1.550781 1.078125 -1.53125 C 1.171875 -1.507812 1.265625 -1.476562 1.359375 -1.4375 L 1.21875 -1.09375 C 1.144531 -1.125 1.066406 -1.148438 0.984375 -1.171875 C 0.910156 -1.191406 0.847656 -1.203125 0.796875 -1.203125 C 0.710938 -1.203125 0.671875 -1.179688 0.671875 -1.140625 C 0.671875 -1.117188 0.6875 -1.097656 0.71875 -1.078125 C 0.75 -1.054688 0.832031 -1.019531 0.96875 -0.96875 C 1.082031 -0.914062 1.164062 -0.867188 1.21875 -0.828125 C 1.269531 -0.785156 1.304688 -0.734375 1.328125 -0.671875 C 1.359375 -0.617188 1.375 -0.550781 1.375 -0.46875 Z M 1.375 -0.46875 "/></g></g><g transform="translate(399.348564, 67.950109)"><g><path d="M 0.71875 0 L 0.1875 0 L 0.1875 -1.53125 L 0.71875 -1.53125 Z M 0.171875 -1.921875 C 0.171875 -2.003906 0.191406 -2.0625 0.234375 -2.09375 C 0.285156 -2.132812 0.359375 -2.15625 0.453125 -2.15625 C 0.554688 -2.15625 0.628906 -2.132812 0.671875 -2.09375 C 0.710938 -2.050781 0.734375 -1.992188 0.734375 -1.921875 C 0.734375 -1.765625 0.640625 -1.6875 0.453125 -1.6875 C 0.265625 -1.6875 0.171875 -1.765625 0.171875 -1.921875 Z M 0.171875 -1.921875 "/></g></g><g transform="translate(400.251884, 67.950109)"><g><path d="M 0.9375 -0.390625 C 1.007812 -0.390625 1.09375 -0.410156 1.1875 -0.453125 L 1.1875 -0.0625 C 1.125 -0.03125 1.054688 -0.0078125 0.984375 0 C 0.921875 0.0195312 0.847656 0.03125 0.765625 0.03125 C 0.585938 0.03125 0.457031 -0.0078125 0.375 -0.09375 C 0.300781 -0.1875 0.265625 -0.320312 0.265625 -0.5 L 0.265625 -1.140625 L 0.078125 -1.140625 L 0.078125 -1.359375 L 0.3125 -1.53125 L 0.453125 -1.84375 L 0.796875 -1.84375 L 0.796875 -1.53125 L 1.171875 -1.53125 L 1.171875 -1.140625 L 0.796875 -1.140625 L 0.796875 -0.546875 C 0.796875 -0.441406 0.84375 -0.390625 0.9375 -0.390625 Z M 0.9375 -0.390625 "/></g></g><g transform="translate(401.529553, 67.950109)"><g><path d="M 0.921875 0.03125 C 0.671875 0.03125 0.472656 -0.0351562 0.328125 -0.171875 C 0.179688 -0.304688 0.109375 -0.503906 0.109375 -0.765625 C 0.109375 -1.023438 0.175781 -1.222656 0.3125 -1.359375 C 0.445312 -1.492188 0.632812 -1.5625 0.875 -1.5625 C 1.101562 -1.5625 1.28125 -1.5 1.40625 -1.375 C 1.539062 -1.257812 1.609375 -1.085938 1.609375 -0.859375 L 1.609375 -0.625 L 0.65625 -0.625 C 0.65625 -0.539062 0.6875 -0.472656 0.75 -0.421875 C 0.8125 -0.367188 0.890625 -0.34375 0.984375 -0.34375 C 1.078125 -0.34375 1.160156 -0.351562 1.234375 -0.375 C 1.316406 -0.394531 1.40625 -0.425781 1.5 -0.46875 L 1.5 -0.078125 C 1.414062 -0.0351562 1.328125 -0.0078125 1.234375 0 C 1.148438 0.0195312 1.046875 0.03125 0.921875 0.03125 Z M 0.890625 -1.203125 C 0.828125 -1.203125 0.773438 -1.179688 0.734375 -1.140625 C 0.691406 -1.109375 0.671875 -1.046875 0.671875 -0.953125 L 1.125 -0.953125 C 1.125 -1.035156 1.101562 -1.097656 1.0625 -1.140625 C 1.019531 -1.179688 0.960938 -1.203125 0.890625 -1.203125 Z M 0.890625 -1.203125 "/></g></g></g></svg>