<?xml version="1.0" encoding="iso-8859-1"?>
<!-- Generator: Adobe Illustrator 19.0.0, SVG Export Plug-In . SVG Version: 6.00 Build 0)  -->
<svg version="1.1" id="Capa_1" xmlns="http://www.w3.org/2000/svg" xmlns:xlink="http://www.w3.org/1999/xlink" x="0px" y="0px"
	 viewBox="0 0 464 464" style="enable-background:new 0 0 464 464;" xml:space="preserve">
<rect x="112" y="392" style="fill:#DADDA4;" width="336" height="32"/>
<g>
	<rect x="96" y="424" style="fill:#D3D3D3;" width="368" height="32"/>
	<rect x="304" y="152" style="fill:#D3D3D3;" width="160" height="32"/>
</g>
<rect x="304" y="184" style="fill:#E9ECCF;" width="136" height="208"/>
<rect y="184" style="fill:#76B82B;" width="288" height="168"/>
<path style="fill:#B5D676;" d="M256,312v-80c-8.837,0-16-7.163-16-16H48c0,8.837-7.163,16-16,16v80c8.837,0,16,7.163,16,16h192
	C240,319.164,247.163,312,256,312z"/>
<g>
	<path style="fill:#FBF7ED;" d="M264,256v-24c0-4.422-3.582-8-8-8c-4.41,0-8-3.586-8-8c0-4.422-3.582-8-8-8h-24v16h17.371
		c2.414,6.813,7.82,12.219,14.629,14.633V256H264z"/>
	<path style="fill:#FBF7ED;" d="M264,312v-24h-16v17.367c-6.809,2.414-12.215,7.82-14.629,14.633H216v16h24c4.418,0,8-3.578,8-8
		c0-4.414,3.59-8,8-8C260.418,320,264,316.422,264,312z"/>
	<rect x="224" y="264" style="fill:#FBF7ED;" width="16" height="16"/>
	<path style="fill:#FBF7ED;" d="M24,256v-24c0-4.422,3.582-8,8-8c4.41,0,8-3.586,8-8c0-4.422,3.582-8,8-8h24v16H54.629
		c-2.414,6.813-7.82,12.219-14.629,14.633V256H24z"/>
	<path style="fill:#FBF7ED;" d="M24,312v-24h16v17.367c6.809,2.414,12.215,7.82,14.629,14.633H72v16H48c-4.418,0-8-3.578-8-8
		c0-4.414-3.59-8-8-8C27.582,320,24,316.422,24,312z"/>
	<rect x="48" y="264" style="fill:#FBF7ED;" width="16" height="16"/>
	<circle style="fill:#FBF7ED;" cx="144" cy="272" r="56"/>
</g>
<path style="fill:#4C7464;" d="M136,288h-16v16c0,4.422,3.582,8,8,8h8v8h16v-8h8c4.418,0,8-3.578,8-8v-32c0-4.422-3.582-8-8-8h-24
	v-16h16v8h16v-16c0-4.422-3.582-8-8-8h-8v-8h-16v8h-8c-4.418,0-8,3.578-8,8v32c0,4.422,3.582,8,8,8h24v16h-16V288z"/>
<g>
	<polygon style="fill:#E0CB07;" points="336,232 352,248 336,248 	"/>
	<polygon style="fill:#E0CB07;" points="312,264 312,296 352,296 352,328 336,344 336,312 296,312 296,264 	"/>
</g>
<polygon style="fill:#FCEE21;" points="336,248 352,248 352,216 408,272 392,288 352,328 352,296 312,296 312,264 312,248 "/>
<rect x="304" y="184" style="fill:#DADDA4;" width="144" height="16"/>
<g>
	<rect x="400" y="328" style="fill:#FCEE21;" width="16" height="40"/>
	<rect x="368" y="352" style="fill:#FCEE21;" width="16" height="16"/>
	<rect x="312" y="336" style="fill:#FCEE21;" width="16" height="32"/>
</g>
<g>
	<polygon style="fill:#E6E6E6;" points="172.64,84.64 194.88,106.88 216,128 216,152 448,152 448,128 280,8 	"/>
	<polygon style="fill:#E6E6E6;" points="120,128 120,152 176,152 152,128 	"/>
</g>
<g>
	<path style="fill:#D3D3D3;" d="M304,120h80l-66.56-46.08c1.68,4.4,2.56,9.12,2.56,14.08C320,101.04,313.68,112.72,304,120z"/>
	<path style="fill:#D3D3D3;" d="M194.88,106.88L208,120h48c-9.68-7.28-16-18.96-16-32c0-4.96,0.88-9.68,2.56-14.08L194.88,106.88z"
		/>
</g>
<rect y="352" style="fill:#4C7464;" width="288" height="24"/>
<g>
	<polygon style="fill:#D89868;" points="128,200 144,200 144,216 112,216 48,152 0,152 0,112 40,112 	"/>
	<polygon style="fill:#D89868;" points="152,104 192,136 192,184 176,184 176,152 152,128 120,128 120,104 	"/>
</g>
<polygon style="fill:#DFB28B;" points="160,72 172.64,84.64 194.88,106.88 216,128 216,184 192,184 192,136 152,104 120,104 
	120,128 120,144 120,160 144,184 144,200 128,200 40,112 0,112 0,72 "/>
<polygon style="fill:#FBF7ED;" points="360,320 352,328 352,296 312,296 312,248 320,248 320,288 360,288 "/>
<g>
</g>
<g>
</g>
<g>
</g>
<g>
</g>
<g>
</g>
<g>
</g>
<g>
</g>
<g>
</g>
<g>
</g>
<g>
</g>
<g>
</g>
<g>
</g>
<g>
</g>
<g>
</g>
<g>
</g>
</svg>
