<?xml version="1.0" encoding="utf-8"?>
<!-- Generator: Adobe Illustrator 18.0.0, SVG Export Plug-In . SVG Version: 6.00 Build 0)  -->
<!DOCTYPE svg PUBLIC "-//W3C//DTD SVG 1.1//EN" "http://www.w3.org/Graphics/SVG/1.1/DTD/svg11.dtd">
<svg xmlns="http://www.w3.org/2000/svg" xmlns:xlink="http://www.w3.org/1999/xlink" version="1.1" id="Layer_2" x="0px" y="0px" viewBox="0 0 64 64" style="enable-background:new 0 0 64 64;" xml:space="preserve" width="512" height="512">
<style type="text/css">
	.st0{fill:#EDEFF1;}
	.st1{fill:#D3D3D3;}
	.st2{fill:#98CA69;}
	.st3{fill:#80D6FB;}
	.st4{fill:#FFB0AA;}
	.st5{fill:#FFE352;}
	.st6{fill:#6E83B7;}
	.st7{fill:#466089;}
	.st8{fill:#FFD3B3;}
	.st9{fill:#FCB98B;}
	.st10{fill:#FFB236;}
	.st11{fill:#46BEE8;}
	.st12{fill:#E0E2FF;}
	.st13{fill:#8FA5D1;}
	.st14{fill:#75AA40;}
</style>
<g>
	<g>
		<polygon class="st0" points="55,47 55,44 9,44 9,47 8,47 8,50 56,50 56,47   "/>
		<path class="st0" d="M53,26v-1c0.552,0,1-0.448,1-1v-2H44v2c0,0.552,0.448,1,1,1v1c0,0.552,0.448,1,1,1v12c-0.552,0-1,0.448-1,1v1    c-0.552,0-1,0.448-1,1v2h10v-2c0-0.552-0.448-1-1-1v-1c0-0.552-0.448-1-1-1V27C52.552,27,53,26.552,53,26z"/>
		<path class="st0" d="M19,26v-1c0.552,0,1-0.448,1-1v-2H10v2c0,0.552,0.448,1,1,1v1c0,0.552,0.448,1,1,1v12c-0.552,0-1,0.448-1,1v1    c-0.552,0-1,0.448-1,1v2h10v-2c0-0.552-0.448-1-1-1v-1c0-0.552-0.448-1-1-1V27C18.552,27,19,26.552,19,26z"/>
		<g>
			<polygon class="st0" points="32,2 9,16 9,22 32,22 55,22 55,16    "/>
		</g>
		<g>
			<path class="st1" d="M52.5,19.5h-41v-2.783L32,4.417l20.5,12.3V19.5z M12.5,18.5h39v-1.217L32,5.583l-19.5,11.7V18.5z"/>
		</g>
		<g>
			<rect x="10" y="22" class="st1" width="10" height="1"/>
		</g>
		<g>
			<rect x="10" y="43" class="st1" width="10" height="1"/>
		</g>
		<g>
			<rect x="44" y="22" class="st1" width="10" height="1"/>
		</g>
		<g>
			<rect x="44" y="43" class="st1" width="10" height="1"/>
		</g>
		<g>
			<rect x="9" y="46" class="st1" width="46" height="1"/>
		</g>
		<g>
			<circle class="st5" cx="32" cy="33" r="8"/>
		</g>
		<path class="st6" d="M33,32h-2c-0.552,0-1-0.449-1-1s0.448-1,1-1h2c0.552,0,1,0.449,1,1h2c0-1.654-1.346-3-3-3v-1h-2v1    c-1.654,0-3,1.346-3,3s1.346,3,3,3h2c0.552,0,1,0.449,1,1s-0.448,1-1,1h-2c-0.552,0-1-0.449-1-1h-2c0,1.654,1.346,3,3,3v1h2v-1    c1.654,0,3-1.346,3-3S34.654,32,33,32z"/>
	</g>
	<g>
		<polygon class="st6" points="34,57 47,57 47,62 59,53 47,44 47,49 34,49   "/>
	</g>
	<g>
		<polygon class="st6" points="30,57 17,57 17,62 5,53 17,44 17,49 30,49   "/>
	</g>
</g>
</svg>
