<svg id="Layer_1" enable-background="new 0 0 256 256" height="512" viewBox="0 0 256 256" width="512" xmlns="http://www.w3.org/2000/svg"><g><g><path d="m161.128 45.128c0-18.296-14.832-33.128-33.128-33.128s-33.128 14.832-33.128 33.128c0 15.529 10.686 28.557 25.104 32.144l6.64 12.398c.592 1.105 2.177 1.105 2.769 0l6.64-12.398c14.417-3.587 25.103-16.615 25.103-32.144z" fill="#f9a7a7"/></g><g><path d="m123.127 37.062c0 3.126-.688 5.45-2.062 6.972-1.375 1.522-3.257 2.283-5.646 2.283-1.473 0-2.795-.323-3.965-.97-1.17-.646-2.083-1.657-2.737-3.032-.655-1.375-.982-3.052-.982-5.033 0-2.127.254-3.903.761-5.327s1.329-2.504 2.467-3.241 2.59-1.105 4.358-1.105c1.276 0 2.397.196 3.363.589.965.393 1.783.994 2.455 1.804.671.81 1.17 1.796 1.498 2.958.326 1.165.49 2.531.49 4.102zm-4.591-.245c0-2.144-.229-3.703-.688-4.677-.458-.974-1.269-1.461-2.43-1.461-.786 0-1.412.233-1.878.7-.466.466-.786 1.154-.958 2.062s-.258 2.066-.258 3.474c0 1.457.086 2.643.258 3.56s.487 1.608.945 2.074 1.088.7 1.89.7c1.211 0 2.033-.516 2.467-1.547.435-1.031.652-2.659.652-4.885zm20.966-5.966-20.45 32.971c-.524.9-1.113 1.35-1.768 1.35-.377 0-.753-.143-1.129-.43-.377-.287-.565-.659-.565-1.117 0-.344.163-.761.491-1.252l20.573-33.241c.359-.605.675-1.06.945-1.363s.659-.454 1.166-.454c.491 0 .888.143 1.191.43s.454.667.454 1.142c0 .344-.303.999-.908 1.964zm8.764 23.961c0 3.126-.688 5.45-2.062 6.972-1.375 1.522-3.257 2.283-5.646 2.283-1.49 0-2.819-.327-3.99-.982-1.17-.654-2.087-1.661-2.749-3.02-.663-1.358-.994-3.036-.994-5.033 0-3.192.609-5.593 1.829-7.205 1.219-1.612 3.155-2.418 5.806-2.418 1.276 0 2.393.196 3.351.589.957.393 1.776.982 2.455 1.768s1.182 1.764 1.51 2.934c.326 1.17.49 2.541.49 4.112zm-4.591-.246c0-2.111-.229-3.654-.687-4.628s-1.269-1.461-2.43-1.461c-.819 0-1.457.229-1.915.687s-.782 1.134-.969 2.025c-.188.892-.282 2.05-.282 3.474 0 2.193.233 3.797.699 4.812s1.289 1.522 2.467 1.522c1.195 0 2.013-.519 2.455-1.559.441-1.038.662-2.662.662-4.872z" fill="#ffea92"/></g><g><path d="m128 92.5c-1.319 0-2.525-.723-3.147-1.885l-6.228-11.629c-15.209-4.193-25.753-17.989-25.753-33.857 0-19.371 15.758-35.129 35.128-35.129s35.129 15.758 35.129 35.128c0 15.868-10.544 29.664-25.753 33.857l-6.229 11.629c-.623 1.164-1.829 1.886-3.147 1.886zm0-78.5c-17.164 0-31.128 13.964-31.128 31.128 0 14.328 9.7 26.748 23.587 30.204.548.137 1.013.499 1.28.997l6.261 11.691 6.262-11.691c.267-.498.731-.86 1.279-.997 13.889-3.456 23.588-15.876 23.588-30.204 0-17.164-13.965-31.128-31.129-31.128z" fill="#3762cc"/></g><g><path d="m91.336 179.561h-48.506c-9.483 0-17.17-7.687-17.17-17.17v-37.883c0-9.483 7.687-17.17 17.17-17.17h48.506z" fill="#4671c6"/></g><g><path d="m25.66 158.795h-7.083c-1.897 0-3.434-1.537-3.434-3.434v-23.824c0-1.897 1.537-3.434 3.434-3.434h7.083z" fill="#a4c9ff"/></g><g><path d="m91.336 181.561h-48.506c-10.571 0-19.17-8.6-19.17-19.17v-37.882c0-10.571 8.6-19.17 19.17-19.17h48.506c1.104 0 2 .896 2 2v72.223c0 1.104-.895 1.999-2 1.999zm-48.506-72.223c-8.365 0-15.17 6.805-15.17 15.17v37.882c0 8.365 6.806 15.17 15.17 15.17h46.506v-68.223h-46.506z" fill="#3762cc"/></g><g><path d="m25.66 160.795h-7.083c-2.997 0-5.434-2.438-5.434-5.434v-23.824c0-2.997 2.438-5.434 5.434-5.434h7.083c1.104 0 2 .896 2 2v30.692c0 1.105-.896 2-2 2zm-7.083-30.691c-.791 0-1.434.644-1.434 1.434v23.824c0 .791.644 1.434 1.434 1.434h5.083v-26.692z" fill="#3762cc"/></g><g><path d="m174.057 203.449c-3.398 0-6.153-2.755-6.153-6.153v-107.694c0-3.398 2.755-6.153 6.153-6.153 3.398 0 6.153 2.755 6.153 6.153v107.695c-.001 3.398-2.755 6.152-6.153 6.152z" fill="#a4c9ff"/></g><g><path d="m190.475 124.628-10.266-3.5v22.322 22.322l10.266-3.5c1.391-.474 2.326-1.781 2.326-3.25v-31.143c0-1.471-.935-2.777-2.326-3.251z" fill="#f9a7a7"/></g><g><path d="m236.851 147.456h-26.287c-2.213 0-4.006-1.794-4.006-4.006s1.794-4.006 4.006-4.006h26.287c2.213 0 4.006 1.794 4.006 4.006s-1.794 4.006-4.006 4.006z" fill="#f9cfcf"/></g><g><path d="m200.286 122.487c-1.156 0-2.303-.498-3.095-1.46-1.407-1.708-1.162-4.233.546-5.639l22.766-18.744c1.708-1.407 4.232-1.162 5.64.546 1.407 1.708 1.162 4.233-.546 5.639l-22.766 18.744c-.746.615-1.648.914-2.545.914z" fill="#f9cfcf"/></g><g><path d="m223.048 191.169c-.897 0-1.799-.299-2.545-.914l-22.766-18.744c-1.708-1.407-1.952-3.931-.546-5.639 1.407-1.708 3.931-1.953 5.64-.546l22.766 18.744c1.708 1.407 1.952 3.931.546 5.639-.792.962-1.938 1.46-3.095 1.46z" fill="#f9cfcf"/></g><g><path d="m174.057 205.449c-4.495 0-8.152-3.657-8.152-8.152v-107.695c0-4.496 3.657-8.153 8.152-8.153s8.152 3.657 8.152 8.153v107.695c0 4.495-3.657 8.152-8.152 8.152zm0-120c-2.29 0-4.152 1.863-4.152 4.153v107.695c0 2.29 1.862 4.152 4.152 4.152s4.152-1.863 4.152-4.152v-107.695c0-2.29-1.862-4.153-4.152-4.153z" fill="#3762cc"/></g><g><path d="m180.209 167.771c-.412 0-.82-.127-1.164-.374-.524-.375-.836-.981-.836-1.626v-44.643c0-.646.312-1.251.836-1.626s1.198-.474 1.81-.267l10.265 3.5c2.202.75 3.682 2.817 3.682 5.144v31.143c0 2.326-1.479 4.394-3.682 5.144l-10.265 3.5c-.211.07-.429.105-.646.105zm2-43.848v39.053l7.62-2.598c.581-.198.972-.744.972-1.357v-31.143c0-.614-.391-1.16-.971-1.357-.001 0-.001 0-.001 0z" fill="#3762cc"/></g><g><path d="m167.904 90.082-63.69 15.773-12.878 1.483v36.111 36.112l12.878 1.482 63.69 15.774z" fill="#e0ebfc"/></g><g><path d="m167.904 198.817c-.16 0-.322-.02-.48-.059l-63.566-15.743-12.75-1.468c-1.01-.116-1.771-.971-1.771-1.987v-72.223c0-1.016.762-1.871 1.771-1.987l12.75-1.468 63.565-15.743c.596-.146 1.229-.012 1.713.366.484.379.768.96.768 1.575v106.735c0 .615-.283 1.196-.768 1.575-.355.28-.789.427-1.232.427zm-74.568-21.039 11.106 1.279c.085.01.169.025.252.045l61.209 15.159v-101.623l-61.209 15.159c-.083.021-.167.036-.252.045l-11.106 1.279z" fill="#3762cc"/></g><g><path d="m46.079 179.561v57.439c0 3.866 3.134 7 7 7h18.838c3.866 0 7-3.134 7-7v-57.439z" fill="#a4c9ff"/></g><g><path d="m71.917 246h-18.838c-4.962 0-9-4.038-9-9v-57.439c0-1.104.896-2 2-2h32.838c1.104 0 2 .896 2 2v57.439c0 4.962-4.038 9-9 9zm-23.838-64.439v55.439c0 2.757 2.243 5 5 5h18.838c2.757 0 5-2.243 5-5v-55.439z" fill="#3762cc"/></g></g></svg>