<svg xmlns="http://www.w3.org/2000/svg" xmlns:xlink="http://www.w3.org/1999/xlink" width="500" zoomAndPan="magnify" viewBox="0 0 375 374.999991" height="500" preserveAspectRatio="xMidYMid meet" version="1.0"><defs><g/><clipPath id="9c143469a1"><path d="M 37.5 0 L 375 0 L 375 375 L 37.5 375 Z M 37.5 0 " clip-rule="nonzero"/></clipPath><linearGradient x1="0.825688" gradientTransform="matrix(408.75002, 0, 0, 408.75002, 37.500004, -7.16723)" y1="0.5" x2="-0.00000000382263" gradientUnits="userSpaceOnUse" y2="0.5" id="d564ccc844"><stop stop-opacity="1" stop-color="rgb(40.127563%, 27.027893%, 89.082336%)" offset="0"/><stop stop-opacity="1" stop-color="rgb(39.970398%, 27.22168%, 89.045715%)" offset="0.0078125"/><stop stop-opacity="1" stop-color="rgb(39.657593%, 27.612305%, 88.975525%)" offset="0.015625"/><stop stop-opacity="1" stop-color="rgb(39.343262%, 28.001404%, 88.903809%)" offset="0.0234375"/><stop stop-opacity="1" stop-color="rgb(39.030457%, 28.390503%, 88.833618%)" offset="0.03125"/><stop stop-opacity="1" stop-color="rgb(38.716125%, 28.781128%, 88.761902%)" offset="0.0390625"/><stop stop-opacity="1" stop-color="rgb(38.40332%, 29.170227%, 88.691711%)" offset="0.046875"/><stop stop-opacity="1" stop-color="rgb(38.088989%, 29.559326%, 88.619995%)" offset="0.0546875"/><stop stop-opacity="1" stop-color="rgb(37.776184%, 29.949951%, 88.549805%)" offset="0.0625"/><stop stop-opacity="1" stop-color="rgb(37.461853%, 30.33905%, 88.478088%)" offset="0.0703125"/><stop stop-opacity="1" stop-color="rgb(37.149048%, 30.728149%, 88.407898%)" offset="0.078125"/><stop stop-opacity="1" stop-color="rgb(36.834717%, 31.118774%, 88.336182%)" offset="0.0859375"/><stop stop-opacity="1" stop-color="rgb(36.521912%, 31.507874%, 88.265991%)" offset="0.09375"/><stop stop-opacity="1" stop-color="rgb(36.209106%, 31.896973%, 88.194275%)" offset="0.101563"/><stop stop-opacity="1" stop-color="rgb(35.894775%, 32.287598%, 88.124084%)" offset="0.109375"/><stop stop-opacity="1" stop-color="rgb(35.58197%, 32.676697%, 88.052368%)" offset="0.117188"/><stop stop-opacity="1" stop-color="rgb(35.267639%, 33.065796%, 87.982178%)" offset="0.125"/><stop stop-opacity="1" stop-color="rgb(34.954834%, 33.456421%, 87.910461%)" offset="0.132812"/><stop stop-opacity="1" stop-color="rgb(34.640503%, 33.84552%, 87.840271%)" offset="0.140625"/><stop stop-opacity="1" stop-color="rgb(34.327698%, 34.234619%, 87.768555%)" offset="0.148437"/><stop stop-opacity="1" stop-color="rgb(34.013367%, 34.625244%, 87.698364%)" offset="0.15625"/><stop stop-opacity="1" stop-color="rgb(33.700562%, 35.014343%, 87.626648%)" offset="0.164062"/><stop stop-opacity="1" stop-color="rgb(33.38623%, 35.403442%, 87.556458%)" offset="0.171875"/><stop stop-opacity="1" stop-color="rgb(33.073425%, 35.794067%, 87.484741%)" offset="0.179688"/><stop stop-opacity="1" stop-color="rgb(32.76062%, 36.183167%, 87.414551%)" offset="0.1875"/><stop stop-opacity="1" stop-color="rgb(32.446289%, 36.572266%, 87.342834%)" offset="0.195312"/><stop stop-opacity="1" stop-color="rgb(32.133484%, 36.962891%, 87.272644%)" offset="0.203125"/><stop stop-opacity="1" stop-color="rgb(31.819153%, 37.35199%, 87.200928%)" offset="0.210938"/><stop stop-opacity="1" stop-color="rgb(31.506348%, 37.741089%, 87.130737%)" offset="0.21875"/><stop stop-opacity="1" stop-color="rgb(31.192017%, 38.131714%, 87.059021%)" offset="0.226563"/><stop stop-opacity="1" stop-color="rgb(30.879211%, 38.520813%, 86.988831%)" offset="0.234375"/><stop stop-opacity="1" stop-color="rgb(30.56488%, 38.909912%, 86.917114%)" offset="0.242188"/><stop stop-opacity="1" stop-color="rgb(30.252075%, 39.300537%, 86.846924%)" offset="0.25"/><stop stop-opacity="1" stop-color="rgb(29.937744%, 39.689636%, 86.775208%)" offset="0.257812"/><stop stop-opacity="1" stop-color="rgb(29.624939%, 40.080261%, 86.705017%)" offset="0.265625"/><stop stop-opacity="1" stop-color="rgb(29.312134%, 40.46936%, 86.633301%)" offset="0.273438"/><stop stop-opacity="1" stop-color="rgb(28.997803%, 40.858459%, 86.56311%)" offset="0.28125"/><stop stop-opacity="1" stop-color="rgb(28.684998%, 41.249084%, 86.491394%)" offset="0.289062"/><stop stop-opacity="1" stop-color="rgb(28.370667%, 41.638184%, 86.421204%)" offset="0.296875"/><stop stop-opacity="1" stop-color="rgb(28.057861%, 42.027283%, 86.349487%)" offset="0.304688"/><stop stop-opacity="1" stop-color="rgb(27.74353%, 42.417908%, 86.279297%)" offset="0.3125"/><stop stop-opacity="1" stop-color="rgb(27.430725%, 42.807007%, 86.207581%)" offset="0.320312"/><stop stop-opacity="1" stop-color="rgb(27.116394%, 43.196106%, 86.13739%)" offset="0.328125"/><stop stop-opacity="1" stop-color="rgb(26.803589%, 43.586731%, 86.065674%)" offset="0.335938"/><stop stop-opacity="1" stop-color="rgb(26.489258%, 43.97583%, 85.995483%)" offset="0.34375"/><stop stop-opacity="1" stop-color="rgb(26.176453%, 44.364929%, 85.923767%)" offset="0.351562"/><stop stop-opacity="1" stop-color="rgb(25.862122%, 44.755554%, 85.853577%)" offset="0.359375"/><stop stop-opacity="1" stop-color="rgb(25.549316%, 45.144653%, 85.78186%)" offset="0.367188"/><stop stop-opacity="1" stop-color="rgb(25.236511%, 45.533752%, 85.71167%)" offset="0.375"/><stop stop-opacity="1" stop-color="rgb(24.92218%, 45.924377%, 85.639954%)" offset="0.382813"/><stop stop-opacity="1" stop-color="rgb(24.609375%, 46.313477%, 85.569763%)" offset="0.390625"/><stop stop-opacity="1" stop-color="rgb(24.295044%, 46.702576%, 85.498047%)" offset="0.398438"/><stop stop-opacity="1" stop-color="rgb(23.982239%, 47.093201%, 85.427856%)" offset="0.40625"/><stop stop-opacity="1" stop-color="rgb(23.667908%, 47.4823%, 85.35614%)" offset="0.414063"/><stop stop-opacity="1" stop-color="rgb(23.355103%, 47.871399%, 85.28595%)" offset="0.421875"/><stop stop-opacity="1" stop-color="rgb(23.040771%, 48.262024%, 85.214233%)" offset="0.429688"/><stop stop-opacity="1" stop-color="rgb(22.727966%, 48.651123%, 85.142517%)" offset="0.4375"/><stop stop-opacity="1" stop-color="rgb(22.413635%, 49.040222%, 85.072327%)" offset="0.445313"/><stop stop-opacity="1" stop-color="rgb(22.10083%, 49.430847%, 85.00061%)" offset="0.453125"/><stop stop-opacity="1" stop-color="rgb(21.788025%, 49.819946%, 84.93042%)" offset="0.460938"/><stop stop-opacity="1" stop-color="rgb(21.473694%, 50.209045%, 84.858704%)" offset="0.46875"/><stop stop-opacity="1" stop-color="rgb(21.160889%, 50.59967%, 84.788513%)" offset="0.476563"/><stop stop-opacity="1" stop-color="rgb(20.846558%, 50.98877%, 84.716797%)" offset="0.484375"/><stop stop-opacity="1" stop-color="rgb(20.533752%, 51.377869%, 84.646606%)" offset="0.492187"/><stop stop-opacity="1" stop-color="rgb(20.219421%, 51.768494%, 84.57489%)" offset="0.5"/><stop stop-opacity="1" stop-color="rgb(19.906616%, 52.157593%, 84.5047%)" offset="0.507813"/><stop stop-opacity="1" stop-color="rgb(19.592285%, 52.546692%, 84.432983%)" offset="0.515625"/><stop stop-opacity="1" stop-color="rgb(19.27948%, 52.937317%, 84.362793%)" offset="0.523437"/><stop stop-opacity="1" stop-color="rgb(18.965149%, 53.326416%, 84.291077%)" offset="0.53125"/><stop stop-opacity="1" stop-color="rgb(18.652344%, 53.715515%, 84.220886%)" offset="0.539062"/><stop stop-opacity="1" stop-color="rgb(18.338013%, 54.10614%, 84.14917%)" offset="0.546875"/><stop stop-opacity="1" stop-color="rgb(18.025208%, 54.495239%, 84.078979%)" offset="0.554687"/><stop stop-opacity="1" stop-color="rgb(17.712402%, 54.885864%, 84.007263%)" offset="0.5625"/><stop stop-opacity="1" stop-color="rgb(17.398071%, 55.274963%, 83.937073%)" offset="0.570312"/><stop stop-opacity="1" stop-color="rgb(17.085266%, 55.664062%, 83.865356%)" offset="0.578125"/><stop stop-opacity="1" stop-color="rgb(16.770935%, 56.054688%, 83.795166%)" offset="0.585937"/><stop stop-opacity="1" stop-color="rgb(16.45813%, 56.443787%, 83.72345%)" offset="0.59375"/><stop stop-opacity="1" stop-color="rgb(16.143799%, 56.832886%, 83.653259%)" offset="0.601562"/><stop stop-opacity="1" stop-color="rgb(15.830994%, 57.223511%, 83.581543%)" offset="0.609375"/><stop stop-opacity="1" stop-color="rgb(15.516663%, 57.61261%, 83.511353%)" offset="0.617188"/><stop stop-opacity="1" stop-color="rgb(15.203857%, 58.001709%, 83.439636%)" offset="0.625"/><stop stop-opacity="1" stop-color="rgb(14.889526%, 58.392334%, 83.369446%)" offset="0.632812"/><stop stop-opacity="1" stop-color="rgb(14.576721%, 58.781433%, 83.297729%)" offset="0.640625"/><stop stop-opacity="1" stop-color="rgb(14.263916%, 59.170532%, 83.227539%)" offset="0.648438"/><stop stop-opacity="1" stop-color="rgb(13.949585%, 59.561157%, 83.155823%)" offset="0.65625"/><stop stop-opacity="1" stop-color="rgb(13.63678%, 59.950256%, 83.085632%)" offset="0.664063"/><stop stop-opacity="1" stop-color="rgb(13.322449%, 60.339355%, 83.013916%)" offset="0.671875"/><stop stop-opacity="1" stop-color="rgb(13.009644%, 60.72998%, 82.943726%)" offset="0.679688"/><stop stop-opacity="1" stop-color="rgb(12.695312%, 61.11908%, 82.872009%)" offset="0.6875"/><stop stop-opacity="1" stop-color="rgb(12.382507%, 61.508179%, 82.801819%)" offset="0.695313"/><stop stop-opacity="1" stop-color="rgb(12.068176%, 61.898804%, 82.730103%)" offset="0.703125"/><stop stop-opacity="1" stop-color="rgb(11.755371%, 62.287903%, 82.659912%)" offset="0.710938"/><stop stop-opacity="1" stop-color="rgb(11.44104%, 62.677002%, 82.588196%)" offset="0.71875"/><stop stop-opacity="1" stop-color="rgb(11.128235%, 63.067627%, 82.518005%)" offset="0.726563"/><stop stop-opacity="1" stop-color="rgb(10.81543%, 63.456726%, 82.446289%)" offset="0.734375"/><stop stop-opacity="1" stop-color="rgb(10.501099%, 63.845825%, 82.376099%)" offset="0.742187"/><stop stop-opacity="1" stop-color="rgb(10.188293%, 64.23645%, 82.304382%)" offset="0.75"/><stop stop-opacity="1" stop-color="rgb(9.873962%, 64.625549%, 82.234192%)" offset="0.757813"/><stop stop-opacity="1" stop-color="rgb(9.561157%, 65.014648%, 82.162476%)" offset="0.765625"/><stop stop-opacity="1" stop-color="rgb(9.246826%, 65.405273%, 82.092285%)" offset="0.773437"/><stop stop-opacity="1" stop-color="rgb(8.934021%, 65.794373%, 82.020569%)" offset="0.78125"/><stop stop-opacity="1" stop-color="rgb(8.61969%, 66.183472%, 81.950378%)" offset="0.789062"/><stop stop-opacity="1" stop-color="rgb(8.306885%, 66.574097%, 81.878662%)" offset="0.796875"/><stop stop-opacity="1" stop-color="rgb(7.992554%, 66.963196%, 81.808472%)" offset="0.804687"/><stop stop-opacity="1" stop-color="rgb(7.679749%, 67.352295%, 81.736755%)" offset="0.8125"/><stop stop-opacity="1" stop-color="rgb(7.365417%, 67.74292%, 81.666565%)" offset="0.820312"/><stop stop-opacity="1" stop-color="rgb(7.052612%, 68.132019%, 81.594849%)" offset="0.828125"/><stop stop-opacity="1" stop-color="rgb(6.739807%, 68.521118%, 81.524658%)" offset="0.835937"/><stop stop-opacity="1" stop-color="rgb(6.425476%, 68.911743%, 81.452942%)" offset="0.84375"/><stop stop-opacity="1" stop-color="rgb(6.112671%, 69.300842%, 81.382751%)" offset="0.851562"/><stop stop-opacity="1" stop-color="rgb(5.79834%, 69.691467%, 81.311035%)" offset="0.859375"/><stop stop-opacity="1" stop-color="rgb(5.485535%, 70.080566%, 81.240845%)" offset="0.867188"/><stop stop-opacity="1" stop-color="rgb(5.171204%, 70.469666%, 81.169128%)" offset="0.875"/><stop stop-opacity="1" stop-color="rgb(4.858398%, 70.860291%, 81.098938%)" offset="0.882812"/><stop stop-opacity="1" stop-color="rgb(4.544067%, 71.24939%, 81.027222%)" offset="0.890625"/><stop stop-opacity="1" stop-color="rgb(4.231262%, 71.638489%, 80.957031%)" offset="0.898438"/><stop stop-opacity="1" stop-color="rgb(3.916931%, 72.029114%, 80.885315%)" offset="0.90625"/><stop stop-opacity="1" stop-color="rgb(3.604126%, 72.418213%, 80.815125%)" offset="0.914063"/><stop stop-opacity="1" stop-color="rgb(3.291321%, 72.807312%, 80.743408%)" offset="0.921875"/><stop stop-opacity="1" stop-color="rgb(2.97699%, 73.197937%, 80.673218%)" offset="0.929688"/><stop stop-opacity="1" stop-color="rgb(2.664185%, 73.587036%, 80.601501%)" offset="0.9375"/><stop stop-opacity="1" stop-color="rgb(2.349854%, 73.976135%, 80.531311%)" offset="0.945313"/><stop stop-opacity="1" stop-color="rgb(2.037048%, 74.36676%, 80.459595%)" offset="0.953125"/><stop stop-opacity="1" stop-color="rgb(1.722717%, 74.755859%, 80.389404%)" offset="0.960938"/><stop stop-opacity="1" stop-color="rgb(1.409912%, 75.144958%, 80.317688%)" offset="0.96875"/><stop stop-opacity="1" stop-color="rgb(1.095581%, 75.535583%, 80.247498%)" offset="0.976563"/><stop stop-opacity="1" stop-color="rgb(0.782776%, 75.924683%, 80.175781%)" offset="0.984375"/><stop stop-opacity="1" stop-color="rgb(0.468445%, 76.313782%, 80.105591%)" offset="0.992187"/><stop stop-opacity="1" stop-color="rgb(0.15564%, 76.704407%, 80.033875%)" offset="1"/></linearGradient><clipPath id="5efe36bd01"><path d="M 232.671875 132.902344 L 297.171875 132.902344 L 297.171875 244.652344 L 232.671875 244.652344 Z M 232.671875 132.902344 " clip-rule="nonzero"/></clipPath><clipPath id="7bc3843e72"><path d="M 88.300781 155.121094 L 122.097656 155.121094 L 122.097656 160.230469 L 88.300781 160.230469 Z M 88.300781 155.121094 " clip-rule="nonzero"/></clipPath><clipPath id="a628cdd74f"><path d="M 122.097656 155.121094 L 88.355469 157.652344 L 122.097656 160.183594 L 122.097656 155.121094 " clip-rule="nonzero"/></clipPath><clipPath id="5dff4c10c1"><path d="M 78.464844 163.515625 L 119.730469 163.515625 L 119.730469 168.625 L 78.464844 168.625 Z M 78.464844 163.515625 " clip-rule="nonzero"/></clipPath><clipPath id="7c421c27b6"><path d="M 119.730469 163.515625 L 78.53125 166.046875 L 119.730469 168.578125 L 119.730469 163.515625 " clip-rule="nonzero"/></clipPath><clipPath id="47798f307b"><path d="M 69.238281 171.914062 L 117.183594 171.914062 L 117.183594 177 L 69.238281 177 Z M 69.238281 171.914062 " clip-rule="nonzero"/></clipPath><clipPath id="a8c972bc40"><path d="M 117.183594 171.914062 L 69.28125 174.445312 L 117.183594 176.976562 L 117.183594 171.914062 " clip-rule="nonzero"/></clipPath><clipPath id="0342634609"><path d="M 54.835938 180.3125 L 114.730469 180.3125 L 114.730469 185.421875 L 54.835938 185.421875 Z M 54.835938 180.3125 " clip-rule="nonzero"/></clipPath><clipPath id="6ed54a553d"><path d="M 114.730469 180.3125 L 54.859375 182.84375 L 114.730469 185.378906 L 114.730469 180.3125 " clip-rule="nonzero"/></clipPath><clipPath id="b291ed90d1"><path d="M 66.761719 188.707031 L 112.273438 188.707031 L 112.273438 193.816406 L 66.761719 193.816406 Z M 66.761719 188.707031 " clip-rule="nonzero"/></clipPath><clipPath id="76d27ccecc"><path d="M 112.273438 188.707031 L 66.773438 191.238281 L 112.273438 193.769531 L 112.273438 188.707031 " clip-rule="nonzero"/></clipPath><clipPath id="1a4b98e720"><path d="M 69.261719 197.109375 L 109.820312 197.109375 L 109.820312 202.21875 L 69.261719 202.21875 Z M 69.261719 197.109375 " clip-rule="nonzero"/></clipPath><clipPath id="aaa0cc391c"><path d="M 109.820312 197.109375 L 69.285156 199.640625 L 109.820312 202.171875 L 109.820312 197.109375 " clip-rule="nonzero"/></clipPath><clipPath id="a25950dd3a"><path d="M 73.679688 205.503906 L 107.476562 205.503906 L 107.476562 210.613281 L 73.679688 210.613281 Z M 73.679688 205.503906 " clip-rule="nonzero"/></clipPath><clipPath id="c003f86f57"><path d="M 107.476562 205.503906 L 73.738281 208.039062 L 107.476562 210.570312 L 107.476562 205.503906 " clip-rule="nonzero"/></clipPath></defs><rect x="-37.5" width="450" fill="#ffffff" y="-37.499999" height="449.999989" fill-opacity="1"/><rect x="-37.5" width="450" fill="#ffffff" y="-37.499999" height="449.999989" fill-opacity="1"/><rect x="-37.5" width="450" fill="#00c4cc" y="-37.499999" height="449.999989" fill-opacity="1"/><g clip-path="url(#9c143469a1)"><path fill="url(#d564ccc844)" d="M 37.5 0 L 37.5 375 L 375 375 L 375 0 Z M 37.5 0 " fill-rule="nonzero"/></g><g clip-path="url(#5efe36bd01)"><path fill="#00c4cc" d="M 251.785156 132.90625 L 293.1875 132.90625 L 275.667969 165.707031 L 297.167969 165.707031 L 245.148438 244.648438 L 258.949219 186.507812 L 232.675781 186.507812 L 251.785156 132.90625 " fill-opacity="1" fill-rule="nonzero"/></g><g clip-path="url(#7bc3843e72)"><g clip-path="url(#a628cdd74f)"><path fill="#ffffff" d="M 122.097656 155.121094 L 122.097656 160.152344 L 88.378906 160.152344 L 88.378906 155.121094 Z M 122.097656 155.121094 " fill-opacity="1" fill-rule="nonzero"/></g></g><path stroke-linecap="butt" transform="matrix(0.75, 0, 0, 0.75, 117.755855, 134.652882)" fill="none" stroke-linejoin="miter" d="M 12.507819 21.134701 L 36.429696 21.134701 C 40.252612 21.134701 43.007821 21.994076 44.690113 23.723243 C 46.382821 25.436785 47.23178 27.848243 47.23178 30.962827 C 47.23178 34.072202 46.690113 38.051369 45.596363 42.889911 C 44.575529 47.301369 43.205738 50.749286 41.476571 53.228453 C 39.752612 55.691995 37.346362 57.410745 34.263029 58.384703 C 36.507821 58.869078 37.945321 60.05137 38.580737 61.92637 C 39.216154 63.80137 39.169279 66.337829 38.445321 69.540954 L 31.450529 98.999289 L 16.226569 98.999289 L 23.19532 68.546162 C 23.742195 66.358662 23.653653 64.968037 22.929695 64.358662 C 22.205736 63.754495 20.726569 63.452412 18.481778 63.452412 L 10.335944 98.999289 L -5.445307 98.999289 Z M 25.47657 49.952411 C 27.643237 49.952411 29.273445 47.598244 30.367195 42.889911 C 30.856778 40.827411 31.111987 39.280536 31.143237 38.26491 C 31.169278 37.23366 30.986987 36.525327 30.591153 36.13991 C 30.205737 35.744077 29.554695 35.540952 28.643237 35.540952 L 25.013028 35.540952 L 21.75782 49.952411 Z M 57.382822 99.728456 C 51.70053 99.728456 47.559905 97.947206 44.966154 94.374289 C 42.367196 90.801372 41.789071 85.910747 43.236988 79.697205 L 51.492196 43.796161 C 53.309905 36.051369 56.205738 30.218035 60.190114 26.290951 C 64.174489 22.363868 69.466156 20.400326 76.059906 20.400326 C 81.79949 20.400326 86.059907 21.973243 88.830741 25.119076 C 91.622407 28.259701 92.320324 32.790952 90.934907 38.707619 L 87.835949 52.119078 L 72.341156 52.119078 L 75.065115 40.608661 C 75.554698 38.384702 75.627615 36.848244 75.289073 36.009702 C 74.960948 35.150327 74.127615 34.723244 72.783865 34.723244 C 71.398448 34.723244 70.330739 35.212827 69.575531 36.186785 C 68.825531 37.145119 68.231781 38.561785 67.804698 40.431577 L 58.752614 79.499288 C 58.32553 81.566997 58.289072 83.072205 58.643239 84.014913 C 59.01303 84.947205 59.799489 85.410747 61.01303 85.410747 C 63.429697 85.410747 65.091156 83.441997 65.992197 79.499288 L 69.268239 65.447204 L 84.934907 65.447204 L 81.596365 80.139913 C 78.570323 93.202414 70.497406 99.728456 57.382822 99.728456 Z M 81.950532 98.999289 L 107.4297 21.134701 L 133.80991 21.134701 L 123.299493 98.999289 L 108.513034 98.999289 L 110.330742 86.405539 L 100.89845 86.405539 L 97.091158 98.999289 Z M 104.971367 73.988871 L 112.0547 73.988871 L 117.674493 34.369077 L 116.945326 34.369077 Z M 147.960953 99.728456 C 140.877619 99.728456 136.179702 97.983664 133.861994 94.483664 C 131.52866 90.973247 131.273452 85.311789 133.085952 77.509705 L 134.815119 69.895121 L 150.12762 69.895121 L 147.851578 79.58783 C 146.950536 83.468038 147.736994 85.410747 150.216161 85.410747 C 151.606786 85.410747 152.674495 85.004497 153.429703 84.191997 C 154.195328 83.363872 154.78387 81.988872 155.200537 80.051372 C 155.804703 77.514913 155.981787 75.421163 155.731787 73.764913 C 155.492203 72.098246 155.044287 70.707621 154.37762 69.582621 C 153.716162 68.462829 152.445328 66.723246 150.570328 64.358662 L 145.414078 57.655537 C 141.429702 52.577411 140.132827 46.957619 141.518244 40.785744 C 143.023453 34.150327 145.710953 29.093035 149.575536 25.624285 C 153.44012 22.145118 158.309912 20.400326 164.184912 20.400326 C 171.195329 20.400326 175.809913 22.259701 178.03908 25.978451 C 180.283872 29.697202 180.466163 35.51491 178.591163 43.421161 L 162.72137 43.421161 L 163.898454 38.066994 C 164.148454 37.04616 164.059912 36.23366 163.632829 35.629494 C 163.200537 35.025327 162.481787 34.723244 161.460954 34.723244 C 160.25262 34.723244 159.247412 35.056577 158.450537 35.718035 C 157.669287 36.384702 157.15887 37.290952 156.924495 38.441994 C 156.320328 40.978452 157.169287 43.608661 159.47137 46.322203 L 166.528662 55.02012 C 168.169287 57.087828 169.466163 59.040953 170.424496 60.884704 C 171.398454 62.728454 172.018246 64.905537 172.283871 67.415954 C 172.565121 69.921163 172.309913 72.895121 171.513038 76.332621 C 169.710954 84.009705 166.950537 89.827414 163.231787 93.796164 C 159.513037 97.754498 154.424495 99.728456 147.960953 99.728456 Z M 173.059913 98.999289 L 191.007831 21.134701 L 206.523457 21.134701 L 200.085956 48.957619 L 207.429707 48.957619 L 213.851582 21.134701 L 229.367208 21.134701 L 211.414082 98.999289 L 195.898456 98.999289 L 204.065123 63.650329 L 196.721373 63.650329 L 188.575539 98.999289 Z M 173.059913 98.999289 " stroke="#ffffff" stroke-width="3.400005" stroke-opacity="1" stroke-miterlimit="4"/><g clip-path="url(#5dff4c10c1)"><g clip-path="url(#7c421c27b6)"><path fill="#ffffff" d="M 119.730469 163.515625 L 119.730469 168.546875 L 78.542969 168.546875 L 78.542969 163.515625 Z M 119.730469 163.515625 " fill-opacity="1" fill-rule="nonzero"/></g></g><g clip-path="url(#47798f307b)"><g clip-path="url(#a8c972bc40)"><path fill="#ffffff" d="M 117.183594 171.914062 L 117.183594 176.945312 L 69.316406 176.945312 L 69.316406 171.914062 Z M 117.183594 171.914062 " fill-opacity="1" fill-rule="nonzero"/></g></g><g clip-path="url(#0342634609)"><g clip-path="url(#6ed54a553d)"><path fill="#ffffff" d="M 114.730469 180.3125 L 114.730469 185.34375 L 54.835938 185.34375 L 54.835938 180.3125 Z M 114.730469 180.3125 " fill-opacity="1" fill-rule="nonzero"/></g></g><g clip-path="url(#b291ed90d1)"><g clip-path="url(#76d27ccecc)"><path fill="#ffffff" d="M 112.273438 188.707031 L 112.273438 193.738281 L 66.761719 193.738281 L 66.761719 188.707031 Z M 112.273438 188.707031 " fill-opacity="1" fill-rule="nonzero"/></g></g><g clip-path="url(#1a4b98e720)"><g clip-path="url(#aaa0cc391c)"><path fill="#ffffff" d="M 109.820312 197.109375 L 109.820312 202.140625 L 69.261719 202.140625 L 69.261719 197.109375 Z M 109.820312 197.109375 " fill-opacity="1" fill-rule="nonzero"/></g></g><g clip-path="url(#a25950dd3a)"><g clip-path="url(#c003f86f57)"><path fill="#ffffff" d="M 107.476562 205.503906 L 107.476562 210.535156 L 73.757812 210.535156 L 73.757812 205.503906 Z M 107.476562 205.503906 " fill-opacity="1" fill-rule="nonzero"/></g></g><g fill="#ffd600" fill-opacity="1"><g transform="translate(112.277421, 226.855005)"><g><path d="M 0.25 0 L 1.9375 -10.15625 L 4.078125 -10.15625 L 2.6875 -1.765625 L 7.046875 -1.765625 L 6.75 0 Z M 0.25 0 "/></g></g></g><g fill="#ffd600" fill-opacity="1"><g transform="translate(120.204262, 226.855005)"><g><path d="M 2 0 L -0.296875 0 L 4.890625 -10.15625 L 7.65625 -10.15625 L 9.46875 0 L 7.171875 0 L 6.8125 -2.3125 L 3.140625 -2.3125 Z M 3.96875 -4 L 6.546875 -4 L 5.9375 -7.84375 L 5.859375 -7.84375 Z M 3.96875 -4 "/></g></g></g><g fill="#ffd600" fill-opacity="1"><g transform="translate(130.651024, 226.855005)"><g><path d="M 1.34375 -10.15625 L 3.75 -10.15625 L 5.34375 -5.78125 L 5.453125 -5.78125 L 8.484375 -10.15625 L 10.890625 -10.15625 L 6.09375 -3.59375 L 5.484375 0 L 3.359375 0 L 3.953125 -3.59375 Z M 1.34375 -10.15625 "/></g></g></g><g fill="#ffd600" fill-opacity="1"><g transform="translate(140.770393, 226.855005)"><g><path d="M 2 0 L -0.296875 0 L 4.890625 -10.15625 L 7.65625 -10.15625 L 9.46875 0 L 7.171875 0 L 6.8125 -2.3125 L 3.140625 -2.3125 Z M 3.96875 -4 L 6.546875 -4 L 5.9375 -7.84375 L 5.859375 -7.84375 Z M 3.96875 -4 "/></g></g></g><g fill="#ffd600" fill-opacity="1"><g transform="translate(151.217154, 226.855005)"><g><path d="M 10.4375 -10.15625 L 8.75 0 L 6.890625 0 L 3.546875 -6.390625 L 3.46875 -6.390625 L 2.390625 0 L 0.25 0 L 1.9375 -10.15625 L 3.8125 -10.15625 L 7.15625 -3.765625 L 7.234375 -3.765625 L 8.296875 -10.15625 Z M 10.4375 -10.15625 "/></g></g></g><g fill="#ffd600" fill-opacity="1"><g transform="translate(161.485342, 226.855005)"><g><path d="M 2 0 L -0.296875 0 L 4.890625 -10.15625 L 7.65625 -10.15625 L 9.46875 0 L 7.171875 0 L 6.8125 -2.3125 L 3.140625 -2.3125 Z M 3.96875 -4 L 6.546875 -4 L 5.9375 -7.84375 L 5.859375 -7.84375 Z M 3.96875 -4 "/></g></g></g><g fill="#ffd600" fill-opacity="1"><g transform="translate(171.932103, 226.855005)"><g><path d="M 10.4375 -10.15625 L 8.75 0 L 6.890625 0 L 3.546875 -6.390625 L 3.46875 -6.390625 L 2.390625 0 L 0.25 0 L 1.9375 -10.15625 L 3.8125 -10.15625 L 7.15625 -3.765625 L 7.234375 -3.765625 L 8.296875 -10.15625 Z M 10.4375 -10.15625 "/></g></g></g><g fill="#ffd600" fill-opacity="1"><g transform="translate(182.200291, 226.855005)"><g/></g></g><g fill="#ffd600" fill-opacity="1"><g transform="translate(185.439484, 226.855005)"><g><path d="M 6.953125 -7.203125 C 6.960938 -7.617188 6.835938 -7.9375 6.578125 -8.15625 C 6.328125 -8.382812 5.945312 -8.5 5.4375 -8.5 C 4.90625 -8.5 4.484375 -8.390625 4.171875 -8.171875 C 3.859375 -7.960938 3.671875 -7.691406 3.609375 -7.359375 C 3.535156 -7.003906 3.644531 -6.726562 3.9375 -6.53125 C 4.238281 -6.34375 4.597656 -6.203125 5.015625 -6.109375 L 5.890625 -5.890625 C 6.453125 -5.753906 6.941406 -5.5625 7.359375 -5.3125 C 7.773438 -5.0625 8.082031 -4.738281 8.28125 -4.34375 C 8.476562 -3.945312 8.53125 -3.46875 8.4375 -2.90625 C 8.28125 -1.976562 7.8125 -1.238281 7.03125 -0.6875 C 6.25 -0.132812 5.238281 0.140625 4 0.140625 C 2.769531 0.140625 1.832031 -0.140625 1.1875 -0.703125 C 0.539062 -1.265625 0.296875 -2.09375 0.453125 -3.1875 L 2.53125 -3.1875 C 2.476562 -2.675781 2.613281 -2.289062 2.9375 -2.03125 C 3.257812 -1.78125 3.703125 -1.65625 4.265625 -1.65625 C 4.816406 -1.65625 5.273438 -1.769531 5.640625 -2 C 6.003906 -2.226562 6.210938 -2.53125 6.265625 -2.90625 C 6.328125 -3.25 6.222656 -3.515625 5.953125 -3.703125 C 5.679688 -3.890625 5.28125 -4.046875 4.75 -4.171875 L 3.6875 -4.453125 C 2.875 -4.660156 2.253906 -4.984375 1.828125 -5.421875 C 1.410156 -5.867188 1.257812 -6.46875 1.375 -7.21875 C 1.476562 -7.84375 1.734375 -8.382812 2.140625 -8.84375 C 2.554688 -9.300781 3.078125 -9.65625 3.703125 -9.90625 C 4.328125 -10.164062 5.007812 -10.296875 5.75 -10.296875 C 6.5 -10.296875 7.132812 -10.164062 7.65625 -9.90625 C 8.175781 -9.644531 8.550781 -9.28125 8.78125 -8.8125 C 9.019531 -8.351562 9.097656 -7.816406 9.015625 -7.203125 Z M 6.953125 -7.203125 "/></g></g></g><g fill="#ffd600" fill-opacity="1"><g transform="translate(194.586608, 226.855005)"><g><path d="M 1.9375 -10.15625 L 4.578125 -10.15625 L 6.25 -3.328125 L 6.375 -3.328125 L 10.296875 -10.15625 L 12.953125 -10.15625 L 11.265625 0 L 9.171875 0 L 10.28125 -6.609375 L 10.1875 -6.609375 L 6.484375 -0.046875 L 5.0625 -0.046875 L 3.53125 -6.640625 L 3.4375 -6.640625 L 2.328125 0 L 0.25 0 Z M 1.9375 -10.15625 "/></g></g></g><g fill="#ffd600" fill-opacity="1"><g transform="translate(207.364794, 226.855005)"><g><path d="M 1.9375 -10.15625 L 4.578125 -10.15625 L 6.25 -3.328125 L 6.375 -3.328125 L 10.296875 -10.15625 L 12.953125 -10.15625 L 11.265625 0 L 9.171875 0 L 10.28125 -6.609375 L 10.1875 -6.609375 L 6.484375 -0.046875 L 5.0625 -0.046875 L 3.53125 -6.640625 L 3.4375 -6.640625 L 2.328125 0 L 0.25 0 Z M 1.9375 -10.15625 "/></g></g></g><g fill="#ffd600" fill-opacity="1"><g transform="translate(220.14298, 226.855005)"><g/></g></g><g fill="#ffd600" fill-opacity="1"><g transform="translate(223.382173, 226.855005)"><g><path d="M 3.296875 0.15625 C 2.597656 0.15625 2.015625 0.03125 1.546875 -0.21875 C 1.085938 -0.476562 0.753906 -0.820312 0.546875 -1.25 C 0.347656 -1.6875 0.289062 -2.171875 0.375 -2.703125 C 0.46875 -3.296875 0.71875 -3.789062 1.125 -4.1875 C 1.539062 -4.582031 2.054688 -4.972656 2.671875 -5.359375 C 2.460938 -5.691406 2.296875 -6.050781 2.171875 -6.4375 C 2.046875 -6.820312 2.019531 -7.238281 2.09375 -7.6875 C 2.175781 -8.175781 2.363281 -8.617188 2.65625 -9.015625 C 2.945312 -9.410156 3.316406 -9.722656 3.765625 -9.953125 C 4.222656 -10.179688 4.726562 -10.296875 5.28125 -10.296875 C 5.832031 -10.296875 6.285156 -10.1875 6.640625 -9.96875 C 7.003906 -9.75 7.257812 -9.457031 7.40625 -9.09375 C 7.5625 -8.726562 7.601562 -8.328125 7.53125 -7.890625 C 7.457031 -7.410156 7.269531 -6.976562 6.96875 -6.59375 C 6.664062 -6.207031 6.273438 -5.859375 5.796875 -5.546875 L 5.125 -5.125 L 6.484375 -3.203125 C 6.660156 -3.453125 6.8125 -3.722656 6.9375 -4.015625 C 7.0625 -4.304688 7.148438 -4.617188 7.203125 -4.953125 L 8.953125 -4.953125 C 8.847656 -4.253906 8.664062 -3.640625 8.40625 -3.109375 C 8.15625 -2.578125 7.859375 -2.117188 7.515625 -1.734375 L 8.734375 0 L 6.53125 0 L 6.03125 -0.6875 C 5.625 -0.394531 5.175781 -0.179688 4.6875 -0.046875 C 4.207031 0.0859375 3.742188 0.15625 3.296875 0.15625 Z M 5.109375 -1.953125 L 3.546875 -4.109375 L 3.46875 -4.0625 C 2.851562 -3.644531 2.507812 -3.226562 2.4375 -2.8125 C 2.382812 -2.457031 2.46875 -2.15625 2.6875 -1.90625 C 2.914062 -1.664062 3.253906 -1.546875 3.703125 -1.546875 C 4.160156 -1.546875 4.628906 -1.679688 5.109375 -1.953125 Z M 4.3125 -6.328125 L 4.90625 -6.671875 C 5.4375 -6.984375 5.738281 -7.351562 5.8125 -7.78125 C 5.851562 -7.976562 5.804688 -8.160156 5.671875 -8.328125 C 5.535156 -8.503906 5.316406 -8.59375 5.015625 -8.59375 C 4.722656 -8.59375 4.46875 -8.5 4.25 -8.3125 C 4.039062 -8.132812 3.914062 -7.914062 3.875 -7.65625 C 3.84375 -7.4375 3.867188 -7.21875 3.953125 -7 C 4.046875 -6.789062 4.164062 -6.566406 4.3125 -6.328125 Z M 4.3125 -6.328125 "/></g></g></g><g fill="#ffd600" fill-opacity="1"><g transform="translate(232.797158, 226.855005)"><g/></g></g><g fill="#ffd600" fill-opacity="1"><g transform="translate(236.03635, 226.855005)"><g><path d="M 0.25 0 L 1.9375 -10.15625 L 5.9375 -10.15625 C 6.707031 -10.15625 7.335938 -10.007812 7.828125 -9.71875 C 8.328125 -9.425781 8.675781 -9.019531 8.875 -8.5 C 9.082031 -7.988281 9.128906 -7.394531 9.015625 -6.71875 C 8.898438 -6.039062 8.65625 -5.441406 8.28125 -4.921875 C 7.90625 -4.410156 7.414062 -4.007812 6.8125 -3.71875 C 6.21875 -3.4375 5.53125 -3.296875 4.75 -3.296875 L 2.953125 -3.296875 L 2.390625 0 Z M 3.234375 -5.015625 L 4.6875 -5.015625 C 5.300781 -5.015625 5.785156 -5.171875 6.140625 -5.484375 C 6.492188 -5.804688 6.710938 -6.21875 6.796875 -6.71875 C 6.878906 -7.226562 6.796875 -7.632812 6.546875 -7.9375 C 6.304688 -8.25 5.875 -8.40625 5.25 -8.40625 L 3.796875 -8.40625 Z M 3.234375 -5.015625 "/></g></g></g><g fill="#ffd600" fill-opacity="1"><g transform="translate(245.074344, 226.855005)"><g><path d="M 0.25 0 L 1.9375 -10.15625 L 5.9375 -10.15625 C 6.707031 -10.15625 7.335938 -10.007812 7.828125 -9.71875 C 8.328125 -9.425781 8.675781 -9.019531 8.875 -8.5 C 9.082031 -7.988281 9.128906 -7.394531 9.015625 -6.71875 C 8.898438 -6.039062 8.65625 -5.441406 8.28125 -4.921875 C 7.90625 -4.410156 7.414062 -4.007812 6.8125 -3.71875 C 6.21875 -3.4375 5.53125 -3.296875 4.75 -3.296875 L 2.953125 -3.296875 L 2.390625 0 Z M 3.234375 -5.015625 L 4.6875 -5.015625 C 5.300781 -5.015625 5.785156 -5.171875 6.140625 -5.484375 C 6.492188 -5.804688 6.710938 -6.21875 6.796875 -6.71875 C 6.878906 -7.226562 6.796875 -7.632812 6.546875 -7.9375 C 6.304688 -8.25 5.875 -8.40625 5.25 -8.40625 L 3.796875 -8.40625 Z M 3.234375 -5.015625 "/></g></g></g><g fill="#ffd600" fill-opacity="1"><g transform="translate(254.112338, 226.855005)"><g><path d="M 10.40625 -4.9375 C 10.226562 -3.851562 9.867188 -2.929688 9.328125 -2.171875 C 8.796875 -1.421875 8.148438 -0.847656 7.390625 -0.453125 C 6.628906 -0.0546875 5.8125 0.140625 4.9375 0.140625 C 4.007812 0.140625 3.210938 -0.0664062 2.546875 -0.484375 C 1.878906 -0.910156 1.394531 -1.519531 1.09375 -2.3125 C 0.800781 -3.101562 0.75 -4.0625 0.9375 -5.1875 C 1.113281 -6.28125 1.46875 -7.207031 2 -7.96875 C 2.53125 -8.726562 3.175781 -9.304688 3.9375 -9.703125 C 4.707031 -10.097656 5.535156 -10.296875 6.421875 -10.296875 C 7.335938 -10.296875 8.128906 -10.082031 8.796875 -9.65625 C 9.460938 -9.238281 9.941406 -8.628906 10.234375 -7.828125 C 10.535156 -7.023438 10.59375 -6.0625 10.40625 -4.9375 Z M 8.265625 -5.1875 C 8.441406 -6.238281 8.351562 -7.035156 8 -7.578125 C 7.644531 -8.117188 7.09375 -8.390625 6.34375 -8.390625 C 5.519531 -8.390625 4.8125 -8.085938 4.21875 -7.484375 C 3.625 -6.890625 3.238281 -6.039062 3.0625 -4.9375 C 2.882812 -3.894531 2.976562 -3.101562 3.34375 -2.5625 C 3.707031 -2.03125 4.265625 -1.765625 5.015625 -1.765625 C 5.816406 -1.765625 6.515625 -2.0625 7.109375 -2.65625 C 7.703125 -3.25 8.085938 -4.09375 8.265625 -5.1875 Z M 8.265625 -5.1875 "/></g></g></g><g fill="#ffd600" fill-opacity="1"><g transform="translate(265.035311, 226.855005)"><g><path d="M 0.25 0 L 1.9375 -10.15625 L 6 -10.15625 C 7.125 -10.15625 7.925781 -9.910156 8.40625 -9.421875 C 8.894531 -8.941406 9.070312 -8.320312 8.9375 -7.5625 C 8.84375 -6.957031 8.585938 -6.46875 8.171875 -6.09375 C 7.765625 -5.726562 7.289062 -5.488281 6.75 -5.375 L 6.71875 -5.265625 C 7.101562 -5.253906 7.445312 -5.144531 7.75 -4.9375 C 8.0625 -4.738281 8.296875 -4.457031 8.453125 -4.09375 C 8.609375 -3.738281 8.644531 -3.3125 8.5625 -2.8125 C 8.46875 -2.269531 8.25 -1.785156 7.90625 -1.359375 C 7.570312 -0.941406 7.125 -0.609375 6.5625 -0.359375 C 6.007812 -0.117188 5.351562 0 4.59375 0 Z M 2.6875 -1.75 L 4.4375 -1.75 C 5.039062 -1.75 5.5 -1.863281 5.8125 -2.09375 C 6.125 -2.332031 6.3125 -2.640625 6.375 -3.015625 C 6.4375 -3.441406 6.34375 -3.785156 6.09375 -4.046875 C 5.84375 -4.316406 5.457031 -4.453125 4.9375 -4.453125 L 3.140625 -4.453125 Z M 3.390625 -5.90625 L 4.96875 -5.90625 C 5.40625 -5.90625 5.789062 -6.019531 6.125 -6.25 C 6.457031 -6.476562 6.65625 -6.796875 6.71875 -7.203125 C 6.78125 -7.566406 6.695312 -7.859375 6.46875 -8.078125 C 6.25 -8.304688 5.898438 -8.421875 5.421875 -8.421875 L 3.796875 -8.421875 Z M 3.390625 -5.90625 "/></g></g></g></svg>