<svg height="512pt" viewBox="0 0 512.002 512" width="512pt" xmlns="http://www.w3.org/2000/svg"><path d="m342.96875 0h-173.9375c-18.792969 0-34.023438 15.234375-34.023438 34.023438v99.800781c0 18.789062 15.230469 34.023437 34.023438 34.023437h25.804688v35.871094c0 5.660156 6.84375 8.496094 10.84375 4.492188l40.363281-40.363282h96.925781c18.789062 0 34.023438-15.234375 34.023438-34.023437v-99.800781c0-18.789063-15.230469-34.023438-34.023438-34.023438zm0 0" fill="#69ebfc"/><path d="m169.03125 0h173.9375c18.792969 0 34.023438 15.234375 34.023438 34.023438v14.226562c0-18.792969-15.230469-34.023438-34.023438-34.023438h-173.9375c-18.792969 0-34.023438 15.230469-34.023438 34.023438v-14.226562c0-18.789063 15.230469-34.023438 34.023438-34.023438zm0 0" fill="#a1f1fc"/><path d="m251.027344 130.734375c-6.238282-.914063-11.789063-3.324219-16.65625-7.238281-2.839844-2.28125-5.203125-5.140625-7.089844-8.582032-2.292969-4.171874-.503906-9.421874 3.90625-11.222656 3.503906-1.433594 7.609375-.214844 9.566406 3.027344.628906 1.039062 1.351563 2.035156 2.167969 2.984375 2.242187 2.621094 4.941406 4.433594 8.105469 5.425781v-23.703125l-1.117188-.503906c-3.074218-1.160156-5.96875-2.53125-8.671875-4.117187-2.703125-1.574219-5.078125-3.410157-7.109375-5.488282-2.050781-2.078125-3.671875-4.425781-4.871094-7.050781-1.210937-2.621094-1.816406-5.550781-1.816406-8.796875 0-2.992188.542969-5.820312 1.621094-8.488281 1.089844-2.65625 2.640625-5.035157 4.691406-7.109375 2.035156-2.078125 4.503906-3.808594 7.425782-5.179688 2.90625-1.371094 6.1875-2.265625 9.847656-2.683594v-5.175781c0-3.070312 2.484375-5.554687 5.550781-5.554687 3.070313 0 5.554687 2.484375 5.554687 5.554687v5.425781c3.332032.496094 6.226563 1.375 8.675782 2.621094 2.460937 1.25 4.558594 2.703125 6.371094 4.304688.695312.617187 1.371093 1.351562 2.003906 2.148437 3.152344 3.945313 1.550781 9.84375-3.058594 11.902344-3.160156 1.410156-6.800781.523437-9.128906-2.039063-1.21875-1.34375-2.824219-2.664062-4.863282-3.59375v22.339844c3.585938 1.5 6.820313 3.039063 9.742188 4.621094 2.90625 1.582031 5.402344 3.367188 7.484375 5.367188 2.085937 1.992187 3.660156 4.261718 4.738281 6.796874 1.089844 2.542969 1.621094 5.472657 1.621094 8.796876 0 3.746093-.640625 7.074218-1.925781 9.984374-1.296875 2.914063-3.015625 5.40625-5.183594 7.484376-2.167969 2.085937-4.675781 3.75-7.546875 4.996093-2.867188 1.246094-5.847656 2.121094-8.925781 2.617188v5.425781c0 3.066406-2.488281 5.554688-5.554688 5.554688-3.066406 0-5.554687-2.488282-5.554687-5.554688zm-8.226563-65.269531c0 2 .644531 3.722656 1.925781 5.179687 1.296876 1.457031 3.394532 2.9375 6.300782 4.433594v-18.222656c-2.496094.667969-4.480469 1.746093-5.984375 3.242187-1.503907 1.503906-2.242188 3.289063-2.242188 5.367188zm26.953125 40.1875c0-2.160156-.582031-3.957032-1.757812-5.367188-1.160156-1.417968-3.113282-2.824218-5.863282-4.246094v19.09375c2.253907-.742187 4.082032-1.933593 5.5-3.554687 1.40625-1.625 2.121094-3.597656 2.121094-5.925781zm0 0" fill="#6770e6"/><path d="m279.464844 437.460938-11.066406 12.640624c-9.515626 10.875-9.394532 27.148438.285156 37.882813l3.285156 3.644531c4.222656 4.683594 11.347656 5.304688 16.324219 1.429688l22.304687-17.386719c10.457032-8.148437 16.566406-20.667969 16.566406-33.925781v-4.285156zm0 0" fill="#edd4c2"/><path d="m240.316406 437.460938-9.832031 10.984374c-8.453125 9.453126-8.347656 23.59375.25 32.917969l2.921875 3.167969c3.753906 4.070312 10.082031 4.613281 14.503906 1.242188l19.816406-15.105469c9.289063-7.085938 14.722657-17.960938 14.722657-29.484375v-3.722656zm0 0" fill="#edd4c2"/><path d="m107.015625 339.257812 87.910156-55.027343c31.859375-19.941407 73.4375-14.101563 98.570313 13.839843l59.722656 66.394532c3.726562 4.140625 5.789062 9.519531 5.789062 15.089844v62.191406c0 13.257812-6.113281 25.777344-16.570312 33.925781l-22.304688 17.386719c-4.972656 3.875-12.097656 3.25-16.324218-1.429688l-3.285156-3.644531c-9.675782-10.734375-9.800782-27.007813-.28125-37.882813l11.0625-12.640624v-41.375l-16.46875-16.945313c-17.105469-17.597656-44.164063-20.882813-64.976563-7.886719l-56.234375 35.113282zm0 0" fill="#ffefe4"/><path d="m311.414062 437.460938-11.0625 12.640624c-9.515624 10.875-9.394531 27.148438.28125 37.882813l3.289063 3.644531c4.222656 4.683594 11.347656 5.304688 16.320313 1.429688l22.304687-17.386719c10.460937-8.148437 16.570313-20.667969 16.570313-33.925781v-4.285156zm0 0" fill="#edd4c2"/><path d="m481.238281 437.460938h-256.519531c-16.988281 0-30.761719-13.773438-30.761719-30.761719v-147.671875c0-16.988282 13.773438-30.761719 30.761719-30.761719h256.519531c16.988281 0 30.765625 13.769531 30.765625 30.761719v147.671875c-.003906 16.988281-13.777344 30.761719-30.765625 30.761719zm0 0" fill="#6770e6"/><path d="m481.238281 228.265625h-256.519531c-16.988281 0-30.761719 13.773437-30.761719 30.761719v11.730468c0-16.988281 13.773438-30.761718 30.761719-30.761718h256.519531c16.988281 0 30.765625 13.773437 30.765625 30.761718v-11.730468c-.003906-16.988282-13.777344-30.761719-30.765625-30.761719zm0 0" fill="#8f95e6"/><g fill="#69ebfc"><path d="m249.636719 264.105469c-.867188 0-1.601563.734375-1.601563 1.605469v31.097656c0 .867187.734375 1.601562 1.601563 1.601562h15.035156c.867187 0 1.601563-.734375 1.601563-1.601562v-31.097656c0-.867188-.734376-1.605469-1.601563-1.605469zm0 0"/><path d="m229.402344 272.636719h12.5625v17.246093h-12.5625zm0 0"/><path d="m272.34375 272.636719h12.5625v17.246093h-12.5625zm0 0"/><path d="m272.34375 295.949219v.859375c0 4.226562-3.445312 7.671875-7.671875 7.671875h-15.035156c-4.230469 0-7.671875-3.445313-7.671875-7.671875v-.859375h-12.5625v4.664062c0 6.714844 5.445312 12.160157 12.160156 12.160157h31.183594c6.71875 0 12.160156-5.445313 12.160156-12.160157v-4.664062zm0 0"/><path d="m272.746094 249.742188h-31.1875c-6.714844 0-12.160156 5.445312-12.160156 12.160156v4.664062h12.566406v-.855468c0-4.230469 3.4375-7.675782 7.667968-7.675782h15.035157c4.230469 0 7.671875 3.445313 7.671875 7.675782v.855468h12.5625v-4.664062c.003906-6.714844-5.441406-12.160156-12.15625-12.160156zm0 0"/></g><path d="m275.179688 348.984375h-36.050782c-5.351562 0-9.726562-4.378906-9.726562-9.726563 0-5.351562 4.375-9.726562 9.726562-9.726562h36.050782c5.351562 0 9.726562 4.375 9.726562 9.726562 0 5.347657-4.375 9.726563-9.726562 9.726563zm0 0" fill="#8f95e6"/><path d="m308.019531 400.589844h-68.890625c-5.351562 0-9.726562-4.375-9.726562-9.726563 0-5.351562 4.375-9.726562 9.726562-9.726562h68.890625c5.347657 0 9.722657 4.375 9.722657 9.726562 0 5.351563-4.375 9.726563-9.722657 9.726563zm0 0" fill="#8f95e6"/><path d="m339.0625 348.984375h-36.050781c-5.351563 0-9.726563-4.378906-9.726563-9.726563 0-5.351562 4.375-9.726562 9.726563-9.726562h36.050781c5.351562 0 9.726562 4.375 9.726562 9.726562 0 5.347657-4.378906 9.726563-9.726562 9.726563zm0 0" fill="#8f95e6"/><path d="m402.949219 348.984375h-36.054688c-5.347656 0-9.722656-4.378906-9.722656-9.726563 0-5.351562 4.375-9.726562 9.722656-9.726562h36.054688c5.347656 0 9.726562 4.375 9.726562 9.726562 0 5.347657-4.378906 9.726563-9.726562 9.726563zm0 0" fill="#8f95e6"/><path d="m466.828125 348.984375h-36.050781c-5.347656 0-9.726563-4.378906-9.726563-9.726563 0-5.351562 4.378907-9.726562 9.726563-9.726562h36.050781c5.351563 0 9.726563 4.375 9.726563 9.726562 0 5.347657-4.375 9.726563-9.726563 9.726563zm0 0" fill="#8f95e6"/><path d="m446.140625 390.863281c0 13.875-11.25 25.121094-25.121094 25.121094-13.875 0-25.125-11.246094-25.125-25.121094s11.25-25.121093 25.125-25.121093c13.871094 0 25.121094 11.246093 25.121094 25.121093zm0 0" fill="#ff8354"/><path d="m476.554688 390.863281c0 13.875-11.246094 25.121094-25.121094 25.121094s-25.121094-11.246094-25.121094-25.121094 11.246094-25.121093 25.121094-25.121093 25.121094 11.246093 25.121094 25.121093zm0 0" fill="#69ebfc"/><path d="m426.3125 390.863281c0 8.148438 3.898438 15.375 9.914062 19.964844 6.015626-4.589844 9.914063-11.8125 9.914063-19.964844 0-8.148437-3.898437-15.375-9.914063-19.964843-6.015624 4.59375-9.914062 11.816406-9.914062 19.964843zm0 0" fill="#d476e2"/><path d="m345.640625 370.902344h-142.476563l-96.148437-31.644532h-24.003906v134.222657h74.710937c24.226563 0 47.75-8.152344 66.777344-23.148438l18.875-14.875c8.925781-7.035156 19.960938-10.859375 31.324219-10.859375h70.941406c14.828125 0 26.847656-12.019531 26.847656-26.847656 0-14.832031-12.019531-26.847656-26.847656-26.847656zm0 0" fill="#ffefe4"/><path d="m345.640625 412.863281h-70.941406c-11.363281 0-22.398438 3.828125-31.324219 10.863281l-18.875 14.871094c-19.027344 14.996094-42.546875 23.152344-66.777344 23.152344h-74.710937v11.730469h74.710937c24.226563 0 47.75-8.15625 66.777344-23.152344l18.875-14.875c8.925781-7.03125 19.960938-10.859375 31.324219-10.859375h70.941406c14.828125 0 26.847656-12.019531 26.847656-26.847656 0-2.015625-.238281-3.976563-.660156-5.863282-2.679687 12.003907-13.375 20.980469-26.1875 20.980469zm0 0" fill="#edd4c2"/><path d="m61.859375 332.492188h45.15625v147.75h-45.15625zm0 0" fill="#69ebfc"/><path d="m61.859375 463.828125h45.15625v16.417969h-45.15625zm0 0" fill="#5fd4e3"/><path d="m61.859375 512h-61.859375v-211.265625h61.859375zm0 0" fill="#6770e6"/><path d="m0 495.585938h61.859375v16.414062h-61.859375zm0 0" fill="#5861c7"/></svg>