<svg enable-background="new 0 0 256 256" height="512" viewBox="0 0 256 256" width="512" xmlns="http://www.w3.org/2000/svg"><path d="m188.36 125.435c3.028-3.028 7.937-3.028 10.964 0l9.151 9.151v-16.319c-20.431 0-130.376 0-135.936 0-2.422 0-4.385-1.963-4.385-4.385v16.434c0 2.422 1.964 4.385 4.385 4.385h114.541c-1.653-2.953-1.231-6.756 1.28-9.266z" fill="#66bc24"/><path d="m208.476 101.833c-20.431 0-130.376 0-135.936 0-2.422 0-4.385-1.963-4.385-4.385v16.434c0 2.422 1.964 4.385 4.385 4.385h135.936z" fill="#66bc24"/><path d="m208.476 95.072c0-4.171 3.296-7.563 7.425-7.737 0-20.342 0-61.203 0-69.266 0-2.422-1.963-4.385-4.385-4.385-15.291 0-121.336 0-138.975 0-2.422 0-4.385 1.963-4.385 4.385v79.377c0 2.422 1.963 4.385 4.385 4.385h135.936v-6.759z" fill="#66bc24"/><g fill="#a0d85d"><path d="m211.515 13.684h-22.737c0 14.979 12.143 27.123 27.123 27.123v-22.737c0-2.422-1.964-4.386-4.386-4.386z"/><path d="m72.54 13.684h22.737c0 14.979-12.143 27.123-27.123 27.123v-22.737c0-2.422 1.964-4.386 4.386-4.386z"/><path d="m72.54 101.833h22.737c0-14.979-12.143-27.123-27.123-27.123v22.738c0 2.421 1.964 4.385 4.386 4.385z"/><path d="m208.476 95.072c0-4.171 3.296-7.563 7.425-7.737v-12.625c-14.98 0-27.123 12.144-27.123 27.123h19.698z"/><circle cx="142.028" cy="57.759" r="29.836"/><path d="m72.54 118.266c-2.422 0-4.386-1.963-4.386-4.385v16.434c0 2.422 1.963 4.385 4.385 4.385h22.737c0-6.179-2.07-11.873-5.55-16.434-9.493 0-15.944 0-17.186 0z"/><path d="m208.476 101.833c-2.999 0-7.911 0-14.148 0-3.48 4.561-5.55 10.254-5.55 16.434h19.698z"/><path d="m72.54 101.833c-2.422 0-4.386-1.963-4.386-4.385v16.434c0 2.422 1.963 4.385 4.385 4.385h22.737c0-6.179-2.07-11.873-5.55-16.434-9.493 0-15.944 0-17.186 0z"/></g><path d="m57.935 151.041h-52.624c-1.553 0-2.811 1.259-2.811 2.811v85.651c0 1.553 1.259 2.811 2.811 2.811h52.624c1.553 0 2.811-1.259 2.811-2.811v-85.651c.001-1.552-1.258-2.811-2.811-2.811z" fill="#1387ce"/><path d="m73.728 156.531h-12.981v78.921h12.982c1.553 0 2.811-1.259 2.811-2.811v-73.298c0-1.553-1.259-2.812-2.812-2.812z" fill="#c5e3ff"/><path d="m252.266 180.427c-2.881-5.833-9.91-8.275-15.787-5.487l-46.552 22.087-.032.007c3.033-2.066 5.022-4.747 5.022-8.248 0-15.098-19.902-12.353-35.686-12.353-9.78 0-25.224-5.269-35.559-9.278-7.46-2.894-15.502-3.95-23.46-3.115l-23.666 2.484-.005 55.2 10.091-1.095c10.036-1.089 20.187-.335 29.953 2.224l32.438 8.5c18.413 4.825 37.985 2.2 54.476-7.307l44.482-28.292c5.132-3.264 6.98-9.873 4.285-15.327z" fill="#f9c1a8"/><path d="m244.098 125.435c-3.028-3.028-7.937-3.028-10.965 0l-9.151 9.151v-39.514c0-4.282-3.471-7.753-7.753-7.753s-7.753 3.471-7.753 7.753v39.513l-9.151-9.151c-3.028-3.028-7.937-3.028-10.965 0s-3.028 7.937 0 10.965l22.387 22.387c3.028 3.028 7.937 3.028 10.965 0l22.387-22.387c3.027-3.028 3.027-7.937-.001-10.964z" fill="#45bdf0"/><path d="m57.936 244.815h-52.624c-2.929 0-5.312-2.383-5.312-5.312v-85.651c0-2.929 2.383-5.311 5.312-5.311h52.624c2.929 0 5.312 2.382 5.312 5.311v85.651c-.001 2.93-2.384 5.312-5.312 5.312zm-52.624-91.273c-.172 0-.312.14-.312.311v85.651c0 .172.14.312.312.312h52.624c.172 0 .312-.14.312-.312v-85.651c0-.171-.14-.311-.312-.311z"/><path d="m73.729 237.953h-12.982c-1.381 0-2.5-1.119-2.5-2.5v-78.921c0-1.381 1.119-2.5 2.5-2.5h12.981c2.929 0 5.312 2.383 5.312 5.312v73.298c0 2.928-2.383 5.311-5.311 5.311zm-10.482-5h10.481c.172 0 .312-.14.312-.312v-73.298c0-.172-.14-.312-.312-.312h-10.481z"/><path d="m167.474 236.245c-6.366 0-12.771-.818-19.086-2.473l-32.438-8.5c-9.506-2.492-19.281-3.216-29.05-2.157l-10.09 1.095c-.706.074-1.411-.15-1.939-.625s-.83-1.151-.83-1.861l.004-55.201c0-1.28.967-2.353 2.239-2.486l23.666-2.483c8.34-.875 16.854.256 24.626 3.27 15.143 5.875 27.449 9.109 34.654 9.109 2.061 0 4.252-.049 6.371-.096 10.939-.245 22.249-.495 28.079 5.207 2.479 2.425 3.736 5.702 3.736 9.741 0 .686-.056 1.352-.166 1.999l38.157-18.104c7.069-3.354 15.637-.374 19.101 6.638 3.268 6.614 1.037 14.587-5.188 18.545l-44.481 28.292c-.03.02-.062.039-.093.057-11.515 6.639-24.311 10.033-37.272 10.033zm-71.864-18.603c7.276 0 14.512.934 21.606 2.792l32.438 8.5c17.874 4.684 36.533 2.188 52.547-7.027l44.435-28.262c4.065-2.585 5.522-7.792 3.389-12.112-2.263-4.58-7.856-6.524-12.476-4.335l-46.204 21.922c-3.371 2.281-8.139 4.061-14.284 5.325-9.321 1.917-18.477 1.938-18.861 1.938-1.381 0-2.499-1.119-2.5-2.5 0-1.38 1.119-2.5 2.499-2.5 8.877-.004 34.217-2.328 34.217-12.598 0-2.68-.73-4.697-2.232-6.167-4.326-4.231-14.567-4.003-24.472-3.783-2.146.048-4.366.097-6.482.097-10.008 0-25.353-5.138-36.463-9.448-7.034-2.728-14.743-3.752-22.296-2.959l-21.427 2.249-.004 50.163 7.32-.794c3.085-.334 6.172-.501 9.25-.501z"/><path d="m145.819 73.952h-12.129c-1.381 0-2.5-1.119-2.5-2.5s1.119-2.5 2.5-2.5h12.129c2.396 0 4.347-1.95 4.347-4.347s-1.95-4.347-4.347-4.347h-7.584c-5.153 0-9.347-4.193-9.347-9.347s4.193-9.347 9.347-9.347h10.748c1.381 0 2.5 1.119 2.5 2.5s-1.119 2.5-2.5 2.5h-10.748c-2.396 0-4.347 1.95-4.347 4.347s1.95 4.347 4.347 4.347h7.584c5.153 0 9.347 4.193 9.347 9.347s-4.193 9.347-9.347 9.347z"/><path d="m142.027 78.636c-1.381 0-2.5-1.119-2.5-2.5v-36.755c0-1.381 1.119-2.5 2.5-2.5s2.5 1.119 2.5 2.5v36.755c0 1.381-1.119 2.5-2.5 2.5z"/><path d="m192.437 60.259h-6.751c-1.381 0-2.5-1.119-2.5-2.5s1.119-2.5 2.5-2.5h6.751c1.381 0 2.5 1.119 2.5 2.5s-1.12 2.5-2.5 2.5z"/><path d="m98.37 60.259h-6.751c-1.381 0-2.5-1.119-2.5-2.5s1.119-2.5 2.5-2.5h6.751c1.381 0 2.5 1.119 2.5 2.5s-1.119 2.5-2.5 2.5z"/><path d="m187.081 137.2h-114.541c-3.797 0-6.886-3.089-6.886-6.885v-16.434c0-1.381 1.119-2.5 2.5-2.5s2.5 1.119 2.5 2.5c0 1.04.846 1.886 1.886 1.886h135.936c1.381 0 2.5 1.119 2.5 2.5v16.319c0 1.011-.609 1.923-1.543 2.31-.937.389-2.01.173-2.725-.542l-9.151-9.151c-.992-.992-2.312-1.539-3.714-1.539-1.403 0-2.723.546-3.715 1.539-1.654 1.653-2.01 4.234-.866 6.275.435.774.425 1.721-.023 2.486-.45.766-1.27 1.236-2.158 1.236zm-116.427-16.696v9.811c0 1.04.846 1.885 1.886 1.885h111.139c-.383-3.075.635-6.255 2.914-8.534 1.587-1.587 3.604-2.59 5.787-2.9h-119.84c-.653.001-1.286-.091-1.886-.262zm124.652.263c2.184.31 4.199 1.313 5.786 2.9l4.884 4.883v-7.784h-10.67zm-6.946 4.668h.01z"/><path d="m208.477 137.086c-.651 0-1.29-.254-1.769-.732l-9.151-9.151c-1.447-1.446-3.627-1.918-5.553-1.201-.942.353-2.007.104-2.696-.631s-.87-1.811-.459-2.731c.939-2.102 2.114-4.083 3.492-5.889.473-.62 1.208-.983 1.987-.983h14.147c1.381 0 2.5 1.119 2.5 2.5v16.319c0 1.011-.609 1.923-1.543 2.31-.309.127-.634.189-.955.189zm-12.909-16.267c2.055.35 3.997 1.321 5.523 2.848l4.884 4.883v-7.784h-10.372c-.011.018-.023.035-.035.053z"/><path d="m208.476 120.767h-135.936c-3.797 0-6.886-3.089-6.886-6.886v-16.434c0-1.381 1.119-2.5 2.5-2.5s2.5 1.119 2.5 2.5c0 1.04.846 1.885 1.886 1.885h135.936c1.381 0 2.5 1.119 2.5 2.5v16.434c0 1.381-1.12 2.501-2.5 2.501zm-137.822-16.697v9.811c0 1.04.846 1.886 1.886 1.886h133.436v-11.434h-133.436c-.653 0-1.286-.092-1.886-.263z"/><path d="m208.476 104.333h-135.936c-3.797 0-6.886-3.089-6.886-6.885v-79.378c0-3.796 3.089-6.885 6.886-6.885h138.976c3.796 0 6.885 3.089 6.885 6.885v69.266c0 1.34-1.057 2.441-2.396 2.498-2.82.119-5.029 2.42-5.029 5.239v6.76c0 1.38-1.12 2.5-2.5 2.5zm-135.936-88.148c-1.04 0-1.886.846-1.886 1.885v79.377c0 1.04.846 1.885 1.886 1.885h133.436v-4.26c0-4.679 3.112-8.627 7.425-9.852v-67.15c0-1.04-.846-1.885-1.885-1.885z"/><path d="m216.229 163.557c-2.739 0-5.314-1.066-7.25-3.003l-22.387-22.387c-1.937-1.936-3.004-4.511-3.004-7.25s1.067-5.314 3.004-7.25c1.936-1.936 4.511-3.003 7.249-3.003 2.739 0 5.314 1.067 7.25 3.003l4.884 4.883v-33.478c0-5.654 4.6-10.253 10.253-10.253 5.654 0 10.254 4.6 10.254 10.253v33.478l4.884-4.883c1.936-1.937 4.511-3.003 7.249-3.003 2.739 0 5.313 1.066 7.25 3.003 1.937 1.937 3.004 4.511 3.004 7.25s-1.067 5.313-3.004 7.25l-22.387 22.386c-1.936 1.937-4.51 3.004-7.249 3.004zm-22.387-37.893c-1.402 0-2.722.546-3.714 1.539s-1.539 2.312-1.539 3.715.547 2.722 1.539 3.714l22.387 22.387c.992.992 2.312 1.539 3.714 1.539 1.403 0 2.723-.546 3.715-1.539l22.387-22.387c.992-.992 1.539-2.312 1.539-3.714 0-1.403-.547-2.722-1.539-3.714-.992-.992-2.312-1.539-3.715-1.539-1.402 0-2.722.546-3.714 1.539l-9.151 9.151c-.715.715-1.786.931-2.725.542-.934-.387-1.543-1.298-1.543-2.31v-39.515c0-2.897-2.356-5.253-5.254-5.253-2.896 0-5.253 2.356-5.253 5.253v39.514c0 1.011-.609 1.923-1.543 2.31-.937.389-2.01.173-2.725-.542l-9.151-9.151c-.993-.993-2.312-1.539-3.715-1.539z"/><path d="m215.9 43.308c-16.334 0-29.623-13.289-29.623-29.623 0-1.381 1.119-2.5 2.5-2.5h22.738c3.796 0 6.885 3.089 6.885 6.885v22.738c0 1.38-1.119 2.5-2.5 2.5zm-24.497-27.123c1.173 11.586 10.411 20.824 21.997 21.997v-20.112c0-1.04-.846-1.885-1.885-1.885z"/><path d="m68.154 43.308c-1.381 0-2.5-1.119-2.5-2.5v-22.738c0-3.796 3.089-6.885 6.886-6.885h22.737c1.381 0 2.5 1.119 2.5 2.5 0 16.334-13.289 29.623-29.623 29.623zm4.386-27.123c-1.04 0-1.886.846-1.886 1.885v20.112c11.586-1.173 20.824-10.411 21.997-21.997z"/><path d="m95.277 104.333h-22.737c-3.797 0-6.886-3.089-6.886-6.885v-22.739c0-1.381 1.119-2.5 2.5-2.5 16.334 0 29.623 13.289 29.623 29.623 0 1.381-1.119 2.501-2.5 2.501zm-24.623-26.998v20.112c0 1.04.846 1.885 1.886 1.885h20.111c-1.172-11.585-10.411-20.823-21.997-21.997z"/><path d="m208.476 104.333h-19.698c-1.381 0-2.5-1.119-2.5-2.5 0-16.334 13.289-29.623 29.623-29.623 1.381 0 2.5 1.119 2.5 2.5v12.626c0 1.34-1.057 2.441-2.396 2.498-2.82.119-5.029 2.42-5.029 5.239v6.76c0 1.38-1.12 2.5-2.5 2.5zm-17.073-5h14.572v-4.26c0-4.679 3.112-8.627 7.425-9.852v-7.885c-11.586 1.173-20.824 10.411-21.997 21.997z"/><path d="m142.027 90.095c-17.83 0-32.336-14.506-32.336-32.336 0-17.831 14.506-32.336 32.336-32.336s32.336 14.506 32.336 32.336-14.506 32.336-32.336 32.336zm0-59.673c-15.073 0-27.336 12.263-27.336 27.336s12.263 27.336 27.336 27.336 27.336-12.263 27.336-27.336-12.262-27.336-27.336-27.336z"/><path d="m95.277 137.2h-22.737c-3.797 0-6.886-3.089-6.886-6.885v-16.434c0-1.381 1.119-2.5 2.5-2.5s2.5 1.119 2.5 2.5c0 1.04.846 1.886 1.886 1.886h17.188c.779 0 1.515.364 1.987.983 3.966 5.198 6.062 11.405 6.062 17.95 0 1.381-1.119 2.5-2.5 2.5zm-24.623-16.696v9.811c0 1.04.846 1.885 1.886 1.885h20.113c-.411-4.115-1.84-8.011-4.199-11.434h-15.914c-.653.001-1.286-.091-1.886-.262z"/><path d="m208.476 120.767h-19.698c-1.381 0-2.5-1.119-2.5-2.5 0-6.545 2.097-12.752 6.063-17.951.473-.62 1.208-.983 1.987-.983h14.147c1.381 0 2.5 1.119 2.5 2.5v16.434c.001 1.38-1.119 2.5-2.499 2.5zm-17.075-5h14.574v-11.434h-10.374c-2.359 3.422-3.788 7.319-4.2 11.434z"/><path d="m95.277 120.767h-22.737c-3.797 0-6.886-3.089-6.886-6.886v-16.434c0-1.381 1.119-2.5 2.5-2.5s2.5 1.119 2.5 2.5c0 1.04.846 1.885 1.886 1.885h17.188c.779 0 1.515.364 1.987.984 3.966 5.198 6.062 11.406 6.062 17.95 0 1.381-1.119 2.501-2.5 2.501zm-24.623-16.697v9.811c0 1.04.846 1.886 1.886 1.886h20.113c-.411-4.115-1.84-8.011-4.2-11.434h-15.913c-.653 0-1.286-.092-1.886-.263z"/></svg>