<svg height="512" viewBox="0 0 60 59" width="512" xmlns="http://www.w3.org/2000/svg"><g id="Page-1" fill="none" fill-rule="evenodd"><g id="030---Slashing-Prices" fill-rule="nonzero"><path id="Shape" d="m26.538 15.676c-.4254958.0004165-.8046584-.2684628-.9450105-.6701444-.140352-.4016816-.0111531-.8481881.3220105-1.1128556 4.1652979-3.2928996 9.46066-4.81130101 14.738-4.226 1.7408744.23046319 3.4639103.5799485 5.157 1.046 1.235.31 2.512.631 3.765.841 3.373.576 6.068.173 8.023-1.194.4527072-.3022543 1.0640175-.1868982 1.3754423.25955.3114249.4464482.2085612 1.0599842-.2314423 1.38045-2.4 1.678-5.6 2.192-9.5 1.526-1.33-.223-2.646-.554-3.919-.874-1.6059225-.4446344-3.2404143-.7787497-4.892-1-4.7522192-.526149-9.5204235.8408655-13.272 3.805-.1760663.1415065-.3951165.2187561-.621.219z" fill="#e57e25"/><path id="Shape" d="m56.3 45.54-15.56 12.57c-.8243547.6668601-1.8801422.9783678-2.9344634.8658068-1.0543211-.112561-2.0205475-.6399421-2.6855366-1.4658068l-13.82-17.11 9.73-7.86 2.32-1.88 8.95-7.23c.4321637-.3432178 1.0597166-.2764568 1.41.15l13.19 16.34c.6673772.8241467.9792128 1.8800679.8666345 2.9345517-.1125784 1.0544839-.6403082 2.0207717-1.4666345 2.6854483z" fill="#f0c419"/><path id="Shape" d="m34.66 15.78-14.93-8.82c-.9173716-.53748892-2.0095464-.69197417-3.04-.43l-13.69 3.53c-2.13766272.5582776-3.42103588 2.7404591-2.87 4.88l3.53 13.69c.25984935 1.0304259.92284745 1.9132222 1.84 2.45l15.8 9.32 6.36-10.78 1.51-2.56 5.85-9.91c.1343739-.2293087.1719353-.5026768.1043886-.7597298-.0675468-.257053-.2346444-.4766422-.4643886-.6102702zm-24.34 1.89c-.84231624 1.4263733-2.6813012 1.9000912-4.10791933 1.0581897s-1.90087068-2.6807487-1.05938399-4.1076115c.84148669-1.4268629 2.68019588-1.90165 4.10730332-1.0605782.68770603.4025127 1.1863682 1.0628016 1.3853677 1.8343942.1989996.7715927.0818837 1.5906953-.3253677 2.2756058z" fill="#f0c419"/><g fill="#955ba5"><path id="Shape" d="m29.17 27.06-1.51 2.56-11.78 3.71c-.095811.035965-.1977037.0529471-.3.05-.4889813-.0058827-.9019835-.3645402-.976342-.8478705-.0743585-.4833302.2117408-.9495418.676342-1.1021295z"/><path id="Shape" d="m46.62 32.37c-.0266663.5326668-.4666665.9506671-1 .95h-.05l-14.54-.78 2.32-1.88 12.32.66c.2653346.0129343.5146187.1309119.6928466.3279007.1782279.1969887.2707509.4567979.2571534.7220993z"/><path id="Shape" d="m24.918 23.479c-.5348699-.0003556-1.0598256-.144373-1.52-.417-.6854109-.4043715-1.1820709-1.0645055-1.380681-1.8351277s-.0828947-1.5885818.321681-2.2738723l1.015-1.722c.5446514-.9231743 1.5404376-1.4856545 2.6122557-1.4755597s2.0568334.5912309 2.5840001 1.5245c.5271666.9332691.5163956 2.0768854-.0282558 3.0000597l-1.016 1.72c-.4021064.6870237-1.0626154 1.1843863-1.834 1.381-.2462396.064103-.4995551.0970273-.754.098zm1.022-5.724c-.0849946.000289-.1696307.0110365-.252.032-.2570371.0659487-.4770335.2319361-.611.461l-1.015 1.721c-.1350494.2283383-.1738338.5009816-.1078169.7579223.0660168.2569407.2314243.4771201.4598169.6120777.4750626.2798704 1.0870206.1224075 1.368-.352l1.018-1.723c.1827267-.3090077.1857965-.6922518.0080431-1.0041468-.1777533-.3118951-.5090518-.5045781-.8680431-.5048532z"/><path id="Shape" d="m31.146 44.446c-.1082174-.000205-.2163553-.0058789-.324-.017-.7919064-.0828157-1.517805-.4788914-2.016-1.1-.50008-.6188769-.7338231-1.4110658-.6498063-2.2022863.0840167-.7912204.4789109-1.5166566 1.0978063-2.0167137l1.557-1.257c.8312194-.6985558 1.975018-.8934603 2.9906796-.5096151 1.0156617.3838453 1.7446537 1.2865266 1.9060888 2.3602326.1614351 1.0737059-.2698849 2.1508439-1.1277684 2.8163825l-1.555 1.257c-.5306935.4325692-1.1943456.6688562-1.879.669zm1.548-5.257c-.2282086.0002887-.4494537.0786243-.627.222l-1.556 1.256c-.2064448.1667494-.338143.4087198-.3660899.6726209-.0279468.2639011.0501496.5280886.2170899.7343791.3471797.429275.9765579.495973 1.406.149l1.555-1.257c.3298589-.2663733.4558854-.7118056.3144814-1.1115137-.141404-.399708-.5194985-.6667984-.9434814-.6664863z"/></g><path id="Shape" d="m8 16c-.28836261.0002164-.56278205-.1240583-.75283293-.3409309-.19005087-.2168725-.27723103-.5052297-.23916707-.7910691.04-.3 1.04-7.389 6.308-11.1 2.948-2.078 6.614-2.664 10.893-1.747 13.428 2.879 22.221-1.848 22.307-1.896.4812268-.25258983 1.0760908-.0745872 1.3394785.4008155.2633878.4754027.0988579 1.07413299-.3704785 1.3481845-.381.211-9.49 5.147-23.695 2.1-3.709-.8-6.847-.316-9.32 1.426-4.562 3.216-5.47 9.667-5.479 9.732-.06615449.4967851-.48982955.8678748-.991.868z" fill="#e57e25"/></g></g></svg>