<?xml version="1.0" encoding="utf-8"?>
<!-- Generator: Adobe Illustrator 18.0.0, SVG Export Plug-In . SVG Version: 6.00 Build 0)  -->
<!DOCTYPE svg PUBLIC "-//W3C//DTD SVG 1.1//EN" "http://www.w3.org/Graphics/SVG/1.1/DTD/svg11.dtd">
<svg xmlns="http://www.w3.org/2000/svg" xmlns:xlink="http://www.w3.org/1999/xlink" version="1.1" id="Layer_2" x="0px" y="0px" viewBox="0 0 64 64" style="enable-background:new 0 0 64 64;" xml:space="preserve" width="512" height="512">
<style type="text/css">
	.st0{fill:#EDEFF1;}
	.st1{fill:#D3D3D3;}
	.st2{fill:#98CA69;}
	.st3{fill:#80D6FB;}
	.st4{fill:#FFB0AA;}
	.st5{fill:#FFE352;}
	.st6{fill:#6E83B7;}
	.st7{fill:#466089;}
	.st8{fill:#FFD3B3;}
	.st9{fill:#FCB98B;}
	.st10{fill:#FFB236;}
	.st11{fill:#46BEE8;}
	.st12{fill:#E0E2FF;}
	.st13{fill:#8FA5D1;}
	.st14{fill:#75AA40;}
</style>
<g>
	<g>
		<g>
			<path class="st5" d="M53,23c0-11.736-9.264-21-21-21s-21,9.264-21,21c0,8.119,4.307,15.419,10.999,18.997L25.75,52H32h6.25     l3.751-10.003C48.693,38.419,53,31.119,53,23z"/>
		</g>
		<g>
			<rect x="25.75" y="52" class="st0" width="12.5" height="7.5"/>
		</g>
		<g>
			<polygon class="st6" points="25.75,59.5 27,62 37,62 38.25,59.5    "/>
		</g>
		<path class="st10" d="M37,21c-2.086,0-3.924,1.071-5,2.69c-1.076-1.62-2.914-2.69-5-2.69c-3.309,0-6,2.691-6,6    c0,1.604,0.624,3.109,1.757,4.242l1.414-1.414C23.416,29.073,23,28.068,23,27c0-2.206,1.794-4,4-4s4,1.794,4,4v22.5h-6.188    L25.75,52H31h1h1h5.25l0.937-2.5H33V27c0-2.206,1.794-4,4-4s4,1.794,4,4c0,1.068-0.416,2.073-1.171,2.828l1.414,1.414    C42.376,30.109,43,28.604,43,27C43,23.691,40.309,21,37,21z"/>
		<g>
			<rect x="25.75" y="53.25" class="st1" width="12.5" height="1.25"/>
		</g>
		<g>
			<rect x="25.75" y="55.75" class="st1" width="12.5" height="1.25"/>
		</g>
		<g>
			<rect x="25.75" y="58.25" class="st1" width="12.5" height="1.25"/>
		</g>
	</g>
	<g>
		<g>
			<path class="st6" d="M47.184,43.429c0,0,3.87-3.942,2.122-5.306c-1.21-0.945-2.44,0.566-3.184-0.531C45.003,35.942,44,36,44,36     s-1.003-0.058-2.122,1.592c-0.744,1.096-1.973-0.415-3.184,0.531c-1.747,1.364,2.122,5.306,2.122,5.306H47.184z"/>
		</g>
		<path class="st7" d="M47.823,42.051c-0.62-0.28-1.342-0.46-2.012-0.574c0.36-0.386,0.662-0.925,0.803-1.669l-0.982-0.188    c-0.25,1.312-1.079,1.617-1.444,1.69c-0.064-0.002-0.133-0.004-0.187-0.004c-0.05,0-0.115,0.003-0.173,0.004    c-0.381-0.073-1.208-0.379-1.458-1.689l-0.982,0.188c0.142,0.744,0.444,1.283,0.804,1.669c-0.67,0.114-1.393,0.294-2.013,0.574    c-0.132,0.06-0.253,0.138-0.361,0.227c0.535,0.676,1,1.15,1,1.15h6.367c0,0,0.465-0.474,1-1.15    C48.075,42.189,47.955,42.111,47.823,42.051z"/>
		<g>
			<path class="st5" d="M44,44.49h4.245v-0.978c0-0.424-0.254-0.802-0.641-0.977c-1.234-0.557-2.935-0.698-3.604-0.698     s-2.37,0.141-3.604,0.698c-0.387,0.175-0.641,0.552-0.641,0.977v0.978H44z"/>
		</g>
		<g>
			<path class="st6" d="M44,43h1c4.418,0,8,3.582,8,8v5.122c0,0.562,0.223,1.101,0.621,1.499l0.758,0.758     C54.777,58.777,55,59.316,55,59.878v0.002c0,1.171-0.949,2.12-2.12,2.12h-9.268H35.12C33.949,62,33,61.051,33,59.88v-0.002     c0-0.562,0.223-1.101,0.621-1.499l0.758-0.758C34.777,57.223,35,56.684,35,56.122V51c0-4.418,3.582-8,8-8H44z"/>
		</g>
		<g>
			<circle class="st5" cx="44" cy="51.918" r="4"/>
		</g>
		<path class="st6" d="M44.531,51.418h-1.062c-0.31,0-0.561-0.251-0.561-0.561s0.251-0.562,0.561-0.562h1.062    c0.31,0,0.561,0.252,0.561,0.562h1c0-0.861-0.7-1.562-1.561-1.562H44.5v-0.562h-1v0.562h-0.031c-0.861,0-1.561,0.7-1.561,1.562    c0,0.86,0.7,1.561,1.561,1.561h1.062c0.31,0,0.561,0.252,0.561,0.562s-0.251,0.562-0.561,0.562h-1.062    c-0.31,0-0.561-0.252-0.561-0.562h-1c0,0.861,0.7,1.562,1.561,1.562H43.5v0.561h1v-0.561h0.031c0.861,0,1.561-0.7,1.561-1.562    S45.392,51.418,44.531,51.418z"/>
	</g>
</g>
</svg>
