<svg height="512pt" viewBox="0 0 512 512.00087" width="512pt" xmlns="http://www.w3.org/2000/svg"><path d="m235.746094 176.113281h40.507812v335.886719h-40.507812zm0 0" fill="#d476e2"/><path d="m235.746094 498h40.507812v14h-40.507812zm0 0" fill="#b665c2"/><g fill="#ff8354"><path d="m370.378906 276.800781c-4.351562 0-8.726562-1.410156-12.402344-4.320312-8.660156-6.859375-10.121093-19.4375-3.265624-28.097657 17.644531-22.28125 26.96875-49.117187 26.96875-77.609374 0-28.492188-9.324219-55.328126-26.96875-77.605469-6.855469-8.660157-5.394532-21.238281 3.265624-28.09375 8.660157-6.863281 21.238282-5.394531 28.097657 3.261719 23.292969 29.417968 35.605469 64.839843 35.605469 102.4375 0 37.597656-12.3125 73.019531-35.605469 102.441406-3.949219 4.984375-9.792969 7.585937-15.695313 7.585937zm0 0"/><path d="m441.226562 332.828125c-4.347656 0-8.726562-1.414063-12.402343-4.324219-8.660157-6.855468-10.121094-19.433594-3.261719-28.09375 30.378906-38.367187 46.4375-84.578125 46.4375-133.636718 0-49.363282-16.238281-95.800782-46.964844-134.292969-6.890625-8.632813-5.476562-21.21875 3.152344-28.109375 8.632812-6.894532 21.21875-5.476563 28.109375 3.152344 35.917969 45.003906 55.703125 101.558593 55.703125 159.25 0 58.167968-19.046875 112.960937-55.078125 158.46875-3.949219 4.984374-9.796875 7.585937-15.695313 7.585937zm0 0"/><path d="m141.621094 276.800781c-5.902344 0-11.746094-2.601562-15.691406-7.585937-23.296876-29.417969-35.609376-64.839844-35.609376-102.4375 0-37.601563 12.3125-73.023438 35.609376-102.4375 6.855468-8.664063 19.433593-10.125 28.09375-3.261719 8.660156 6.855469 10.121093 19.433594 3.261718 28.09375-17.636718 22.273437-26.964844 49.109375-26.964844 77.601563 0 28.492187 9.328126 55.332031 26.964844 77.609374 6.859375 8.660157 5.398438 21.238282-3.261718 28.097657-3.671876 2.910156-8.054688 4.320312-12.402344 4.320312zm0 0"/><path d="m70.773438 332.828125c-5.902344 0-11.746094-2.601563-15.691407-7.585937-36.035156-45.507813-55.082031-100.304688-55.082031-158.46875 0-57.691407 19.785156-114.246094 55.703125-159.25 6.890625-8.628907 19.476563-10.042969 28.109375-3.152344s10.042969 19.476562 3.152344 28.109375c-30.722656 38.492187-46.964844 84.929687-46.964844 134.292969 0 49.058593 16.058594 95.265624 46.441406 133.636718 6.855469 8.660156 5.394532 21.238282-3.265625 28.09375-3.671875 2.910156-8.054687 4.324219-12.402343 4.324219zm0 0"/></g><path d="m125.929688 78.335938c6.855468-8.660157 19.433593-10.121094 28.09375-3.261719 2.972656 2.355469 5.074218 5.390625 6.304687 8.703125 2.972656-7.917969.679687-17.171875-6.304687-22.703125-8.660157-6.859375-21.238282-5.398438-28.09375 3.261719-23.296876 29.417968-35.609376 64.839843-35.609376 102.4375 0 2.34375.046876 4.675781.144532 7 1.433594-34.988282 13.621094-67.851563 35.464844-95.4375zm0 0" fill="#ffac8c"/><path d="m55.703125 21.523438c6.890625-8.628907 19.476563-10.042969 28.109375-3.152344 2.941406 2.347656 5.023438 5.363281 6.246094 8.652344 2.957031-7.890626.695312-17.109376-6.246094-22.652344-8.632812-6.890625-21.21875-5.480469-28.109375 3.152344-35.917969 45.003906-55.703125 101.558593-55.703125 159.25 0 2.125.0820312 4.234374.128906 6.34375 1.667969-55.019532 21.246094-108.585938 55.574219-151.59375zm0 0" fill="#ffac8c"/><path d="m386.074219 78.335938c-6.859375-8.660157-19.4375-10.121094-28.09375-3.261719-2.976563 2.355469-5.078125 5.390625-6.308594 8.703125-2.972656-7.917969-.679687-17.171875 6.308594-22.703125 8.65625-6.859375 21.234375-5.398438 28.09375 3.261719 23.292969 29.417968 35.605469 64.839843 35.605469 102.4375 0 2.34375-.046876 4.675781-.144532 7-1.433594-34.988282-13.617187-67.851563-35.460937-95.4375zm0 0" fill="#ffac8c"/><path d="m456.296875 21.523438c-6.890625-8.628907-19.472656-10.042969-28.109375-3.152344-2.9375 2.347656-5.019531 5.363281-6.242188 8.652344-2.960937-7.890626-.699218-17.109376 6.242188-22.652344 8.636719-6.890625 21.21875-5.480469 28.109375 3.152344 35.917969 45.003906 55.703125 101.558593 55.703125 159.25 0 2.125-.078125 4.234374-.128906 6.34375-1.667969-55.019532-21.246094-108.585938-55.574219-151.59375zm0 0" fill="#ffac8c"/><path d="m196 414c0 54.125-43.875 98-98 98s-98-43.875-98-98 43.875-98 98-98 98 43.875 98 98zm0 0" fill="#6770e6"/><path d="m98.175781 502c-52.511719.09375-95.445312-41.136719-98.046875-93.023438-.0859372 1.722657-.13281225 3.453126-.128906 5.199219.0976562 54.121094 44.050781 97.921875 98.175781 97.824219 54.121094-.09375 97.921875-44.050781 97.824219-98.171875 0-1.613281-.050781-3.210937-.128906-4.804687-2.609375 51.714843-45.316406 92.886718-97.695313 92.976562zm0 0" fill="#5861c7"/><path d="m36.925781 411.925781h22.21875v54.839844h-22.21875zm0 0" fill="#69ebfc"/><path d="m70.238281 395.027344h22.214844v71.738281h-22.214844zm0 0" fill="#69ebfc"/><path d="m103.546875 378.132812h22.21875v88.632813h-22.21875zm0 0" fill="#69ebfc"/><path d="m136.859375 361.234375h22.21875v105.53125h-22.21875zm0 0" fill="#69ebfc"/><path d="m313.765625 166.773438c0 31.90625-25.863281 57.765624-57.765625 57.765624s-57.765625-25.859374-57.765625-57.765624c0-31.902344 25.863281-57.765626 57.765625-57.765626s57.765625 25.863282 57.765625 57.765626zm0 0" fill="#b665c2"/><path d="m256 123.007812c29.53125 0 53.871094 22.167969 57.328125 50.765626.277344-2.292969.4375-4.625.4375-7 0-31.902344-25.859375-57.765626-57.765625-57.765626-31.902344 0-57.765625 25.863282-57.765625 57.765626 0 2.375.160156 4.707031.4375 7 3.457031-28.597657 27.796875-50.765626 57.328125-50.765626zm0 0" fill="#d476e2"/></svg>