<svg height="512pt" viewBox="-12 0 512 512.00081" width="512pt" xmlns="http://www.w3.org/2000/svg"><path d="m39.324219 172.875h433.355469v250.210938h-433.355469zm0 0" fill="#d476e2"/><path d="m39.324219 172.875h433.355469v14h-433.355469zm0 0" fill="#ea82fa"/><path d="m441.660156 257.164062v81.628907c-29.421875 0-53.273437 23.851562-53.273437 53.273437h-264.773438c0-29.421875-23.851562-53.273437-53.273437-53.273437v-81.628907c29.421875 0 53.273437-23.851562 53.273437-53.273437h264.773438c0 29.421875 23.851562 53.273437 53.273437 53.273437zm0 0" fill="#b665c2"/><path d="m249.910156 351.964844c-7.636718-1.117188-14.429687-4.070313-20.390625-8.859375-3.476562-2.796875-6.367187-6.296875-8.679687-10.507813-2.808594-5.109375-.617188-11.535156 4.777344-13.738281 4.292968-1.753906 9.320312-.265625 11.714843 3.703125.769531 1.277344 1.65625 2.496094 2.65625 3.65625 2.746094 3.210938 6.050781 5.425781 9.921875 6.644531v-29.023437l-1.363281-.617188c-3.765625-1.425781-7.3125-3.101562-10.617187-5.042968-3.308594-1.925782-6.214844-4.171876-8.707032-6.71875-2.503906-2.542969-4.492187-5.417969-5.960937-8.632813-1.484375-3.207031-2.226563-6.796875-2.226563-10.773437 0-3.664063.667969-7.125 1.988282-10.386719 1.335937-3.257813 3.234374-6.160157 5.742187-8.707031 2.492187-2.542969 5.515625-4.664063 9.089844-6.339844 3.5625-1.683594 7.578125-2.773438 12.058593-3.28125v-6.34375c0-3.753906 3.042969-6.796875 6.800782-6.796875 3.757812 0 6.800781 3.042969 6.800781 6.796875v6.644531c4.078125.609375 7.621094 1.683594 10.617187 3.210937 3.011719 1.527344 5.585938 3.308594 7.800782 5.273438.851562.753906 1.675781 1.652344 2.453125 2.628906 3.859375 4.828125 1.898437 12.050782-3.746094 14.570313-3.871094 1.726562-8.324219.644531-11.171875-2.492188-1.492188-1.644531-3.460938-3.261719-5.953125-4.398437v27.347656c4.390625 1.835938 8.347656 3.722656 11.921875 5.65625 3.5625 1.9375 6.617188 4.121094 9.167969 6.570312 2.550781 2.441407 4.476562 5.21875 5.796875 8.320313 1.335937 3.113281 1.988281 6.703125 1.988281 10.773437 0 4.582032-.785156 8.660157-2.359375 12.21875-1.585938 3.566407-3.691406 6.625-6.347656 9.167969-2.652344 2.550781-5.722656 4.589844-9.238282 6.117188-3.515624 1.527343-7.164062 2.597656-10.929687 3.203125v6.644531c0 3.757813-3.042969 6.800781-6.800781 6.800781-3.757813 0-6.800782-3.042968-6.800782-6.800781v-6.488281zm-10.066406-79.90625c0 2.449218.785156 4.5625 2.355469 6.339844 1.585937 1.789062 4.152343 3.597656 7.714843 5.429687v-22.304687c-3.058593.816406-5.488281 2.136718-7.328124 3.96875-1.839844 1.835937-2.742188 4.023437-2.742188 6.566406zm32.996094 49.203125c0-2.648438-.714844-4.84375-2.152344-6.570313-1.421875-1.738281-3.8125-3.464844-7.175781-5.199218v23.371093c2.757812-.910156 4.996093-2.367187 6.730469-4.351562 1.722656-1.988281 2.597656-4.40625 2.597656-7.25zm0 0" fill="#ea82fa"/><path d="m44.242188 383.617188h32.296874v105.671874h-32.296874zm0 0" fill="#69ebfc"/><path d="m443.546875 405.40625c-26.117187.621094-82.148437 15.433594-111.539063 18.382812-13.417968 1.34375-26.554687-10.335937-37.839843-11.671874 17.925781-5.050782 59.296875-3.300782 72.78125-10.269532 20.074219-10.378906-19.183594-22.066406-34.03125-24.816406-14.84375-2.753906-57.441407-2.820312-79.515625-3-22.078125-.183594-41.386719-13.4375-64.578125-11.828125-23.195313 1.613281-45.648438 15.542969-62.722657 31.734375-16.324218 2.414062-33.125 2.953125-49.566406 3.253906v72.929688c18.441406-.351563 44.367188 3.386718 67.375 3.027344 21.644532 1.359374 54.574219 4.085937 75.21875 2.738281 20.648438-1.351563 83.40625 9.910156 90.40625 10.253906 19.300782.949219 147.3125-40.734375 171.039063-51.289063 23.71875-10.558593-10.90625-30.0625-37.027344-29.445312zm0 0" fill="#ffefe4"/><path d="m480.574219 424.851562c-23.722657 10.554688-151.738281 52.234376-171.039063 51.289063-7-.339844-69.757812-11.601563-90.40625-10.253906-20.644531 1.347656-53.574218-1.378907-75.21875-2.738281-23.007812.359374-48.933594-3.378907-67.375-3.027344v10c18.441406-.351563 44.367188 3.386718 67.375 3.027344 21.644532 1.359374 54.574219 4.085937 75.21875 2.738281 20.648438-1.351563 83.40625 9.910156 90.40625 10.253906 19.300782.949219 147.3125-40.734375 171.039063-51.289063 8.71875-3.882812 9.535156-8.96875 5.808593-13.824218-1.285156 1.355468-3.167968 2.648437-5.808593 3.824218zm0 0" fill="#edd4c2"/><path d="m44.242188 477.546875h32.296874v11.742187h-32.296874zm0 0" fill="#5fd4e3"/><path d="m44.242188 512h-44.242188v-151.09375h44.242188zm0 0" fill="#6770e6"/><path d="m0 500.261719h44.242188v11.738281h-44.242188zm0 0" fill="#5861c7"/><path d="m225.5 100.605469c0 32.332031-26.210938 58.542969-58.546875 58.542969-32.332031 0-58.542969-26.210938-58.542969-58.542969s26.210938-58.542969 58.542969-58.542969c32.335937 0 58.546875 26.210938 58.546875 58.542969zm0 0" fill="#69ebfc"/><path d="m166.953125 50.539062c30.90625 0 56.203125 23.953126 58.375 54.308594.101563-1.402344.171875-2.8125.171875-4.238281 0-32.332031-26.210938-58.546875-58.546875-58.546875-32.332031 0-58.542969 26.210938-58.542969 58.546875 0 1.425781.070313 2.835937.171875 4.238281 2.171875-30.355468 27.464844-54.308594 58.371094-54.308594zm0 0" fill="#a1f1fc"/><path d="m207.484375 100.605469c0 22.382812-18.144531 40.53125-40.53125 40.53125-22.382813 0-40.527344-18.148438-40.527344-40.53125 0-22.382813 18.144531-40.53125 40.527344-40.53125 22.386719 0 40.53125 18.148437 40.53125 40.53125zm0 0" fill="#5fd4e3"/><path d="m163.988281 127.445312c-3.832031-.5625-7.242187-2.042968-10.234375-4.445312-1.742187-1.402344-3.195312-3.15625-4.355468-5.273438-1.40625-2.5625-.308594-5.789062 2.398437-6.894531 2.152344-.878906 4.679687-.132812 5.878906 1.859375.386719.640625.832031 1.253906 1.332031 1.835938 1.378907 1.613281 3.035157 2.726562 4.980469 3.335937v-14.566406l-.683593-.308594c-1.890626-.710937-3.671876-1.554687-5.328126-2.527343-1.660156-.96875-3.121093-2.097657-4.371093-3.371094-1.257813-1.277344-2.253907-2.722656-2.992188-4.332032-.742187-1.613281-1.113281-3.414062-1.113281-5.40625 0-1.839843.332031-3.578124.996094-5.214843.671875-1.632813 1.621094-3.09375 2.878906-4.367188 1.25-1.277343 2.769531-2.339843 4.5625-3.183593 1.789062-.84375 3.804688-1.390626 6.050781-1.648438v-3.179688c0-1.886718 1.527344-3.414062 3.414063-3.414062 1.882812 0 3.410156 1.527344 3.410156 3.414062v3.332032c2.046875.304687 3.828125.84375 5.328125 1.613281 1.511719.765625 2.800781 1.660156 3.914063 2.644531.429687.378906.84375.832032 1.230468 1.316406 1.9375 2.425782.957032 6.050782-1.878906 7.3125-1.941406.867188-4.175781.324219-5.605469-1.25-.75-.824218-1.734375-1.636718-2.988281-2.207031v13.722657c2.203125.921874 4.191406 1.871093 5.984375 2.84375 1.785156.96875 3.320313 2.066406 4.601563 3.292968 1.277343 1.226563 2.246093 2.621094 2.910156 4.175782.667968 1.5625.996094 3.367187.996094 5.40625 0 2.300781-.394532 4.347656-1.183594 6.132812-.796875 1.789062-1.855469 3.324219-3.1875 4.601562-1.332032 1.277344-2.871094 2.300782-4.636719 3.070313-1.761719.765625-3.59375 1.300781-5.484375 1.605469v3.335937c0 1.882813-1.527344 3.410157-3.410156 3.410157-1.886719 0-3.414063-1.527344-3.414063-3.410157zm-5.050781-40.097656c0 1.226563.394531 2.289063 1.183594 3.183594.796875.894531 2.082031 1.804688 3.871094 2.722656v-11.195312c-1.535157.410156-2.753907 1.074218-3.675782 1.992187-.925781.921875-1.378906 2.019531-1.378906 3.296875zm16.558594 24.691406c0-1.328124-.359375-2.429687-1.082032-3.296874-.714843-.871094-1.910156-1.738282-3.601562-2.609376v11.730469c1.382812-.457031 2.507812-1.1875 3.378906-2.183593.867188-1 1.304688-2.214844 1.304688-3.640626zm0 0" fill="#a1f1fc"/><path d="m403.589844 58.542969c0 32.335937-26.210938 58.546875-58.542969 58.546875s-58.542969-26.210938-58.542969-58.546875c0-32.332031 26.210938-58.542969 58.542969-58.542969s58.542969 26.210938 58.542969 58.542969zm0 0" fill="#69ebfc"/><path d="m345.046875 8.476562c30.90625 0 56.199219 23.953126 58.375 54.304688.097656-1.402344.167969-2.8125.167969-4.238281 0-32.332031-26.210938-58.542969-58.542969-58.542969s-58.542969 26.210938-58.542969 58.542969c0 1.425781.070313 2.835937.167969 4.238281 2.175781-30.351562 27.46875-54.304688 58.375-54.304688zm0 0" fill="#a1f1fc"/><path d="m385.578125 58.542969c0 22.386719-18.148437 40.53125-40.53125 40.53125s-40.53125-18.144531-40.53125-40.53125c0-22.382813 18.148437-40.527344 40.53125-40.527344s40.53125 18.144531 40.53125 40.527344zm0 0" fill="#5fd4e3"/><path d="m342.082031 85.382812c-3.832031-.5625-7.242187-2.039062-10.234375-4.445312-1.746094-1.402344-3.195312-3.15625-4.355468-5.273438-1.410157-2.5625-.308594-5.789062 2.398437-6.894531 2.152344-.878906 4.679687-.132812 5.878906 1.859375.386719.640625.828125 1.253906 1.332031 1.835938 1.375 1.613281 3.035157 2.726562 4.976563 3.335937v-14.566406l-.683594-.304687c-1.890625-.714844-3.667969-1.558594-5.328125-2.53125-1.660156-.96875-3.117187-2.097657-4.367187-3.371094-1.257813-1.277344-2.257813-2.722656-2.992188-4.332032-.746093-1.613281-1.117187-3.414062-1.117187-5.40625 0-1.839843.335937-3.578124 1-5.214843.667968-1.632813 1.621094-3.09375 2.878906-4.367188 1.25-1.277343 2.769531-2.339843 4.5625-3.183593 1.785156-.84375 3.804688-1.390626 6.050781-1.648438v-3.179688c0-1.886718 1.527344-3.414062 3.410157-3.414062 1.882812 0 3.414062 1.527344 3.414062 3.414062v3.332032c2.042969.308594 3.824219.84375 5.328125 1.613281 1.507813.765625 2.800781 1.660156 3.914063 2.644531.425781.378906.839843.832032 1.230468 1.320313 1.9375 2.421875.953125 6.046875-1.878906 7.308593-1.941406.867188-4.179688.324219-5.605469-1.25-.75-.824218-1.738281-1.636718-2.988281-2.207031v13.726563c2.199219.921875 4.1875 1.867187 5.984375 2.839844 1.785156.96875 3.316406 2.066406 4.597656 3.292968 1.28125 1.226563 2.25 2.621094 2.910157 4.175782.671874 1.5625 1 3.367187 1 5.40625 0 2.300781-.394532 4.347656-1.1875 6.132812-.792969 1.789062-1.851563 3.324219-3.183594 4.601562-1.332032 1.277344-2.871094 2.304688-4.636719 3.070313s-3.59375 1.300781-5.484375 1.605469v3.335937c0 1.882813-1.53125 3.410157-3.414062 3.410157-1.882813 0-3.410157-1.527344-3.410157-3.410157zm-5.054687-40.097656c0 1.226563.394531 2.285156 1.183594 3.179688.796874.898437 2.085937 1.804687 3.871093 2.726562v-11.195312c-1.535156.410156-2.753906 1.070312-3.675781 1.988281-.921875.925781-1.378906 2.023437-1.378906 3.300781zm16.558594 24.6875c0-1.328125-.355469-2.429687-1.078126-3.292968-.714843-.871094-1.914062-1.738282-3.601562-2.609376v11.730469c1.382812-.457031 2.507812-1.1875 3.375-2.183593.867188-1 1.304688-2.214844 1.304688-3.644532zm0 0" fill="#a1f1fc"/></svg>