<svg height="512.0004pt" viewBox="0 0 512.0004 512.0004" width="512.0004pt" xmlns="http://www.w3.org/2000/svg"><path d="m456.515625 0h-218.417969c-30.640625 0-55.484375 24.839844-55.484375 55.484375v162.746094c0 30.640625 24.839844 55.484375 55.484375 55.484375h9.464844v58.492187c0 9.230469 11.160156 13.851563 17.6875 7.328125l65.820312-65.820312h125.445313c30.644531 0 55.484375-24.839844 55.484375-55.484375v-162.746094c0-30.644531-24.839844-55.484375-55.484375-55.484375zm0 0" fill="#69ebfc"/><path d="m456.515625 0h-218.417969c-30.640625 0-55.484375 24.839844-55.484375 55.484375v14c0-30.644531 24.84375-55.484375 55.484375-55.484375h218.417969c30.644531 0 55.484375 24.839844 55.484375 55.484375v-14c0-30.644531-24.839844-55.484375-55.484375-55.484375zm0 0" fill="#a1f1fc"/><path d="m380.003906 84.847656h-138.519531c-6.980469 0-12.644531-5.660156-12.644531-12.644531 0-6.980469 5.660156-12.644531 12.644531-12.644531h138.519531c6.980469 0 12.640625 5.660156 12.640625 12.644531s-5.660156 12.644531-12.640625 12.644531zm0 0" fill="#ffefe4"/><path d="m417.519531 194.300781h-174.714843c-6.980469 0-12.640626-5.660156-12.640626-12.644531 0-6.980469 5.660157-12.640625 12.640626-12.640625h174.714843c6.984375 0 12.644531 5.660156 12.644531 12.640625 0 6.984375-5.660156 12.644531-12.644531 12.644531zm0 0" fill="#ffefe4"/><path d="m450.101562 114.289062h-208.617187c-6.980469 0-12.644531 5.660157-12.644531 12.644532 0 6.980468 5.660156 12.640625 12.644531 12.640625h208.617187c6.980469 0 12.644532-5.660157 12.644532-12.640625 0-6.984375-5.664063-12.644532-12.644532-12.644532zm0 0" fill="#ffefe4"/><path d="m110.15625 241.933594c10.671875-6.921875 21.640625-13.507813 31.242188-21.855469 14.472656-12.574219 22.898437-26.351563 5.660156-43.59375 0 0-46.378906-46.378906-46.378906-46.378906-7.128907-7.125-18.949219-10.320313-28.269532-5.867188-5.011718 2.394531-9.132812 6.28125-13.085937 10.183594-3.910157 3.863281-7.730469 7.773437-11.425781 11.75-31.113282 33.429687-53.484376 71.132813-46.671876 119.304687 3.53125 24.949219 13.835938 48.523438 26.636719 70.039063 35.347657 59.390625 89.054688 113.171875 148.625 148.621094 21.511719 12.804687 45.085938 23.105469 70.03125 26.636719 48.175781 6.816406 85.875-15.558594 119.3125-46.671876 3.96875-3.695312 7.882813-7.515624 11.746094-11.425781 3.902344-3.949219 7.789063-8.070312 10.183594-13.082031 4.457031-9.324219 1.261719-21.144531-5.867188-28.273438 0 0-46.378906-46.378906-46.378906-46.378906-17.242187-17.238281-31.015625-8.8125-43.59375 5.660156-8.34375 9.601563-14.929687 20.570313-21.855469 31.242188-5.207031 8.023438-10.941406 14.808594-21.246094 14.019531-22.078124-1.703125-43.386718-20.488281-59.542968-34.019531-21.847656-18.292969-42.164063-38.65625-60.351563-60.597656-13.125-15.832032-31.136719-36.550782-32.789062-58.066406-.789063-10.304688 5.996093-16.042969 14.019531-21.246094zm0 0" fill="#d476e2"/><g fill="#b665c2"><path d="m387.761719 425.59375c-2.394531 5.007812-6.28125 9.128906-10.183594 13.082031-3.863281 3.910157-7.773437 7.730469-11.746094 11.425781-33.4375 31.113282-71.136719 53.488282-119.3125 46.671876-24.945312-3.53125-48.519531-13.835938-70.03125-26.636719-59.570312-35.449219-113.277343-89.230469-148.625-148.621094-12.800781-21.515625-23.105469-45.085937-26.636719-70.039063-.480468-3.421874-.804687-6.789062-1-10.109374-.464843 7.746093-.179687 15.765624 1 24.109374 3.53125 24.953126 13.835938 48.523438 26.636719 70.039063 35.347657 59.390625 89.054688 113.171875 148.625 148.621094 21.511719 12.804687 45.085938 23.105469 70.03125 26.636719 48.175781 6.816406 85.875-15.558594 119.3125-46.671876 3.96875-3.695312 7.882813-7.515624 11.746094-11.425781 3.902344-3.949219 7.789063-8.070312 10.183594-13.082031 2.464843-5.160156 2.582031-11.082031.992187-16.550781-.28125.863281-.59375 1.71875-.992187 2.550781zm0 0"/><path d="m72.410156 124.238281c-5.011718 2.394531-9.132812 6.28125-13.085937 10.183594-.664063.65625-1.3125 1.324219-1.972657 1.984375l83.839844 83.84375c.070313-.058594.140625-.113281.207032-.171875 14.472656-12.574219 22.898437-26.351563 5.660156-43.59375 0 0-46.378906-46.378906-46.378906-46.378906-7.128907-7.128907-18.949219-10.324219-28.269532-5.867188zm0 0"/><path d="m381.894531 411.320312s-46.378906-46.378906-46.378906-46.378906c-17.242187-17.238281-31.015625-8.8125-43.59375 5.660156-.058594.070313-.113281.136719-.171875.207032l83.84375 83.839844c.660156-.660157 1.328125-1.304688 1.984375-1.972657 3.902344-3.949219 7.789063-8.070312 10.183594-13.082031 4.457031-9.324219 1.261719-21.144531-5.867188-28.273438zm0 0"/><path d="m381.894531 411.320312s-46.378906-46.378906-46.378906-46.378906c-17.242187-17.238281-31.015625-8.8125-43.59375 5.660156-.058594.070313-.113281.136719-.171875.207032l83.84375 83.839844c.660156-.660157 1.328125-1.304688 1.984375-1.972657 3.902344-3.949219 7.789063-8.070312 10.183594-13.082031 4.457031-9.324219 1.261719-21.144531-5.867188-28.273438zm0 0"/></g><path d="m388.730469 437.109375c.144531-.445313.285156-.894531.398437-1.347656.058594-.230469.101563-.464844.152344-.695313.09375-.433594.183594-.867187.25-1.300781.035156-.234375.0625-.46875.089844-.707031.054687-.445313.097656-.890625.128906-1.339844.011719-.222656.019531-.441406.027344-.664062.015625-.472657.019531-.945313.007812-1.417969-.007812-.199219-.011718-.398438-.023437-.59375-.023438-.511719-.066407-1.019531-.125-1.53125-.019531-.160157-.035157-.320313-.054688-.480469-.074219-.570312-.167969-1.136719-.28125-1.699219-.019531-.101562-.035156-.203125-.058593-.304687-.140626-.667969-.304688-1.332032-.492188-1.988282-.28125.863282-.59375 1.722657-.992188 2.550782-2.394531 5.011718-6.28125 9.132812-10.183593 13.085937-2.988281 3.023438-6.023438 5.976563-9.078125 8.882813l7.089844 7.089844c.660156-.660157 1.328124-1.308594 1.988281-1.972657 1.460937-1.484375 2.921875-2.988281 4.304687-4.554687 2.300782-2.613282 4.378906-5.398438 5.878906-8.527344.292969-.621094.550782-1.25.777344-1.886719.078125-.195312.132813-.398437.195313-.597656zm0 0" fill="#94529e"/><path d="m97.128906 269.53125c-.824218 2.253906-1.210937 4.765625-.988281 7.648438 1.652344 21.515624 19.660156 42.234374 32.785156 58.066406 18.191407 21.941406 38.503907 42.304687 60.351563 60.597656 16.160156 13.53125 37.464844 32.316406 59.546875 34.019531 10.300781.789063 16.039062-5.996093 21.246093-14.019531 6.921876-10.671875 13.507813-21.640625 21.851563-31.242188 12.578125-14.472656 26.355469-22.898437 43.59375-5.660156 0 0 46.378906 46.378906 46.378906 46.378906 3.1875 3.1875 5.574219 7.304688 6.859375 11.722657 2.84375-8.847657-.363281-19.230469-6.859375-25.722657 0 0-46.378906-46.378906-46.378906-46.378906-17.238281-17.238281-31.011719-8.8125-43.59375 5.660156-8.34375 9.601563-14.929687 20.570313-21.851563 31.242188-5.207031 8.023438-10.945312 14.808594-21.246093 14.019531-22.082031-1.703125-43.386719-20.488281-59.546875-34.019531-21.847656-18.292969-42.160156-38.65625-60.351563-60.597656-11.824219-14.265625-27.578125-32.507813-31.796875-51.714844zm0 0" fill="#ea82fa"/><path d="m298.628906 377.6875c10.789063-9.714844 22.65625-12.976562 36.886719 1.253906 0 0 46.378906 46.378906 46.378906 46.378906 3.183594 3.183594 5.574219 7.304688 6.859375 11.71875 1.394532-4.34375 1.324219-9.054687.128906-13.496093-.027343-.113281-.054687-.230469-.089843-.339844-.117188-.421875-.253907-.835937-.390625-1.25-.058594-.179687-.117188-.355469-.179688-.53125-.132812-.371094-.273437-.734375-.421875-1.097656-.089843-.21875-.179687-.4375-.273437-.652344-.144532-.324219-.289063-.648437-.445313-.972656-.121093-.246094-.242187-.488281-.371093-.734375-.148438-.289063-.300782-.578125-.460938-.859375-.148438-.269531-.308594-.53125-.46875-.792969-.152344-.253906-.308594-.511719-.46875-.757812-.1875-.285157-.382812-.566407-.582031-.84375-.152344-.21875-.300781-.4375-.460938-.648438-.234375-.3125-.484375-.613281-.734375-.917969-.132812-.164062-.265625-.335937-.40625-.496093-.394531-.457032-.804687-.902344-1.230468-1.328126 0 0-2.21875-2.21875-5.6875-5.6875-1.488282-1.488281-3.203126-3.203124-5.070313-5.070312-.621094-.621094-1.261719-1.261719-1.917969-1.917969-3.269531-3.269531-6.890625-6.890625-10.515625-10.515625-.722656-.722656-1.449219-1.449218-2.171875-2.171875-10.828125-10.828125-21.015625-21.015625-21.015625-21.015625-1.617187-1.617187-3.203125-3.007812-4.761719-4.1875-.519531-.394531-1.035156-.765625-1.546874-1.113281-2.566407-1.742187-5.050782-2.914063-7.46875-3.59375-11.121094-3.128906-20.777344 4.152344-29.820313 14.554687-.058594.066407-.113281.136719-.167969.203126zm0 0" fill="#d476e2"/><path d="m47.898438 160.171875c3.695312-3.972656 7.515624-7.886719 11.425781-11.75 3.949219-3.902344 8.070312-7.789063 13.085937-10.183594 9.320313-4.457031 21.140625-1.261719 28.269532 5.867188 0 0 46.378906 46.378906 46.378906 46.378906 4.191406 4.195313 6.855468 8.179687 8.296875 11.996094 2.941406-7.851563 1.316406-16.382813-8.296875-25.996094 0 0-46.378906-46.378906-46.378906-46.378906-7.128907-7.125-18.949219-10.320313-28.269532-5.867188-5.011718 2.394531-9.132812 6.28125-13.085937 10.183594-3.910157 3.863281-7.730469 7.773437-11.425781 11.75-28.898438 31.054687-50.242188 65.800781-47.671876 109.195313 2.214844-36.988282 21.949219-67.554688 47.671876-95.195313zm0 0" fill="#ea82fa"/><path d="m57.351562 136.40625 7.167969 7.167969c2.429688-2.082031 5.007813-3.960938 7.890625-5.335938 9.324219-4.457031 21.144532-1.261719 28.269532 5.867188 0 0 46.378906 46.378906 46.378906 46.378906 4.195312 4.195313 6.859375 8.179687 8.296875 11.996094.175781-.46875.335937-.945313.480469-1.421875.019531-.066406.035156-.132813.054687-.203125.121094-.410157.226563-.820313.320313-1.234375.019531-.097656.042968-.199219.0625-.300782.078124-.382812.148437-.769531.203124-1.160156.019532-.113281.035157-.230468.050782-.34375.046875-.378906.082031-.761718.105468-1.140625.007813-.121093.019532-.242187.023438-.363281.019531-.386719.019531-.78125.015625-1.171875-.003906-.109375 0-.21875-.003906-.332031-.015625-.425782-.050781-.855469-.09375-1.289063-.011719-.074219-.011719-.152343-.023438-.226562-.117187-1.03125-.328125-2.078125-.628906-3.136719-.015625-.046875-.035156-.097656-.050781-.148438-.132813-.460937-.289063-.929687-.460938-1.394531-.054687-.152343-.121094-.304687-.179687-.453125-.144531-.371094-.296875-.742187-.46875-1.117187-.082031-.1875-.175781-.375-.269531-.5625-.164063-.339844-.335938-.683594-.519532-1.027344-.109375-.207031-.226562-.410156-.347656-.617187-.1875-.332032-.382812-.664063-.59375-.996094-.132812-.21875-.269531-.433594-.414062-.648438-.214844-.332031-.445313-.664062-.683594-.996094-.15625-.222656-.308594-.4375-.472656-.660156-.253907-.339844-.523438-.679687-.792969-1.023437-.171875-.214844-.335938-.429688-.515625-.644531-.308594-.375-.640625-.75-.972656-1.125-.167969-.1875-.324219-.371094-.496094-.558594-.507813-.558594-1.039063-1.117188-1.597656-1.675782-.011719-.011718-.015626-.019531-.027344-.027343 0 0-4.53125-4.53125-10.757813-10.757813-3.113281-3.113281-6.652343-6.652344-10.261719-10.261718-1.445312-1.441407-2.898437-2.898438-4.34375-4.339844-2.886718-2.890625-5.730468-5.730469-8.34375-8.347656-1.308593-1.308594-2.5625-2.558594-3.730468-3.730469-5.273438-5.273438-8.941406-8.941407-8.941406-8.941407-1.785157-1.78125-3.855469-3.316406-6.113282-4.550781-3.949218-2.15625-8.449218-3.378906-12.902344-3.363281-3.183593.011719-6.339843.65625-9.253906 2.046875-4.386718 2.09375-8.089844 5.332031-11.59375 8.722656-.5.484375-.996094.972657-1.488281 1.460938-.667969.660156-1.316406 1.328125-1.976563 1.988281zm0 0" fill="#d476e2"/></svg>