<?xml version="1.0" encoding="iso-8859-1"?>
<!-- Generator: Adobe Illustrator 19.0.0, SVG Export Plug-In . SVG Version: 6.00 Build 0)  -->
<svg xmlns="http://www.w3.org/2000/svg" xmlns:xlink="http://www.w3.org/1999/xlink" version="1.1" id="Layer_1" x="0px" y="0px" viewBox="0 0 505 505" style="enable-background:new 0 0 505 505;" xml:space="preserve" width="512" height="512">
<g>
	<g>
		<path style="fill:#F0CD00;" d="M497.503,252.499c0,135.31-109.69,245-245,245c-71.33,0-135.54-30.48-180.31-79.13    c-11.76-12.77-22.17-26.8-31.03-41.85c-21.39-36.38-33.66-78.77-33.66-124.02c0-135.31,109.69-245,245-245    c45.26,0,87.65,12.27,124.02,33.67c15.05,8.85,29.07,19.26,41.84,31.03C467.013,116.949,497.503,181.169,497.503,252.499z"/>
		<path style="fill:#FFDE50;" d="M497.503,252.499c0,132.26-104.79,240.04-235.88,244.83c-131.09-4.79-235.88-112.57-235.88-244.83    s104.79-240.04,235.88-244.83C392.713,12.459,497.503,120.239,497.503,252.499z"/>
		<path style="fill:#FFEA94;" d="M418.363,72.199l-346.17,346.17c-11.76-12.77-22.17-26.8-31.03-41.85l335.36-335.35    C391.573,50.019,405.593,60.429,418.363,72.199z"/>
		<path style="fill:#FFEA94;" d="M480.603,162.929l-317.68,317.68c-22.49-8.84-43.36-20.91-62.03-35.64l344.08-344.08    C459.703,119.559,471.773,140.429,480.603,162.929z"/>
		<path style="fill:#FAA300;" d="M442.883,252.499c0,105.14-85.24,190.38-190.38,190.38c-36.62,0-70.82-10.34-99.85-28.26    c-12.65-7.8-24.31-17.05-34.77-27.51c-7.69-7.68-14.73-16.03-21.02-24.94c-8.66-12.27-15.91-25.61-21.5-39.78    c-8.28-20.95-12.94-43.73-13.22-67.55c-0.02-0.78-0.02-1.56-0.02-2.34c0-105.14,85.23-190.38,190.38-190.38    c0.78,0,1.57,0,2.35,0.02c23.82,0.28,46.59,4.95,67.54,13.22c14.17,5.6,27.51,12.84,39.78,21.5c8.91,6.3,17.25,13.33,24.94,21.02    c10.46,10.45,19.71,22.12,27.51,34.77C432.543,181.679,442.883,215.879,442.883,252.499z"/>
		<path style="fill:#FFBD00;" d="M387.113,117.879l-269.23,269.23c-7.69-7.68-14.73-16.03-21.02-24.94    c-8.66-12.27-15.91-25.61-21.5-39.78c-8.28-20.95-12.94-43.73-13.22-67.55c-0.02-0.78-0.02-1.56-0.02-2.34    c0-105.14,85.23-190.38,190.38-190.38c0.78,0,1.57,0,2.35,0.02c23.82,0.28,46.59,4.95,67.54,13.22    c14.17,5.6,27.51,12.84,39.78,21.5C371.083,103.159,379.423,110.189,387.113,117.879z"/>
		<path style="fill:#F68E00;" d="M442.878,252.499c0,105.14-85.24,190.38-190.38,190.38c-3.61,0-7.19-0.1-10.75-0.3    c100.14-5.57,179.62-88.55,179.62-190.08s-79.48-184.51-179.62-190.08c3.56-0.2,7.14-0.3,10.75-0.3    C357.638,62.119,442.878,147.359,442.878,252.499z"/>
	</g>
	<path d="M252.5,505c-67.445,0-130.854-26.265-178.544-73.956C26.265,383.354,0,319.945,0,252.5S26.265,121.646,73.956,73.956   C121.646,26.265,185.055,0,252.5,0c77.813,0,150.111,35.081,198.358,96.247c2.565,3.252,2.009,7.968-1.244,10.533   c-3.253,2.564-7.967,2.008-10.533-1.244C393.697,47.999,325.69,15,252.5,15c-63.438,0-123.08,24.704-167.938,69.562   C39.704,129.42,15,189.062,15,252.5s24.704,123.08,69.563,167.938C129.42,465.296,189.062,490,252.5,490   s123.08-24.704,167.938-69.562C465.296,375.58,490,315.938,490,252.5c0-42.531-11.373-84.255-32.89-120.661   c-2.107-3.566-0.925-8.165,2.641-10.272c3.569-2.108,8.166-0.925,10.273,2.641C492.905,162.923,505,207.286,505,252.5   c0,67.445-26.265,130.854-73.956,178.544C383.354,478.735,319.945,505,252.5,505z"/>
	<path d="M252.5,450.378c-109.11,0-197.879-88.768-197.879-197.878S143.39,54.622,252.5,54.622S450.378,143.39,450.378,252.5   S361.61,450.378,252.5,450.378z M252.5,69.622c-100.84,0-182.879,82.039-182.879,182.878S151.66,435.378,252.5,435.378   c100.839,0,182.878-82.039,182.878-182.878S353.339,69.622,252.5,69.622z"/>
	<g>
		<path style="fill:#F68E00;" d="M317.95,233.537h-36.639c-11.046,0-20,8.954-20,20v73.278v48.166c0,11.046,8.954,20,20,20    s20-8.954,20-20v-28.166h16.639c31.23,0,56.639-25.408,56.639-56.639C374.588,258.945,349.18,233.537,317.95,233.537z     M317.95,306.814h-16.639v-33.278h16.639c9.175,0,16.639,7.464,16.639,16.639S327.124,306.814,317.95,306.814z"/>
		<path style="fill:#F68E00;" d="M254.708,194.522c0-40.399-32.868-73.267-73.268-73.267h-43.266c-11.046,0-20,8.954-20,20V247.79    v79.025c0,11.046,8.954,20,20,20s20-8.954,20-20V267.79h17.089l13.51,63.206c2.008,9.393,10.306,15.823,19.539,15.823    c1.385,0,2.791-0.145,4.2-0.446c10.802-2.309,17.687-12.937,15.378-23.739l-13.413-62.748    C238.321,247.785,254.708,223.039,254.708,194.522z M181.441,227.79h-23.266v-66.534h23.266c18.344,0,33.268,14.923,33.268,33.267    C214.708,212.866,199.785,227.79,181.441,227.79z"/>
	</g>
	<g>
		<path style="fill:#FFEA94;" d="M342.951,233.537h-36.639c-11.046,0-20,8.954-20,20v73.278v48.166c0,11.046,8.954,20,20,20    s20-8.954,20-20v-28.166h16.639c31.23,0,56.639-25.408,56.639-56.639C399.59,258.945,374.182,233.537,342.951,233.537z     M342.951,306.814h-16.639v-33.278h16.639c9.175,0,16.639,7.464,16.639,16.639S352.126,306.814,342.951,306.814z"/>
		<path style="fill:#FFEA94;" d="M279.71,194.522c0-40.399-32.868-73.267-73.268-73.267h-43.266c-11.046,0-20,8.954-20,20V247.79    v79.025c0,11.046,8.954,20,20,20s20-8.954,20-20V267.79h17.089l13.51,63.206c2.008,9.393,10.306,15.823,19.539,15.823    c1.385,0,2.791-0.145,4.2-0.446c10.802-2.309,17.687-12.937,15.378-23.739l-13.413-62.748    C263.323,247.785,279.71,223.039,279.71,194.522z M206.442,227.79h-23.266v-66.534h23.266c18.344,0,33.268,14.923,33.268,33.267    C239.71,212.866,224.786,227.79,206.442,227.79z"/>
	</g>
	<g>
		<path d="M306.313,402.48c-15.163,0-27.5-12.336-27.5-27.5V253.537c0-15.164,12.337-27.5,27.5-27.5h36.639    c35.366,0,64.139,28.773,64.139,64.139s-28.772,64.139-64.139,64.139h-9.139v20.666    C333.813,390.144,321.476,402.48,306.313,402.48z M306.313,241.037c-6.893,0-12.5,5.607-12.5,12.5V374.98    c0,6.893,5.607,12.5,12.5,12.5s12.5-5.607,12.5-12.5v-28.166c0-4.142,3.357-7.5,7.5-7.5h16.639    c27.095,0,49.139-22.043,49.139-49.139s-22.044-49.139-49.139-49.139H306.313z M342.951,314.314h-16.639    c-4.143,0-7.5-3.358-7.5-7.5v-33.278c0-4.142,3.357-7.5,7.5-7.5h16.639c13.311,0,24.139,10.829,24.139,24.139    C367.09,303.486,356.262,314.314,342.951,314.314z M333.813,299.314h9.139c5.039,0,9.139-4.1,9.139-9.139    c0-5.04-4.1-9.139-9.139-9.139h-9.139V299.314z"/>
		<path d="M233.315,354.318c-12.877,0-24.179-9.149-26.873-21.755L194.2,275.29h-3.523v51.525c0,15.164-12.337,27.5-27.5,27.5    s-27.5-12.336-27.5-27.5V304.51c0-4.142,3.357-7.5,7.5-7.5s7.5,3.358,7.5,7.5v22.304c0,6.893,5.607,12.5,12.5,12.5    s12.5-5.607,12.5-12.5V267.79c0-4.142,3.357-7.5,7.5-7.5h17.09c3.538,0,6.595,2.473,7.334,5.932l13.51,63.206    c1.226,5.731,6.358,9.891,12.205,9.891c0.877,0,1.763-0.094,2.632-0.28c6.741-1.44,11.053-8.096,9.612-14.837l-13.412-62.748    c-0.712-3.327,0.906-6.716,3.939-8.256c22.281-11.309,36.123-33.792,36.123-58.675c0-36.264-29.503-65.767-65.768-65.767h-43.266    c-6.893,0-12.5,5.607-12.5,12.5v133.252c0,4.142-3.357,7.5-7.5,7.5s-7.5-3.358-7.5-7.5V141.256c0-15.164,12.337-27.5,27.5-27.5    h43.266c44.535,0,80.768,36.232,80.768,80.767c0,28.615-14.89,54.64-39.232,69.232l12.25,57.312    c3.17,14.829-6.315,29.472-21.145,32.641C237.186,354.113,235.245,354.318,233.315,354.318z M206.442,235.29h-23.266    c-4.143,0-7.5-3.358-7.5-7.5v-66.534c0-4.142,3.357-7.5,7.5-7.5h23.266c22.479,0,40.768,18.288,40.768,40.767    S228.922,235.29,206.442,235.29z M190.677,220.29h15.766c14.208,0,25.768-11.559,25.768-25.767    c0-14.208-11.56-25.767-25.768-25.767h-15.766V220.29z"/>
	</g>
</g>















</svg>
