<svg id="Layer_1" enable-background="new 0 0 512 512" height="512" viewBox="0 0 512 512" width="512" xmlns="http://www.w3.org/2000/svg"><g><g><g><path d="m226.293 280.004c-6.447 0-12.523-3.925-14.955-10.308l-63.124-165.696h-124.214c-8.836 0-16-7.163-16-16s7.164-16 16-16h124.214c13.19 0 25.207 8.281 29.903 20.607l63.125 165.696c3.146 8.258-.998 17.502-9.255 20.648-1.875.715-3.8 1.053-5.694 1.053z" fill="#463c4b"/></g><g><path d="m392 392h-192c-26.467 0-48-21.533-48-48s21.533-48 48-48h64c8.836 0 16 7.163 16 16s-7.164 16-16 16h-64c-8.822 0-16 7.178-16 16s7.178 16 16 16h192c8.836 0 16 7.163 16 16s-7.164 16-16 16z" fill="#463c4b"/></g><g><path d="m408 392h-288c-26.467 0-48-21.533-48-48s21.533-48 48-48h64c8.836 0 16 7.163 16 16s-7.164 16-16 16h-64c-8.822 0-16 7.178-16 16s7.178 16 16 16h288c8.836 0 16 7.163 16 16s-7.164 16-16 16z" fill="#555a6e"/></g><g><path d="m146.293 280.004c-6.447 0-12.523-3.925-14.955-10.308l-63.124-165.696h-44.214c-8.836 0-16-7.163-16-16s7.164-16 16-16h44.214c13.19 0 25.207 8.281 29.903 20.607l63.125 165.696c3.146 8.258-.998 17.502-9.255 20.648-1.875.715-3.8 1.053-5.694 1.053z" fill="#555a6e"/></g><g><path d="m88 156.27c0 2.466.45 4.911 1.328 7.216l56.784 149.058c3.545 9.306 12.469 15.456 22.428 15.456h238.92c9.959 0 18.883-6.15 22.428-15.456l56.784-149.058c.878-2.305 1.328-4.75 1.328-7.216 0-11.195-9.075-20.27-20.27-20.27h-359.46c-11.195 0-20.27 9.075-20.27 20.27z" fill="#289bc3"/></g><g><g><path d="m387.73 136h-279.46c-11.195 0-20.27 9.075-20.27 20.27 0 2.466.45 4.911 1.328 7.216l56.784 149.058c3.545 9.306 12.469 15.456 22.428 15.456h158.92c9.958 0 18.882-6.15 22.428-15.456l56.784-149.058c.878-2.305 1.328-4.75 1.328-7.216 0-11.195-9.075-20.27-20.27-20.27zm-32.762 50.848-10.09 26.485h-78.212v-37.333h80.825c5.604 0 9.472 5.612 7.477 10.848zm-206.46-10.848h80.825v37.333h-78.212l-10.09-26.485c-1.994-5.236 1.874-10.848 7.477-10.848zm28.114 104.272-11.278-29.605h63.989v37.333h-41.497c-4.979 0-9.441-3.075-11.214-7.728zm142.756 0c-1.773 4.653-6.235 7.728-11.214 7.728h-41.497v-37.333h63.989z" fill="#00d2d2"/></g><g><path d="m266.667 213.333h78.212l10.09-26.485c1.995-5.236-1.873-10.848-7.476-10.848h-80.825v37.333z" fill="#d7e6f0"/></g><g><path d="m266.667 250.667v37.333h41.497c4.979 0 9.441-3.075 11.214-7.728l11.278-29.605z" fill="#d7e6f0"/></g><g><path d="m151.122 213.333h78.212v-37.333h-80.825c-5.603 0-9.471 5.612-7.476 10.848z" fill="#d7e6f0"/></g><g><path d="m229.333 250.667h-63.989l11.278 29.605c1.773 4.653 6.235 7.728 11.214 7.728h41.497z" fill="#d7e6f0"/></g></g><g><path d="m144 488h-24c-26.51 0-48-21.49-48-48 0-26.51 21.49-48 48-48h24c26.51 0 48 21.49 48 48 0 26.51-21.49 48-48 48z" fill="#289bc3"/></g><g><circle cx="120" cy="440" fill="#00d2d2" r="48"/></g><g><circle cx="120" cy="440" fill="#d7e6f0" r="24"/></g><g><path d="m376 488h-24c-26.51 0-48-21.49-48-48 0-26.51 21.49-48 48-48h24c26.51 0 48 21.49 48 48 0 26.51-21.49 48-48 48z" fill="#289bc3"/></g><g><circle cx="352" cy="440" fill="#00d2d2" r="48"/></g><g><circle cx="352" cy="440" fill="#d7e6f0" r="24"/></g></g><g><circle cx="392" cy="136" fill="#ff6e91" r="112"/></g><g><path d="m448 120h-40v-40c0-8.836-7.163-16-16-16s-16 7.164-16 16v40h-40c-8.837 0-16 7.164-16 16 0 8.837 7.163 16 16 16h40v40c0 8.837 7.163 16 16 16s16-7.163 16-16v-40h40c8.837 0 16-7.163 16-16 0-8.836-7.163-16-16-16z" fill="#d7e6f0"/></g></g></svg>