<svg id="Layer_1" enable-background="new 0 0 512 512" height="512" viewBox="0 0 512 512" width="512" xmlns="http://www.w3.org/2000/svg"><g><path d="m436.677 360.758c-17.046-24.603-26.18-53.822-26.18-83.753v-56.398c0-81.182-65.811-146.993-146.993-146.993h-15.008c-81.182 0-146.993 65.811-146.993 146.993v56.398c0 29.931-9.133 59.15-26.18 83.753l-6.818 9.841v68.997h374.99v-68.997z" fill="#faed8a"/><path d="m248.496 73.614c14.307 0 22.777-.347 35.504 1.429v-39.543c0-15.464-12.536-28-28-28s-28 12.536-28 28v39.544c6.699-.935 13.539-1.43 20.496-1.43z" fill="#edbe74"/><path d="m220.08 439.596c-4.097 6.524-6.475 14.237-6.475 22.509 0 23.414 18.981 42.395 42.395 42.395s42.395-18.981 42.395-42.395c0-8.272-2.378-15.985-6.475-22.509z" fill="#edbe74"/><path d="m95.323 360.758c17.047-24.603 26.18-53.822 26.18-83.753v-56.398c0-80.347 64.468-145.627 144.497-146.961-2.521-.042.043-.032-17.504-.032-81.182 0-146.993 65.811-146.993 146.993v56.398c0 29.931-9.133 59.15-26.18 83.753l-6.818 9.841v68.997h20v-68.997z" fill="#e8ab4c"/><g><g><g><path d="m266 73.659c6.096.104 12.105.563 18 1.385v-1.42c-3.272-.012-13.84-.036-18 .035z" fill="#e8ab4c"/></g><g><path d="m248 35.5c0-11.94 7.476-22.127 18-26.154-18.295-7-38 6.531-38 26.154v39.544c6.539-.912 13.215-1.398 20-1.42z" fill="#e68b00"/></g></g></g><path d="m240.08 439.596h-20c-4.097 6.524-6.475 14.237-6.475 22.509 0 27.35 25.602 47.678 52.395 41.197-28.328-6.852-41.145-39.462-25.92-63.706z" fill="#e68b00"/><path d="m442.844 356.487c-16.253-23.449-24.844-50.932-24.844-79.477v-56.4c0-75.632-54.63-138.739-126.5-151.951v-33.159c0-19.575-15.925-35.5-35.5-35.5s-35.5 15.925-35.5 35.5v33.123c-31.442 5.706-60.234 21.014-82.997 44.509l10.773 10.438c27.289-28.167 63.274-42.455 100.22-42.455 13.292 0 21.95-.374 34.328 1.34 67.807 9.438 120.176 67.791 120.176 138.155v56.4c0 31.613 9.515 62.051 27.516 88.022l2.126 3.067h-353.284l2.126-3.067c18.001-25.971 27.516-56.409 27.516-88.022v-56.4c0-31.66 10.336-61.5 29.89-86.296l-11.778-9.288c-21.663 27.468-33.112 60.521-33.112 95.584v56.4c0 28.545-8.591 56.028-24.844 79.478l-8.156 11.767v78.845h147.419c-10.148 32.164 13.996 64.9 47.581 64.9 33.594 0 57.726-32.742 47.582-64.9h54.728v-15h-282.31v-49h360v49h-62.69v15h77.69v-78.845zm-207.344-320.987c0-11.304 9.196-20.5 20.5-20.5s20.5 9.196 20.5 20.5v31.162c-4.25-1.162-37.25-.828-41-.008 0-.008 0-31.154 0-31.154zm55.395 426.605c0 19.241-15.654 34.895-34.895 34.895s-34.895-15.654-34.895-34.895c0-5.221 1.164-10.338 3.392-15.005h63.005c2.229 4.666 3.393 9.784 3.393 15.005z"/><g><path d="m310.509 415.181h-15v-15h15zm-45 0h-15v-15h15zm-45 0h-15v-15h15z" fill="#fff"/></g></g></svg>