<?xml version="1.0" encoding="utf-8"?>
<!-- Generator: Adobe Illustrator 22.1.0, SVG Export Plug-In . SVG Version: 6.00 Build 0)  -->
<svg xmlns="http://www.w3.org/2000/svg" xmlns:xlink="http://www.w3.org/1999/xlink" version="1.1" id="Layer_1" x="0px" y="0px" viewBox="0 0 256 256" style="enable-background:new 0 0 256 256;" xml:space="preserve" width="512" height="512">
<style type="text/css">
	.st0{fill:#FFDF74;}
	.st1{fill:#FFD551;}
	.st2{fill:#F9BB32;}
	.st3{fill:#FFA730;}
	.st4{fill:#E58D23;}
	.st5{fill:#DB9C2E;}
	.st6{fill:#FFB74B;}
	.st7{fill:#BF6C0D;}
	.st8{fill:#A56021;}
	.st9{fill:#FFC34C;}
	.st10{fill:#CCC033;}
	.st11{fill:#FFF4C1;}
	.st12{fill:#FF624B;}
	.st13{fill:#FF4B34;}
	.st14{fill:#EACF32;}
	.st15{fill:#99AF17;}
	.st16{fill:#8C4C17;}
	.st17{fill:#FCE575;}
	.st18{fill:#FF9079;}
	.st19{fill:#FCF9DE;}
	.st20{fill:#FFD59A;}
	.st21{fill:#FFEACF;}
	.st22{fill:#FCDA4F;}
</style>
<g>
	<g>
		<rect x="41.963" y="47.667" class="st11" width="138" height="162"/>
	</g>
	<g>
		<path class="st5" d="M153.63,8h-88c-13.807,0-25,11.193-25,25v14h138V33C178.63,19.193,167.437,8,153.63,8z"/>
	</g>
	<g>
		<path class="st5" d="M40.63,209v14c0,13.807,11.193,25,25,25h88c13.807,0,25-11.193,25-25v-14H40.63z"/>
	</g>
	<g>
		<circle class="st2" cx="82.63" cy="29.667" r="4"/>
	</g>
	<g>
		<path class="st2" d="M134.63,33.667h-32c-2.209,0-4-1.791-4-4v0c0-2.209,1.791-4,4-4h32c2.209,0,4,1.791,4,4v0    C138.63,31.876,136.839,33.667,134.63,33.667z"/>
	</g>
	<g>
		<circle class="st1" cx="109.63" cy="228.5" r="14"/>
	</g>
	<g>
		<rect x="40.63" y="47" class="st17" width="30" height="162"/>
	</g>
	<g>
		<path class="st7" d="M95.63,8h-30c-13.807,0-25,11.193-25,25v14h30V33C70.63,19.193,81.823,8,95.63,8z"/>
	</g>
	<g>
		<path class="st7" d="M70.63,223v-14h-30v14c0,13.807,11.193,25,25,25h30C81.823,248,70.63,236.807,70.63,223z"/>
	</g>
	<g>
		<path class="st19" d="M170.63,204c-1.657,0-3-1.343-3-3v-51.333c0-1.657,1.343-3,3-3s3,1.343,3,3V201    C173.63,202.657,172.287,204,170.63,204z"/>
	</g>
	<g>
		<g>
			<path class="st2" d="M154.297,243c-1.657,0-3-1.343-3-3s1.343-3,3-3c7.72,0,14-6.28,14-14v-6c0-1.657,1.343-3,3-3s3,1.343,3,3v6     C174.297,234.028,165.325,243,154.297,243z"/>
		</g>
	</g>
	<g>
		<path class="st12" d="M214.613,111.504l-21.416-16.993c-1.311-1.04-3.243-0.107-3.243,1.567v3.86c0,1.105-0.895,2-2,2h-49.532    c-1.105,0-2,0.895-2,2v22c0,1.105,0.895,2,2,2h49.532c1.105,0,2,0.895,2,2v3.36c0,1.754,2.098,2.659,3.373,1.454l21.416-20.227    C215.629,113.688,215.567,112.261,214.613,111.504z"/>
	</g>
	<g>
		<path class="st13" d="M148.422,111.937c0-1.104,0.895-2,2-2h49.532c1.105,0,2-0.896,2-2v-3.86c0-0.812,0.458-1.442,1.076-1.765    l-9.832-7.802c-1.311-1.04-3.243-0.106-3.243,1.567v3.86c0,1.104-0.895,2-2,2h-49.532c-1.105,0-2,0.896-2,2v22    c0,1.104,0.895,2,2,2h10V111.937z"/>
	</g>
	<g>
		<path class="st3" d="M111.72,137.566l21.416-16.993c1.311-1.04,3.243-0.107,3.243,1.567V126c0,1.105,0.895,2,2,2h49.532    c1.105,0,2,0.895,2,2v22c0,1.105-0.895,2-2,2H138.38c-1.105,0-2,0.895-2,2v3.36c0,1.754-2.098,2.659-3.373,1.454l-21.416-20.227    C110.705,139.751,110.766,138.323,111.72,137.566z"/>
	</g>
	<g>
		<path class="st4" d="M118.757,133.056l21.416,20.227c1.276,1.205,3.373,0.3,3.373-1.454v-3.36c0-1.104,0.895-2,2-2h44.365V152    c0,1.104-0.895,2-2,2H138.38c-1.105,0-2,0.896-2,2v3.36c0,1.755-2.098,2.659-3.373,1.454l-21.416-20.227    c-0.886-0.836-0.824-2.264,0.13-3.021l6.561-5.206C118.385,132.615,118.542,132.853,118.757,133.056z"/>
	</g>
	<g>
		<circle class="st17" cx="84.63" cy="196.33" r="9"/>
	</g>
</g>
</svg>
