<svg height="512pt" viewBox="-76 0 512 512.00031" width="512pt" xmlns="http://www.w3.org/2000/svg"><path d="m223.71875 366.496094c0 13.214844-7.847656 23.921875-17.527344 23.921875h-51.324218c-9.679688 0-17.527344-10.707031-17.527344-23.921875v-88.859375c0-13.214844 7.847656-23.921875 17.527344-23.921875h51.324218c9.679688 0 17.527344 10.707031 17.527344 23.921875zm0 0" fill="#ffd0c6"/><path d="m360.066406 476.191406-23.75-99.449218c-7.457031-24.566407-32.511718-55.648438-72.617187-55.648438h-39.96875l-.058594.09375c-20.570313 30.699219-65.828125 30.652344-86.332031-.09375h-40.164063c-40.105469 0-62.367187 27.132812-72.621093 55.648438l-23.75 99.449218c-4.367188 18.277344 9.597656 35.808594 28.519531 35.808594h68.070312l83.042969-28.121094 82.707031 28.121094h68.402344c18.921875 0 32.886719-17.53125 28.519531-35.808594zm0 0" fill="#d9f4ff"/><path d="m360.066406 476.191406-23.75-99.449218c-7.457031-24.566407-32.511718-55.648438-72.617187-55.648438h-39.96875l-.019531.03125c39.359374.65625 63.972656 31.3125 71.347656 55.617188l23.75 99.449218c4.367187 18.277344-9.597656 35.808594-28.519532 35.808594h41.257813c18.921875 0 32.886719-17.53125 28.519531-35.808594zm0 0" fill="#a6cdde"/><path d="m234.359375 321.097656v117.101563h-108.179687v-117.101563h-28.785157v190.902344h165.75v-190.902344zm0 0" fill="#8ed7f5"/><path d="m280.03125 150.660156c0 73.964844-33.640625 133.925782-99.59375 133.925782-65.957031 0-99.597656-59.960938-99.597656-133.925782s33.640625-133.929687 99.597656-133.929687c65.953125 0 99.59375 59.964843 99.59375 133.929687" fill="#fee2d8"/><path d="m283.132812 131.332031c-1.300781-.132812-2.59375.058594-3.859374.527344-5.292969-65.0625-38.574219-115.128906-98.835938-115.128906-60.265625 0-93.542969 50.066406-98.839844 115.128906-1.265625-.46875-2.558594-.660156-3.859375-.527344-8.515625.867188-14.039062 15.121094-12.328125 31.839844 1.710938 16.722656 10.007813 29.570313 18.523438 28.707031.238281-.023437.46875-.0625.699218-.105468 10.476563 53.847656 42.636719 92.8125 95.804688 92.8125 53.164062 0 85.324219-38.964844 95.800781-92.8125.230469.042968.464844.082031.699219.105468 8.515625.867188 16.8125-11.984375 18.523438-28.707031 1.710937-16.71875-3.8125-30.972656-12.328126-31.839844zm0 0" fill="#fee2d8"/><path d="m283.132812 131.332031c-1.300781-.132812-2.59375.058594-3.859374.527344-5.292969-65.0625-38.570313-115.128906-98.835938-115.128906-6.328125 0-12.351562.558593-18.082031 1.621093 104.761719 30.921876 99.964843 225.214844 0 264.605469 5.734375 1.0625 11.753906 1.628907 18.082031 1.628907 53.164062 0 85.324219-38.964844 95.800781-92.8125.230469.042968.464844.082031.699219.105468 8.515625.867188 16.8125-11.980468 18.523438-28.707031 1.710937-16.71875-3.8125-30.972656-12.328126-31.839844zm0 0" fill="#ffd0c6"/><path d="m81.597656 131.859375s-36.617187-11.253906-22.414062-74.710937c11.359375-50.75 49.757812-68.023438 102.183594-50.523438 64.859374-17.332031 97.039062 61.898438 142.472656 46.148438 60.722656-21.050782 11.414062 68.609374-24.566406 79.085937-64.558594 18.800781-87.890626-16.804687-123.222657-28.632813-35.703125-11.953124-47.933593 4.671876-74.453125 28.632813zm0 0" fill="#ffd778"/><path d="m303.839844 52.773438c-45.4375 15.75-77.613282-63.480469-142.472656-46.148438-27.761719-9.265625-51.589844-8.777344-69.550782 1.265625 68.433594-9.535156 104.71875 73.121094 154.976563 55.703125 55.46875-19.226562 31.855469 41.101562-1.078125 73.632812 9.875-.097656 20.925781-1.6875 33.558594-5.367187 35.980468-10.476563 85.289062-100.136719 24.566406-79.085937zm0 0" fill="#fec250"/></svg>