<svg height="512pt" viewBox="0 -107 512 512" width="512pt" xmlns="http://www.w3.org/2000/svg" xmlns:xlink="http://www.w3.org/1999/xlink"><linearGradient id="a" gradientUnits="userSpaceOnUse" x1="123.3661518324" x2="469.5080166436" y1="16.4575418324" y2="362.5994066436"><stop offset="0" stop-color="#ffd459"/><stop offset=".2296" stop-color="#ffd355"/><stop offset=".4362" stop-color="#ffcf4a"/><stop offset=".634" stop-color="#ffc838"/><stop offset=".825" stop-color="#ffbf1f"/><stop offset="1" stop-color="#ffb400"/></linearGradient><linearGradient id="b"><stop offset="0" stop-color="#e58200" stop-opacity="0"/><stop offset=".0396" stop-color="#e27f04" stop-opacity=".039216"/><stop offset=".4671" stop-color="#c15d2f" stop-opacity=".466667"/><stop offset=".8016" stop-color="#ad4949" stop-opacity=".8"/><stop offset="1" stop-color="#a64153"/></linearGradient><linearGradient id="c" gradientUnits="userSpaceOnUse" x1="255.9933837226" x2="255.9933837226" xlink:href="#b" y1="252.7241594316" y2="304.114625435"/><linearGradient id="d" gradientUnits="userSpaceOnUse" x1="47.6162212444" x2="34.0835534688" xlink:href="#b" y1="173.9652738252" y2="143.0335334754"/><linearGradient id="e" gradientUnits="userSpaceOnUse" x1="184.9106865126" x2="106.437818284" xlink:href="#b" y1="46.509244157" y2="-8.944897318"/><linearGradient id="f" gradientUnits="userSpaceOnUse" x1="150.7505337952" x2="431.459071667" y1="41.515234168" y2="322.2627242134"><stop offset="0" stop-color="#fffcf8"/><stop offset=".1875" stop-color="#faf8f6"/><stop offset=".4041" stop-color="#eceef2"/><stop offset=".6353" stop-color="#d5dcea"/><stop offset=".875" stop-color="#b5c4df"/><stop offset="1" stop-color="#a1b5d8"/></linearGradient><linearGradient id="g" gradientUnits="userSpaceOnUse" x1="201.2053444946" x2="113.3157882982" y1="221.4558040352" y2="20.5652894798"><stop offset="0" stop-color="#a1b5d8" stop-opacity="0"/><stop offset=".0343" stop-color="#9fb3d5" stop-opacity=".035294"/><stop offset=".4515" stop-color="#8898af" stop-opacity=".45098"/><stop offset=".788" stop-color="#798898" stop-opacity=".788235"/><stop offset="1" stop-color="#748290"/></linearGradient><linearGradient id="h"><stop offset="0" stop-color="#ff6e3a"/><stop offset=".1596" stop-color="#ff6440"/><stop offset=".4266" stop-color="#ff4b52"/><stop offset=".7662" stop-color="#ff216e"/><stop offset="1" stop-color="#ff0084"/></linearGradient><linearGradient id="i" gradientUnits="userSpaceOnUse" x1="256.00011" x2="256.00011" xlink:href="#h" y1="108.285584427" y2="176.2953767872"/><linearGradient id="j"><stop offset="0" stop-color="#e58200" stop-opacity="0"/><stop offset=".4384" stop-color="#c4602c" stop-opacity=".439216"/><stop offset=".7953" stop-color="#ae4948" stop-opacity=".796078"/><stop offset="1" stop-color="#a64153"/></linearGradient><linearGradient id="k" gradientUnits="userSpaceOnUse" x1="241.1776032388" x2="167.5866069118" xlink:href="#j" y1="162.6933380014" y2="89.1024420666"/><linearGradient id="l" gradientUnits="userSpaceOnUse" x1="127.9010682908" x2="127.9010682908" xlink:href="#h" y1="131.78890433" y2="366.118354038"/><linearGradient id="m" gradientUnits="userSpaceOnUse" x1="168.0864596756" x2="99.1807673226" xlink:href="#j" y1="185.1290872496" y2="116.2233948966"/><linearGradient id="n"><stop offset="0" stop-color="#ff0084"/><stop offset=".2338" stop-color="#ff216e"/><stop offset=".5734" stop-color="#ff4b52"/><stop offset=".8404" stop-color="#ff6440"/><stop offset="1" stop-color="#ff6e3a"/></linearGradient><linearGradient id="o" gradientUnits="userSpaceOnUse" x1="95.7384173006" x2="67.7596131216" xlink:href="#n" y1="181.6487343084" y2="75.8754119962"/><linearGradient id="p" gradientUnits="userSpaceOnUse" x1="168.5186462204" x2="178.072269149" xlink:href="#n" y1="186.669649407" y2="57.0120187928"/><linearGradient id="q" gradientTransform="matrix(1.003922 -.00471843 .00471843 1.003922 2675.29216 478.122869)" gradientUnits="userSpaceOnUse" x1="-2573.7715" x2="-2575.5483" xlink:href="#j" y1="-326.1219" y2="-366.1013"/><linearGradient id="r" gradientTransform="matrix(1.003922 -.00471843 .00471843 1.003922 2675.29216 478.122869)" gradientUnits="userSpaceOnUse" x1="-2582.999" x2="-2515.8679" xlink:href="#j" y1="-355.8302" y2="-409.5351"/><linearGradient id="s" gradientTransform="matrix(-1.003922 .00471843 .00471843 1.003922 2969.67158 477.645203)" gradientUnits="userSpaceOnUse" x1="2791.1475" x2="2789.3701" xlink:href="#j" y1="-327.403" y2="-367.3894"/><linearGradient id="t" gradientTransform="matrix(-1.003922 .00471843 .00471843 1.003922 2969.67158 477.645203)" gradientUnits="userSpaceOnUse" x1="2781.9182" x2="2849.0505" xlink:href="#j" y1="-357.1133" y2="-410.8192"/><linearGradient id="u" gradientUnits="userSpaceOnUse" x1="181.7800561478" x2="130.0951398218" xlink:href="#j" y1="159.7327720234" y2="108.0477553052"/><linearGradient id="v" gradientUnits="userSpaceOnUse" x1="108.718227107" x2="156.237871055" xlink:href="#h" y1="104.8045852842" y2="152.32412884"/><linearGradient id="w"><stop offset="0" stop-color="#45425a"/><stop offset="1" stop-color="#2d3251"/></linearGradient><linearGradient id="x" gradientUnits="userSpaceOnUse" x1="190.57953287" x2="190.57953287" xlink:href="#w" y1="199.0726602998" y2="250.1284187084"/><linearGradient id="y" gradientUnits="userSpaceOnUse" x1="232.8759714364" x2="232.8759714364" xlink:href="#w" y1="199.0726602998" y2="250.1284187084"/><linearGradient id="z" gradientUnits="userSpaceOnUse" x1="275.8999522762" x2="275.8999522762" xlink:href="#w" y1="199.0726602998" y2="250.1284187084"/><linearGradient id="A" gradientUnits="userSpaceOnUse" x1="318.9984241284" x2="318.9984241284" xlink:href="#w" y1="199.0726602998" y2="250.1284187084"/><linearGradient id="B" gradientUnits="userSpaceOnUse" x1="360.522445108" x2="360.522445108" xlink:href="#w" y1="199.0726602998" y2="250.1284187084"/><linearGradient id="C" gradientUnits="userSpaceOnUse" x1="404.1078191302" x2="404.1078191302" xlink:href="#w" y1="199.0726602998" y2="250.1284187084"/><linearGradient id="D" gradientUnits="userSpaceOnUse" x1="444.0585939436" x2="444.0585939436" xlink:href="#w" y1="199.0726602998" y2="250.1284187084"/><path d="m500.910156 88.679688c5.964844 0 10.800782-4.832032 10.800782-10.796876l.003906-50.363281c0-10.226562-8.289063-18.519531-18.519532-18.519531l-474.371093-.035156c-10.230469 0-18.519531 8.292968-18.523438 18.519531v50.359375c0 5.964844 4.832031 10.800781 10.796875 10.804688 5.96875 0 10.800782 4.835937 10.800782 10.800781l-.007813 99.25c0 5.964843-4.835937 10.800781-10.800781 10.800781s-10.800782 4.835938-10.800782 10.800781l-.003906 50.363281c0 10.226563 8.292969 18.515626 18.519532 18.519532l474.375.03125c10.226562 0 18.519531-8.289063 18.519531-18.515625l.003906-50.363281c0-5.964844-4.835937-10.800782-10.800781-10.800782s-10.800782-4.835937-10.800782-10.804687l.007813-99.25c0-5.964844 4.835937-10.800781 10.800781-10.800781zm0 0" fill="url(#a)"/><path d="m.289062 223.820312-.003906 46.84375c0 10.226563 8.289063 18.515626 18.515625 18.519532l474.375.03125c10.230469 0 18.519531-8.289063 18.519531-18.515625l.003907-46.875h-511.410157zm0 0" fill="url(#c)"/><path d="m21.105469 152.230469 34.003906 34.003906v-34.003906zm0 0" fill="url(#d)"/><path d="m159.289062 9.996094 36.816407 36.816406h-36.816407zm0 0" fill="url(#e)"/><path d="m459.648438 254.953125h-402.671876c-6.707031 0-12.144531-5.433594-12.144531-12.144531v-187.433594c0-6.710938 5.4375-12.148438 12.144531-12.148438h402.671876c6.707031 0 12.144531 5.4375 12.144531 12.148438v187.433594c0 6.707031-5.4375 12.144531-12.144531 12.144531zm0 0" fill="url(#f)"/><path d="m212.773438 75.8125c-6.9375-7.785156-18.46875-10.792969-28.753907-6.199219-10.058593 4.5-19.726562 10.378907-28.570312 15.292969-5.347657 2.972656-9.730469 5.972656-13.640625 8.960938-4.230469-1.957032-8.941406-3.054688-13.90625-3.054688-5.214844 0-10.140625 1.203125-14.53125 3.34375-3.863282-2.878906-8.195313-5.761719-13.4375-8.613281-8.890625-4.832031-18.609375-10.621094-28.710938-15.023438-14.105468-6.148437-30.425781 1.902344-34.085937 16.847657-2.625 10.722656 9.296875 21.335937 9.183593 32 0 0-11.9375 24.109374-8.863281 36.175781 1.269531 4.988281 3.957031 9.183593 7.492188 12.332031l100.191406 100.191406c.640625.726563 1.328125 1.40625 2.042969 2.046875 2 2.253907 4.382812 4.109375 7.011718 5.496094.398438.214844.804688.414063 1.214844.601563.015625.007812.03125.015624.046875.019531.394531.183593.792969.355469 1.199219.515625.03125.011718.0625.023437.09375.035156.386719.152344.777344.296875 1.171875.429688.050781.015624.097656.03125.148437.046874.375.125.757813.238282 1.140626.347657.066406.015625.132812.035156.199218.050781.367188.101562.738282.191406 1.109375.273438.082031.019531.164063.035156.246094.054687.359375.074219.71875.140625 1.078125.199219.097656.015625.195312.03125.292969.046875.347656.054687.695312.097656 1.046875.136719.109375.011718.222656.023437.335937.035156.335938.035156.671875.054687 1.011719.074218.125.007813.25.015626.378906.019532.324219.015625.648438.019531.976563.019531.136719 0 .277343 0 .417969-.003906.3125-.003907.628906-.019531.941406-.035157.152344-.011718.304687-.015624.457031-.027343.304687-.023438.605469-.054688.910156-.089844.164063-.019531.324219-.035156.484375-.054687.296875-.039063.59375-.089844.886719-.140626.171875-.027343.339844-.050781.507813-.085937.289062-.054687.578124-.121094.871093-.1875.171875-.039063.34375-.074219.515625-.117187.292969-.074219.582032-.160157.871094-.246094.167969-.046875.339844-.089844.507812-.144532.3125-.097656.621094-.210937.925782-.320312.148437-.050781.296875-.097656.441406-.152344.453125-.171875.90625-.359375 1.355469-.558594 6.285156-2.808593 12.417969-6.160156 18.296875-9.480468 1.171875-.664063 2.339844-1.324219 3.492187-1.980469 2.308594-1.3125 4.570313-2.601563 6.78125-3.832031 3.109375-1.730469 5.898438-3.46875 8.457031-5.207032.125-.085937.242188-.171874.367188-.257812 5.34375 3.6875 11.824219 5.851562 18.808594 5.851562 7.203125 0 13.867187-2.304687 19.304687-6.203124 2.59375 1.734374 5.421875 3.464843 8.578125 5.179687 1.113282.605469 2.238282 1.226563 3.378906 1.859375 6.816407 3.773438 14.066407 7.921875 21.5625 11.453125 1.25.589844 2.507813 1.164063 3.769532 1.710937.453125.199219.90625.378907 1.359375.546876.144531.054687.289062.097656.433593.148437.011719.003906.023438.007813.035157.011719.144531.050781.285156.097656.429687.144531.160156.050781.316406.109375.472656.15625.167969.050781.335938.09375.5.140625.285157.078125.566407.160156.851563.230469.027344.007812.046875.011719.074219.019531.15625.035156.3125.0625.46875.097656.292968.066406.585937.128906.878906.183594.160156.03125.316406.050781.476562.078125.132813.019531.261719.042969.394532.0625.175781.023437.351562.050781.523437.070313.160157.019531.320313.035156.480469.050781.28125.027343.5625.058593.839844.078125.046875.003906.089844.007812.136718.007812.132813.007813.261719.011719.394532.015625.316406.015625.628906.027344.945312.03125.140625 0 .277344 0 .417969-.003906h.042969c.109375 0 .214844 0 .324218-.003906.203126-.003907.40625-.011719.609376-.019531.125-.007813.253906-.015626.378906-.023438.289062-.019531.574218-.039062.863281-.066406.0625-.007813.128906-.015625.191406-.023438.097657-.007812.195313-.019531.289063-.035156.351562-.039062.699218-.085938 1.046875-.144531.097656-.015625.191406-.03125.289062-.046875.054688-.011719.113281-.019532.167969-.03125.058594-.007813.121094-.019532.179688-.03125.246093-.042969.488281-.097656.734374-.152344.078126-.015625.160157-.035156.238282-.054688.292968-.066406.585937-.136718.878906-.214843.066406-.019531.136719-.039063.203125-.058594.011719-.003906.023437-.007813.03125-.007813.066406-.019531.128906-.039062.191406-.054687.386719-.109375.769531-.230469 1.148438-.359375.046875-.015625.09375-.03125.136719-.046875.394531-.136719.785156-.285156 1.175781-.441406.03125-.011719.0625-.023438.09375-.039063.289062-.117187.574219-.238281.855469-.367187.046874-.023438.09375-.042969.140624-.0625.066407-.03125.128907-.0625.195313-.09375.015625-.007813.03125-.011719.046875-.019531 1.105469-.523438 2.167969-1.125 3.1875-1.804688.023438-.015625.046875-.03125.070312-.046875 1.109376-.742187 2.160157-1.578125 3.140626-2.492187.007812-.007813.015624-.015626.023437-.023438 3.363281-3.152344 5.902344-7.28125 7.09375-12.148438 2.960937-12.089843-9.199219-36.089843-9.199219-36.089843-.210937-10.664063 11.609375-21.386719 8.882813-32.082031-1.277344-5.011719-3.980469-9.222657-7.53125-12.378907zm0 0" fill="url(#g)"/><path d="m0 142.234375v-42.785156c0-5.519531 4.472656-9.992188 9.996094-9.992188h492.007812c5.519532 0 9.996094 4.472657 9.996094 9.992188v42.785156c0 5.519531-4.472656 9.996094-9.996094 9.996094h-492.007812c-5.523438 0-9.996094-4.476563-9.996094-9.996094zm0 0" fill="url(#i)"/><path d="m180.492188 152.230469h100.445312l-62.777344-62.773438h-37.667968zm0 0" fill="url(#k)"/><path d="m149.292969 298.183594h-42.785157c-5.519531 0-9.992187-4.476563-9.992187-9.996094v-278.191406c0-5.519532 4.472656-9.996094 9.992187-9.996094h42.785157c5.519531 0 9.996093 4.472656 9.996093 9.996094v278.191406c0 5.519531-4.476562 9.996094-9.996093 9.996094zm0 0" fill="url(#l)"/><path d="m96.511719 158.582031 62.777343 62.777344v-90.054687h-62.777343zm0 0" fill="url(#m)"/><path d="m119.8125 99.242188c-5.5-4.546876-11.542969-9.167969-19.878906-13.699219-8.890625-4.835938-18.613282-10.625-28.714844-15.027344-14.105469-6.144531-30.421875 1.90625-34.082031 16.851563-2.625 10.722656 9.296875 21.335937 9.183593 32 0 0-11.9375 24.109374-8.863281 36.171874 3.796875 14.910157 20.191407 22.808594 34.238281 16.53125 10.058594-4.496093 19.726563-10.375 28.570313-15.292968 8.292969-4.613282 14.292969-9.289063 19.753906-13.886719 13.5625-11.421875 13.464844-32.355469-.207031-43.648437zm0 0" fill="url(#o)"/><path d="m209.375 118.230469c-.210938-10.664063 11.609375-21.390625 8.882812-32.085938-3.796874-14.910156-20.191406-22.808593-34.238281-16.53125-10.058593 4.496094-19.726562 10.375-28.570312 15.292969-8.292969 4.613281-14.292969 9.289062-19.75 13.882812-13.566407 11.425782-13.464844 32.359376.203125 43.652344 5.5 4.542969 11.542968 9.164063 19.882812 13.699219 8.890625 4.835937 18.609375 10.621094 28.710938 15.023437 14.105468 6.148438 30.425781-1.902343 34.082031-16.847656 2.960937-12.089844-9.203125-36.085937-9.203125-36.085937zm0 0" fill="url(#p)"/><path d="m120.019531 142.894531c4.320313-3.640625 7.246094-8.246093 8.796875-13.195312-25.085937 2.367187-64.253906 11.054687-78.90625 41.628906 6.484375 3.429687 14.453125 4.019531 21.785156.742187 10.058594-4.496093 19.726563-10.375 28.570313-15.289062 8.296875-4.613281 14.292969-9.292969 19.753906-13.886719zm0 0" fill="url(#q)"/><path d="m56.703125 119.382812c.046875 10.039063 1.367187 37.652344 29.058594 45.570313 5.019531-2.765625 9.875-5.601563 14.503906-8.175781 8.296875-4.609375 14.292969-9.289063 19.753906-13.882813 7.601563-6.402343 10.910157-15.792969 9.945313-24.800781 0 0-14.535156-7.761719-20.988282-10.847656-34.863281-16.6875-52.339843-1.988282-52.273437 12.136718zm0 0" fill="url(#r)"/><path d="m135.902344 142.445312c-4.355469-3.601562-7.324219-8.175781-8.921875-13.113281 25.105469 2.132813 64.355469 10.453125 79.292969 40.890625-6.453126 3.488282-14.414063 4.152344-21.777344.945313-10.101563-4.402344-19.824219-10.191407-28.710938-15.023438-8.339844-4.535156-14.382812-9.15625-19.882812-13.699219zm0 0" fill="url(#s)"/><path d="m198.992188 118.339844c.046874 10.039062-1.011719 37.664062-28.628907 45.839844-5.042969-2.71875-9.925781-5.507813-14.582031-8.039063-8.335938-4.53125-14.378906-9.152344-19.878906-13.699219-7.664063-6.328125-11.058594-15.6875-10.179688-24.707031 0 0 14.460938-7.894531 20.886719-11.042969 34.707031-17.011718 52.316406-2.472656 52.382813 11.648438zm0 0" fill="url(#t)"/><path d="m214.226562 163.429688-62.085937-62.082032c-2.910156-3.117187-6.421875-5.664062-10.339844-7.480468-2.152343 1.648437-4.164062 3.292968-6.105469 4.925781-13.5625 11.421875-13.464843 32.355469.207032 43.652343 5.5 4.542969 11.542968 9.164063 19.882812 13.699219 8.886719 4.832031 18.609375 10.621094 28.710938 15.023438 10.863281 4.734375 23.035156 1.039062 29.730468-7.738281zm0 0" fill="url(#u)"/><path d="m161.078125 123.988281c0 18.320313-14.855469 33.175781-33.175781 33.175781-18.324219 0-33.179688-14.855468-33.179688-33.175781 0-18.324219 14.855469-33.175781 33.179688-33.175781 18.320312 0 33.175781 14.851562 33.175781 33.175781zm0 0" fill="url(#v)"/><path d="m170.550781 185.984375c0-.898437.527344-1.671875 1.574219-2.324219 1.050781-.648437 2.175781-.972656 3.375-.972656 1.5 0 2.421875.550781 2.773438 1.648438l12.367187 42.722656 12.292969-42.722656c.34375-1.097657 1.238281-1.648438 2.679687-1.648438 1.191407 0 2.320313.324219 3.390625.972656 1.066406.644532 1.601563 1.417969 1.601563 2.3125 0 .148438-.050781.375-.148438.671875l-14.832031 48.574219c-.25.851562-.847656 1.519531-1.789062 1.996094-.941407.476562-2.007813.714844-3.195313.714844-2.75 0-4.421875-.902344-5.023437-2.699219l-14.992188-48.570313c-.046875-.152344-.074219-.375-.074219-.675781zm0 0" fill="url(#x)"/><path d="m216.050781 221.214844v-21.8125c0-5.746094 1.523438-9.96875 4.570313-12.667969s7.121094-4.046875 12.21875-4.046875 9.179687 1.347656 12.253906 4.046875 4.609375 6.921875 4.609375 12.667969v21.8125c0 5.746094-1.535156 9.96875-4.609375 12.664062-3.074219 2.699219-7.15625 4.050782-12.253906 4.050782s-9.171875-1.351563-12.21875-4.050782c-3.050782-2.695312-4.570313-6.917968-4.570313-12.664062zm7.941407 0c0 6.445312 2.949218 9.667968 8.847656 9.667968 2.847656 0 5.046875-.800781 6.59375-2.398437s2.324218-4.023437 2.324218-7.269531v-21.8125c0-3.25-.773437-5.671875-2.324218-7.269532-1.546875-1.601562-3.746094-2.398437-6.59375-2.398437-5.898438 0-8.847656 3.222656-8.847656 9.667969zm0 0" fill="url(#y)"/><path d="m258.773438 221.214844v-35.980469c0-.847656.386718-1.488281 1.160156-1.910156.773437-.425781 1.710937-.636719 2.8125-.636719 1.097656 0 2.035156.210938 2.808594.636719.777343.421875 1.164062 1.0625 1.164062 1.910156v35.980469c0 3.246094.796875 5.671875 2.398438 7.269531 1.597656 1.597656 3.847656 2.398437 6.746093 2.398437 6.144531 0 9.21875-3.222656 9.21875-9.671874v-35.976563c0-.851563.386719-1.488281 1.164063-1.914063.773437-.421874 1.707031-.636718 2.808594-.636718 1.097656 0 2.035156.214844 2.8125.636718.773437.425782 1.160156 1.0625 1.160156 1.914063v35.976563c0 5.75-1.5625 9.96875-4.683594 12.667968-3.125 2.699219-7.285156 4.046875-12.480469 4.046875-5.148437 0-9.28125-1.347656-12.40625-4.046875-3.125-2.695312-4.683593-6.917968-4.683593-12.664062zm0 0" fill="url(#z)"/><path d="m302.171875 221.214844v-21.8125c0-5.746094 1.535156-9.96875 4.609375-12.667969s7.082031-4.046875 12.03125-4.046875c5.097656 0 9.207031 1.261719 12.328125 3.78125 3.125 2.527344 4.683594 5.785156 4.683594 9.78125 0 1.601562-.296875 2.6875-.898438 3.261719-.597656.574219-1.625.863281-3.074219.863281-2.597656 0-3.921874-.875-3.972656-2.625-.296875-5.34375-3.222656-8.019531-8.769531-8.019531-5.996094 0-8.992187 3.222656-8.992187 9.671875v21.8125c0 6.445312 3.046874 9.667968 9.144531 9.667968 1.796875 0 3.296875-.261718 4.496093-.785156 1.199219-.527344 2.0625-1.289062 2.585938-2.289062.523438-.996094.886719-1.871094 1.085938-2.621094.199218-.75.351562-1.675781.449218-2.773438.152344-1.75 1.449219-2.625 3.898438-2.625 1.449218 0 2.488281.289063 3.113281.863282.621094.574218.933594 1.660156.933594 3.261718 0 4.148438-1.574219 7.519532-4.71875 10.117188-3.148438 2.597656-7.273438 3.898438-12.367188 3.898438-4.949219 0-8.945312-1.351563-11.992187-4.050782-3.050782-2.695312-4.574219-6.917968-4.574219-12.664062zm0 0" fill="url(#A)"/><path d="m343.246094 234.855469v-49.621094c0-.847656.386718-1.484375 1.160156-1.910156.773438-.421875 1.710938-.636719 2.8125-.636719 1.097656 0 2.035156.210938 2.808594.636719.773437.425781 1.164062 1.0625 1.164062 1.910156v20.6875h18.664063v-20.6875c0-.847656.386719-1.484375 1.160156-1.910156.773437-.421875 1.710937-.636719 2.8125-.636719 1.097656 0 2.035156.210938 2.808594.636719.773437.425781 1.160156 1.0625 1.160156 1.910156v49.621094c0 .800781-.386719 1.4375-1.160156 1.910156-.773438.476563-1.710938.714844-2.808594.714844-1.050781 0-1.976563-.238281-2.773437-.714844-.800782-.472656-1.199219-1.109375-1.199219-1.910156v-22.636719h-18.664063v22.636719c0 .800781-.390625 1.4375-1.164062 1.910156-.773438.476563-1.710938.714844-2.808594.714844-1.050781 0-1.976562-.238281-2.773438-.714844-.800781-.472656-1.199218-1.109375-1.199218-1.910156zm0 0" fill="url(#B)"/><path d="m387.691406 234.855469v-49.546875c0-.796875.351563-1.433594 1.050782-1.910156.699218-.476563 1.523437-.710938 2.472656-.710938h26.683594c.851562 0 1.5.347656 1.949218 1.046875.449219.699219.675782 1.5.675782 2.398437 0 1-.238282 1.851563-.710938 2.550782-.476562.699218-1.113281 1.046875-1.914062 1.046875h-22.261719v17.167969h11.542969c.800781 0 1.4375.3125 1.914062.933593.472656.628907.710938 1.386719.710938 2.289063 0 .796875-.226563 1.511718-.675782 2.136718-.449218.625-1.097656.933594-1.949218.933594h-11.542969v17.242188h22.261719c.800781 0 1.4375.347656 1.914062 1.046875.472656.703125.710938 1.550781.710938 2.550781 0 .898438-.226563 1.699219-.675782 2.398438-.449218.699218-1.097656 1.046874-1.949218 1.046874h-26.683594c-.949219 0-1.773438-.234374-2.472656-.710937-.699219-.472656-1.050782-1.109375-1.050782-1.910156zm0 0" fill="url(#C)"/><path d="m426.894531 234.855469v-49.621094c0-.699219.246094-1.296875.75-1.796875.496094-.5 1.125-.75 1.871094-.75h14.242187c11.492188 0 17.238282 5.097656 17.238282 15.289062 0 4.230469-.949219 7.550782-2.847656 9.964844-1.898438 2.414063-4.472657 4.019532-7.71875 4.816406l10.492187 19.757813c.199219.351563.300781.726563.300781 1.128906 0 1-.511718 1.925781-1.535156 2.78125-1.027344.851563-2.113281 1.277344-3.261719 1.277344-1.300781 0-2.347656-.777344-3.148437-2.328125l-10.945313-21.507812h-7.570312v20.980468c0 .800782-.386719 1.441406-1.160157 1.917969-.773437.476563-1.710937.714844-2.8125.714844-1.046874 0-1.960937-.238281-2.734374-.714844-.773438-.472656-1.160157-1.109375-1.160157-1.910156zm7.871094-27.285157h8.992187c6.195313 0 9.296876-2.96875 9.296876-8.917968 0-5.945313-3.101563-8.921875-9.296876-8.921875h-8.992187zm0 0" fill="url(#D)"/></svg>